{"glyphs":{"0":{"ha":828,"x_min":39,"x_max":788,"o":"m 788 513 q 769 328 788 421 q 708 159 751 235 q 592 36 664 83 q 413 -11 519 -11 q 233 36 306 -11 q 118 159 161 83 q 57 328 75 235 q 39 513 39 421 q 57 698 39 604 q 118 867 75 792 q 233 990 161 942 q 413 1038 306 1038 q 593 989 521 1038 q 708 864 665 940 q 769 694 751 788 q 788 513 788 601 m 629 513 q 622 635 629 567 q 592 764 615 703 q 527 867 569 825 q 413 908 485 908 q 298 867 340 908 q 233 764 256 825 q 203 635 210 703 q 196 513 196 567 q 203 390 196 458 q 233 261 210 322 q 299 158 256 200 q 413 117 342 117 q 527 158 485 117 q 592 261 569 200 q 622 390 615 322 q 629 513 629 458 z "},"1":{"ha":828,"x_min":135,"x_max":731,"o":"m 219 689 l 135 792 l 413 1029 l 538 1029 l 538 133 l 731 133 l 731 0 l 171 0 l 171 133 l 385 133 l 385 760 q 385 794 385 776 q 386 829 385 811 l 219 689 z "},"2":{"ha":828,"x_min":65,"x_max":760,"o":"m 760 0 l 65 0 l 65 89 l 411 436 q 479 508 447 472 q 539 588 511 544 q 578 690 565 635 q 580 794 590 746 q 531 874 569 842 q 419 907 493 907 q 343 892 378 907 q 283 853 308 878 q 246 793 258 828 q 236 717 233 758 l 83 744 q 194 960 103 883 q 428 1038 285 1038 q 550 1019 493 1038 q 649 963 607 1000 q 717 872 692 926 q 742 749 742 818 q 724 640 742 690 q 676 545 706 590 q 608 460 646 500 q 532 381 571 419 l 271 117 q 337 131 303 125 q 404 136 371 136 l 760 136 l 760 0 z "},"3":{"ha":828,"x_min":64,"x_max":764,"o":"m 199 314 q 223 239 203 275 q 272 176 243 203 q 339 134 301 150 q 415 118 376 118 q 490 131 454 118 q 552 166 525 143 q 595 222 579 189 q 611 294 611 254 q 590 388 611 353 q 533 440 568 422 q 454 464 499 458 q 363 469 410 469 l 363 581 q 447 588 406 581 q 521 613 489 594 q 573 664 553 632 q 593 747 593 696 q 549 865 593 822 q 429 907 506 907 q 355 892 390 907 q 294 853 319 878 q 256 793 269 828 q 246 717 243 758 l 94 743 q 204 959 114 881 q 438 1038 294 1038 q 551 1021 496 1038 q 648 971 606 1004 q 716 888 690 938 q 742 774 742 839 q 701 626 742 685 q 572 540 661 568 q 714 455 664 514 q 764 299 764 396 q 736 167 764 225 q 661 69 708 110 q 551 8 614 29 q 417 -12 488 -12 q 190 53 275 -12 q 64 258 106 118 l 199 314 z "},"4":{"ha":828,"x_min":25,"x_max":803,"o":"m 528 379 l 528 754 q 530 801 528 778 q 535 853 532 825 l 190 379 l 528 379 m 803 260 l 661 260 l 661 0 l 528 0 l 528 260 l 25 260 l 25 371 l 518 1028 l 661 1028 l 661 379 l 803 379 l 803 260 z "},"5":{"ha":828,"x_min":79,"x_max":749,"o":"m 158 215 q 261 147 203 174 q 382 119 319 119 q 472 137 432 119 q 540 184 513 154 q 581 255 567 214 q 596 343 596 296 q 540 488 596 439 q 388 536 483 536 q 308 528 347 536 q 229 510 268 521 l 135 536 l 218 1026 l 715 1026 l 715 886 l 325 886 l 283 647 q 419 663 353 663 q 550 642 490 663 q 654 583 610 622 q 724 485 699 543 q 749 351 749 428 q 721 203 749 271 q 643 89 693 136 q 524 15 593 42 q 372 -11 454 -11 q 249 7 313 -11 q 136 61 185 25 q 79 104 104 81 l 158 215 z "},"6":{"ha":828,"x_min":67,"x_max":772,"o":"m 660 1026 l 313 596 q 468 636 385 636 q 594 613 538 636 q 690 549 650 590 q 751 452 729 508 q 772 329 772 396 q 744 192 772 254 q 668 84 717 129 q 554 14 619 39 q 414 -11 489 -11 q 270 14 335 -11 q 160 85 206 39 q 91 198 115 132 q 67 346 67 264 q 103 508 67 429 q 189 651 140 586 l 469 1026 l 660 1026 m 411 115 q 492 130 454 115 q 558 172 531 144 q 603 235 586 199 q 619 318 619 272 q 564 465 619 410 q 417 519 508 519 q 336 504 374 519 q 272 463 299 489 q 229 400 244 436 q 214 321 214 364 q 265 173 214 231 q 411 115 315 115 z "},"7":{"ha":828,"x_min":67,"x_max":771,"o":"m 771 918 l 319 0 l 153 0 l 567 813 q 615 886 585 851 l 67 886 l 67 1026 l 771 1026 l 771 918 z "},"8":{"ha":828,"x_min":63,"x_max":765,"o":"m 576 536 q 717 445 668 508 q 765 286 765 382 q 736 153 765 210 q 658 61 707 97 q 545 7 608 25 q 414 -11 482 -11 q 279 7 343 -11 q 167 63 215 25 q 91 156 119 100 q 63 286 63 211 q 112 446 63 383 q 253 536 161 508 q 136 624 175 565 q 97 765 97 683 q 124 881 97 831 q 194 967 150 932 q 295 1019 238 1001 q 414 1038 353 1038 q 533 1019 475 1038 q 634 967 590 1001 q 704 881 678 932 q 731 765 731 831 q 692 624 731 683 q 576 536 653 565 m 414 921 q 292 879 339 921 q 246 763 246 838 q 290 637 246 681 q 414 593 335 593 q 537 638 492 593 q 582 763 582 682 q 533 880 582 839 q 414 921 485 921 m 414 110 q 490 121 454 110 q 551 155 525 132 q 593 211 578 178 q 608 289 608 244 q 553 426 608 381 q 414 471 497 471 q 275 426 331 471 q 219 289 219 381 q 274 157 219 204 q 414 110 329 110 z "},"9":{"ha":828,"x_min":74,"x_max":754,"o":"m 175 0 l 490 403 l 539 469 q 453 428 499 442 q 360 415 408 415 q 243 437 296 415 q 153 498 190 458 q 94 592 115 538 q 74 710 74 646 q 101 842 74 782 q 174 946 128 903 q 284 1013 221 989 q 419 1038 347 1038 q 555 1014 493 1038 q 661 947 617 990 q 730 842 706 904 q 754 703 754 781 q 722 533 754 607 q 636 382 689 458 l 369 0 l 175 0 m 226 721 q 275 583 226 633 q 413 532 324 532 q 553 584 499 532 q 607 719 607 636 q 556 858 607 804 q 417 911 506 911 q 280 859 333 911 q 226 721 226 807 z "}," ":{"ha":311,"x_min":0,"x_max":0,"o":""},"!":{"ha":476,"x_min":157,"x_max":321,"o":"m 292 286 l 185 286 l 163 882 l 158 1046 l 319 1046 l 292 286 m 157 -18 l 157 154 l 321 154 l 321 -18 l 157 -18 z "},"\"":{"ha":719,"x_min":122,"x_max":593,"o":"m 126 913 l 122 1076 l 288 1076 l 283 913 l 251 636 l 158 636 l 126 913 m 432 913 l 426 1076 l 593 1076 l 589 913 l 557 636 l 464 636 l 432 913 z "},"#":{"ha":772,"x_min":56,"x_max":725,"o":"m 539 1008 l 642 1008 l 608 738 l 725 738 l 725 632 l 596 632 l 568 410 l 694 410 l 694 304 l 558 304 l 521 0 l 415 0 l 451 304 l 275 304 l 239 0 l 133 0 l 169 304 l 56 304 l 56 410 l 183 410 l 210 632 l 86 632 l 86 738 l 224 738 l 257 1008 l 363 1008 l 329 738 l 504 738 l 539 1008 m 315 632 l 289 410 l 465 410 l 493 632 l 315 632 z "},"$":{"ha":846,"x_min":56,"x_max":772,"o":"m 638 508 q 724 426 692 475 q 764 320 756 376 q 758 208 772 264 q 703 106 743 151 q 656 63 683 81 q 599 31 629 44 q 539 8 569 17 q 481 -4 508 0 l 481 -125 l 374 -125 l 374 -8 q 309 2 346 -6 q 230 26 272 10 q 143 68 188 42 q 56 135 99 94 l 128 238 q 179 192 150 213 q 241 157 208 172 q 308 131 274 142 q 374 115 343 119 l 374 475 q 313 497 347 483 q 244 531 279 511 q 177 575 208 550 q 126 629 146 600 q 90 704 101 664 q 83 785 79 744 q 103 865 86 826 q 149 933 119 904 q 254 1005 193 981 q 374 1036 315 1029 l 374 1143 l 481 1143 l 481 1036 q 546 1018 513 1031 q 610 990 579 1006 q 669 958 642 975 q 717 926 697 942 q 682 875 703 907 q 646 824 661 843 q 619 842 636 831 q 579 866 601 854 q 531 889 557 878 q 481 907 506 900 l 481 575 q 555 551 515 565 q 638 508 594 536 m 207 761 q 226 706 210 731 q 266 664 242 682 q 319 632 290 646 q 374 608 347 618 l 374 910 q 313 893 343 904 q 258 864 282 882 q 220 820 235 846 q 207 761 206 794 m 642 272 q 569 404 647 353 q 524 428 546 419 q 481 444 501 438 l 481 121 q 536 139 508 128 q 587 169 564 150 q 625 213 610 188 q 642 272 640 239 z "},"%":{"ha":1279,"x_min":53,"x_max":1224,"o":"m 879 1039 l 1017 1039 l 400 -17 l 261 -17 l 879 1039 m 288 1039 q 399 1013 354 1039 q 472 943 444 986 q 510 845 499 900 q 521 732 521 790 q 510 619 521 675 q 472 520 499 564 q 399 449 444 476 q 288 422 354 422 q 176 449 221 422 q 103 520 131 476 q 65 619 76 564 q 53 732 53 675 q 65 845 53 790 q 103 943 76 900 q 176 1013 131 986 q 288 1039 221 1039 m 288 531 q 347 551 325 531 q 381 603 369 572 q 395 668 392 633 q 399 731 399 703 q 395 793 399 758 q 381 858 392 828 q 347 910 369 889 q 288 931 325 931 q 227 910 250 931 q 193 858 204 889 q 178 793 182 828 q 175 731 175 758 q 178 668 175 703 q 194 603 182 633 q 228 551 206 572 q 288 531 250 531 m 990 603 q 1102 576 1057 603 q 1174 507 1147 550 q 1213 408 1201 464 q 1224 296 1224 353 q 1213 182 1224 238 q 1174 83 1201 126 q 1103 13 1147 39 q 990 -14 1058 -14 q 878 13 924 -14 q 806 83 833 39 q 767 182 779 126 q 756 296 756 238 q 767 408 756 353 q 807 507 779 464 q 879 576 835 550 q 990 603 924 603 m 990 94 q 1050 115 1028 94 q 1083 167 1072 136 q 1098 232 1094 197 q 1101 294 1101 267 q 1098 357 1101 322 q 1083 422 1094 392 q 1050 474 1072 453 q 990 494 1028 494 q 930 474 953 494 q 896 422 907 453 q 881 357 885 392 q 878 294 878 322 q 881 232 878 267 q 897 167 885 197 q 931 115 908 136 q 990 94 953 94 z "},"&":{"ha":951,"x_min":40,"x_max":946,"o":"m 946 10 l 778 10 l 672 124 q 576 57 629 85 q 465 15 522 29 q 348 1 407 0 q 232 19 289 1 q 137 72 179 35 q 71 158 94 108 q 41 284 40 222 q 67 400 42 346 q 140 499 93 454 q 246 574 186 544 l 175 671 q 148 744 157 704 q 140 823 139 783 q 156 899 142 863 q 197 965 169 936 q 274 1014 229 997 q 367 1032 319 1031 q 461 1019 415 1033 q 542 975 507 1004 q 610 817 608 914 q 598 729 613 769 q 558 656 583 689 q 497 595 532 622 q 425 547 463 568 l 667 296 q 686 336 675 307 q 709 399 697 365 q 731 466 721 433 q 744 515 740 499 l 874 515 q 825 358 850 431 q 747 213 800 285 l 946 10 m 292 890 q 256 824 260 863 q 268 747 253 785 q 303 686 281 718 q 347 631 326 654 q 399 667 374 649 q 443 707 424 685 q 486 799 479 746 q 456 892 493 851 q 418 915 439 908 q 374 922 397 922 q 330 913 351 921 q 292 890 308 904 m 324 483 q 265 444 293 465 q 216 397 238 422 q 182 340 194 371 q 169 269 169 308 q 187 203 169 232 q 233 157 204 175 q 295 130 261 139 q 363 121 329 121 q 586 213 490 125 l 324 483 z "},"'":{"ha":414,"x_min":124,"x_max":289,"o":"m 128 913 l 124 1076 l 289 1076 l 285 913 l 253 636 l 160 636 l 128 913 z "},"(":{"ha":493,"x_min":122,"x_max":428,"o":"m 328 -201 q 176 130 231 -43 q 122 510 122 303 q 176 889 122 717 q 328 1219 231 1061 l 428 1176 q 294 858 336 1025 q 253 510 253 690 q 294 161 253 328 q 428 -157 336 -6 l 328 -201 z "},")":{"ha":493,"x_min":63,"x_max":369,"o":"m 63 -157 q 196 161 154 -6 q 238 510 238 328 q 196 858 238 690 q 63 1176 154 1025 l 163 1219 q 316 889 263 1061 q 369 510 369 717 q 315 130 369 303 q 163 -201 261 -43 l 63 -157 z "},"*":{"ha":672,"x_min":79,"x_max":589,"o":"m 147 675 l 236 826 l 79 893 l 107 978 l 274 938 l 289 1113 l 379 1113 l 394 939 l 561 978 l 589 893 l 432 826 l 522 675 l 450 622 l 335 757 l 219 622 l 147 675 z "},"+":{"ha":792,"x_min":51,"x_max":738,"o":"m 333 457 l 51 457 l 51 574 l 333 574 l 333 874 l 456 874 l 456 574 l 738 574 l 738 457 l 456 457 l 456 157 l 333 157 l 333 457 z "},",":{"ha":299,"x_min":28,"x_max":244,"o":"m 81 176 l 244 176 l 156 -112 l 28 -112 l 81 176 z "},"-":{"ha":611,"x_min":69,"x_max":542,"o":"m 69 571 l 542 571 l 542 453 l 69 453 l 69 571 z "},".":{"ha":368,"x_min":61,"x_max":225,"o":"m 225 -18 l 61 -18 l 61 154 l 225 154 l 225 -18 z "},"/":{"ha":542,"x_min":17,"x_max":514,"o":"m 403 1178 l 514 1178 l 128 -181 l 17 -181 l 403 1178 z "},":":{"ha":364,"x_min":100,"x_max":264,"o":"m 264 651 l 100 651 l 100 824 l 264 824 l 264 651 m 264 79 l 100 79 l 100 251 l 264 251 l 264 79 z "},";":{"ha":364,"x_min":49,"x_max":264,"o":"m 264 824 l 264 651 l 100 651 l 100 824 l 264 824 m 101 251 l 263 251 l 174 -37 l 49 -37 l 101 251 z "},"<":{"ha":699,"x_min":53,"x_max":613,"o":"m 53 442 l 53 554 l 613 949 l 613 800 l 175 496 l 613 210 l 613 60 l 53 442 z "},"=":{"ha":792,"x_min":51,"x_max":738,"o":"m 51 746 l 738 746 l 738 629 l 51 629 l 51 746 m 51 401 l 738 401 l 738 285 l 51 285 l 51 401 z "},">":{"ha":699,"x_min":86,"x_max":646,"o":"m 646 442 l 86 60 l 86 210 l 524 496 l 86 800 l 86 949 l 646 554 l 646 442 z "},"?":{"ha":674,"x_min":56,"x_max":614,"o":"m 268 288 q 274 426 263 374 q 309 514 286 479 q 360 571 332 549 q 413 618 388 593 q 455 678 438 643 q 474 771 472 713 q 444 887 476 842 q 336 932 411 932 q 284 925 310 932 q 237 899 258 918 q 201 843 215 879 q 182 749 186 807 l 56 749 q 92 903 61 842 q 165 1000 122 964 q 258 1051 208 1036 q 350 1065 307 1065 q 457 1042 408 1065 q 540 978 506 1018 q 594 888 575 939 q 614 779 614 836 q 597 668 614 711 q 553 594 579 625 q 499 537 528 563 q 446 479 469 511 q 408 402 422 447 q 399 288 393 357 l 268 288 m 414 154 l 414 -18 l 250 -18 l 250 154 l 414 154 z "},"@":{"ha":1350,"x_min":78,"x_max":1272,"o":"m 642 -250 q 424 -214 526 -250 q 244 -106 321 -178 q 122 72 167 -35 q 78 318 78 178 q 131 606 78 476 q 276 828 185 736 q 490 971 368 921 q 746 1021 611 1021 q 964 982 867 1021 q 1130 873 1061 943 q 1235 706 1199 803 q 1272 490 1272 608 q 1242 308 1272 386 q 1165 178 1213 231 q 1060 99 1118 125 q 946 72 1003 72 q 833 102 879 72 q 779 190 788 132 l 775 190 q 688 115 739 144 q 586 85 636 85 q 447 143 503 85 q 392 310 392 201 q 414 440 392 375 q 476 558 436 506 q 573 644 517 611 q 697 678 629 678 q 769 660 738 678 q 821 601 800 642 l 824 601 l 843 665 l 946 665 l 881 344 q 879 217 860 257 q 961 176 899 176 q 1033 198 997 176 q 1099 259 1069 219 q 1146 356 1128 299 q 1164 485 1164 413 q 1138 656 1164 576 q 1058 793 1111 735 q 924 885 1004 851 q 733 918 843 918 q 533 876 631 918 q 359 756 435 833 q 238 568 283 678 q 192 322 192 458 q 227 120 192 208 q 325 -27 263 32 q 472 -117 388 -86 q 654 -147 557 -147 q 786 -128 722 -147 q 901 -81 850 -110 l 942 -172 q 642 -250 801 -250 m 618 189 q 681 209 649 189 q 750 275 713 229 l 792 513 q 751 558 772 544 q 700 571 729 571 q 624 547 658 571 q 566 486 590 524 q 529 404 542 449 q 517 318 517 360 q 545 219 517 250 q 618 189 574 189 z "},"A":{"ha":864,"x_min":-1,"x_max":863,"o":"m 606 292 l 250 292 l 163 0 l -1 0 l 338 1022 l 524 1022 l 863 0 l 692 0 l 606 292 m 567 418 l 526 556 q 476 724 500 639 q 429 896 453 808 l 424 896 q 378 724 401 808 q 329 556 354 639 l 288 418 l 567 418 z "},"B":{"ha":926,"x_min":135,"x_max":868,"o":"m 135 1022 l 451 1022 q 597 1009 531 1022 q 710 966 663 996 q 785 888 758 936 q 813 771 813 840 q 775 635 813 696 q 667 550 738 574 l 667 543 q 811 464 754 524 q 868 300 868 404 q 839 167 868 224 q 758 74 810 111 q 634 18 706 36 q 476 0 563 0 l 135 0 l 135 1022 m 433 596 q 603 637 551 596 q 654 750 654 678 q 600 864 654 831 q 438 897 546 897 l 296 897 l 296 596 l 433 596 m 458 126 q 645 169 581 126 q 710 308 710 213 q 645 435 710 396 q 458 474 581 474 l 296 474 l 296 126 l 458 126 z "},"C":{"ha":897,"x_min":79,"x_max":851,"o":"m 533 -18 q 354 17 438 -18 q 210 120 271 53 q 114 285 149 188 q 79 508 79 383 q 115 733 79 633 q 213 901 150 832 q 359 1006 275 969 q 540 1042 443 1042 q 710 1003 636 1042 q 831 913 783 964 l 743 810 q 654 876 703 850 q 543 901 606 901 q 422 874 476 901 q 327 797 367 847 q 266 676 288 747 q 244 514 244 604 q 265 350 244 422 q 324 227 286 278 q 417 149 363 176 q 539 122 471 122 q 665 151 610 122 q 765 231 719 181 l 851 129 q 711 20 789 58 q 533 -18 633 -18 z "},"D":{"ha":971,"x_min":135,"x_max":893,"o":"m 135 1022 l 400 1022 q 767 897 642 1022 q 893 515 893 771 q 860 294 893 390 q 765 133 828 199 q 613 34 703 68 q 408 0 524 0 l 135 0 l 135 1022 m 389 132 q 642 225 557 132 q 726 515 726 318 q 641 801 726 710 q 389 892 556 892 l 296 892 l 296 132 l 389 132 z "},"E":{"ha":833,"x_min":135,"x_max":754,"o":"m 135 1022 l 739 1022 l 739 888 l 296 888 l 296 603 l 671 603 l 671 467 l 296 467 l 296 136 l 754 136 l 754 0 l 135 0 l 135 1022 z "},"F":{"ha":786,"x_min":135,"x_max":740,"o":"m 135 1022 l 740 1022 l 740 888 l 296 888 l 296 575 l 674 575 l 674 440 l 296 440 l 296 0 l 135 0 l 135 1022 z "},"G":{"ha":974,"x_min":79,"x_max":875,"o":"m 551 -18 q 362 17 449 -18 q 213 120 275 53 q 115 285 150 188 q 79 508 79 383 q 115 733 79 633 q 215 901 151 832 q 367 1006 279 969 q 556 1042 454 1042 q 656 1031 610 1042 q 739 1001 701 1019 q 806 960 776 983 q 860 913 836 938 l 772 810 q 685 875 735 849 q 561 901 636 901 q 432 874 490 901 q 332 797 374 847 q 267 676 290 747 q 244 514 244 604 q 327 227 244 332 q 568 122 410 122 q 658 135 615 122 q 729 172 701 149 l 729 413 l 526 413 l 526 544 l 875 544 l 875 101 q 740 16 824 50 q 551 -18 657 -18 z "},"H":{"ha":1028,"x_min":135,"x_max":894,"o":"m 135 1022 l 296 1022 l 296 606 l 733 606 l 733 1022 l 894 1022 l 894 0 l 733 0 l 733 465 l 296 465 l 296 0 l 135 0 l 135 1022 z "},"I":{"ha":429,"x_min":135,"x_max":296,"o":"m 135 1022 l 296 1022 l 296 0 l 135 0 l 135 1022 z "},"J":{"ha":764,"x_min":42,"x_max":635,"o":"m 338 -18 q 162 24 233 -18 q 42 151 90 67 l 154 233 q 228 148 186 174 q 319 122 269 122 q 436 169 399 122 q 474 328 474 215 l 474 1022 l 635 1022 l 635 313 q 617 184 635 244 q 564 78 600 124 q 472 8 528 33 q 338 -18 415 -18 z "},"K":{"ha":921,"x_min":133,"x_max":919,"o":"m 133 1022 l 294 1022 l 294 539 l 299 539 l 688 1022 l 867 1022 l 550 628 l 919 0 l 740 0 l 451 500 l 294 308 l 294 0 l 133 0 l 133 1022 z "},"L":{"ha":774,"x_min":133,"x_max":726,"o":"m 133 1022 l 294 1022 l 294 136 l 726 136 l 726 0 l 133 0 l 133 1022 z "},"M":{"ha":1153,"x_min":135,"x_max":1019,"o":"m 135 1022 l 319 1022 l 507 506 q 541 403 525 454 q 575 299 557 351 l 582 299 q 615 403 600 351 q 649 506 631 454 l 833 1022 l 1019 1022 l 1019 0 l 869 0 l 869 506 q 872 581 869 540 q 877 663 874 621 q 884 747 881 706 q 890 822 888 788 l 885 822 l 803 586 l 625 99 l 525 99 l 346 586 l 265 822 l 260 822 q 266 747 263 788 q 272 663 269 706 q 277 581 275 621 q 279 506 279 540 l 279 0 l 135 0 l 135 1022 z "},"N":{"ha":1019,"x_min":135,"x_max":885,"o":"m 135 1022 l 300 1022 l 639 422 l 746 206 l 753 206 q 739 374 746 285 q 732 546 732 463 l 732 1022 l 885 1022 l 885 0 l 719 0 l 381 603 l 274 817 l 267 817 q 281 651 274 738 q 288 482 288 565 l 288 0 l 135 0 l 135 1022 z "},"O":{"ha":1047,"x_min":79,"x_max":969,"o":"m 524 -18 q 343 19 425 -18 q 203 125 261 56 q 112 293 144 194 q 79 515 79 392 q 112 737 79 639 q 203 902 144 835 q 343 1006 261 969 q 524 1042 425 1042 q 704 1006 622 1042 q 845 902 786 969 q 937 737 904 835 q 969 515 969 639 q 937 293 969 392 q 845 125 904 194 q 704 19 786 56 q 524 -18 622 -18 m 524 122 q 639 150 588 122 q 727 228 690 178 q 784 352 764 279 q 804 515 804 425 q 784 677 804 606 q 727 799 764 749 q 639 875 690 849 q 524 901 588 901 q 408 875 460 901 q 321 799 357 849 q 265 677 285 749 q 244 515 244 606 q 265 352 244 425 q 321 228 285 279 q 408 150 357 178 q 524 122 460 122 z "},"P":{"ha":899,"x_min":133,"x_max":833,"o":"m 133 1022 l 443 1022 q 601 1006 529 1022 q 724 954 672 990 q 804 859 775 918 q 833 714 833 800 q 804 569 833 631 q 724 467 775 507 q 603 407 674 426 q 449 388 532 388 l 294 388 l 294 0 l 133 0 l 133 1022 m 433 517 q 617 565 560 517 q 675 714 675 613 q 613 854 675 815 q 428 893 550 893 l 294 893 l 294 517 l 433 517 z "},"Q":{"ha":1047,"x_min":79,"x_max":976,"o":"m 524 114 q 639 142 588 114 q 727 222 690 169 q 784 348 764 274 q 804 515 804 422 q 784 677 804 606 q 727 799 764 749 q 639 875 690 849 q 524 901 588 901 q 408 875 460 901 q 321 799 357 849 q 265 677 285 749 q 244 515 244 606 q 265 348 244 422 q 321 222 285 274 q 408 142 357 169 q 524 114 460 114 m 976 -181 l 782 -181 l 640 -4 q 582 -16 611 -12 q 525 -19 553 -19 q 360 13 440 -19 q 217 110 279 44 q 117 276 154 175 q 79 515 79 378 q 112 737 79 639 q 203 902 144 835 q 343 1006 261 969 q 524 1042 425 1042 q 704 1006 622 1042 q 845 901 786 969 q 937 735 904 833 q 969 514 969 638 q 913 230 969 342 q 771 58 856 118 l 976 -181 z "},"R":{"ha":910,"x_min":135,"x_max":875,"o":"m 693 0 l 461 413 l 296 413 l 296 0 l 135 0 l 135 1022 l 469 1022 q 616 1007 549 1022 q 733 957 683 992 q 811 866 783 922 q 839 726 839 810 q 781 534 839 604 q 625 433 722 464 l 875 0 l 693 0 m 296 542 l 450 542 q 621 588 563 542 q 679 726 679 633 q 621 856 679 819 q 450 893 563 893 l 296 893 l 296 542 z "},"S":{"ha":844,"x_min":61,"x_max":785,"o":"m 425 -18 q 226 22 319 -18 q 61 132 132 61 l 156 243 q 282 155 211 188 q 428 122 353 122 q 571 161 521 122 q 621 267 621 200 q 609 326 621 301 q 575 368 597 350 q 523 401 553 386 q 457 431 493 415 l 315 492 q 241 530 278 507 q 174 585 204 553 q 126 661 144 618 q 107 760 107 704 q 132 872 107 821 q 202 961 157 924 q 309 1020 247 999 q 443 1042 371 1042 q 615 1007 535 1042 q 753 913 694 972 l 668 810 q 565 877 619 853 q 443 901 511 901 q 317 867 364 901 q 271 769 271 832 q 285 713 271 736 q 323 672 300 690 q 376 641 346 654 q 436 615 406 628 l 576 556 q 660 512 622 536 q 726 454 699 488 q 769 378 754 421 q 785 279 785 336 q 760 164 785 218 q 688 69 735 110 q 575 6 642 29 q 425 -18 508 -18 z "},"T":{"ha":847,"x_min":42,"x_max":804,"o":"m 342 888 l 42 888 l 42 1022 l 804 1022 l 804 888 l 503 888 l 503 0 l 342 0 l 342 888 z "},"U":{"ha":1018,"x_min":129,"x_max":889,"o":"m 510 -18 q 355 6 425 -18 q 235 85 285 31 q 157 227 185 140 q 129 439 129 314 l 129 1022 l 290 1022 l 290 428 q 307 283 290 342 q 353 188 324 224 q 422 138 382 153 q 510 122 463 122 q 599 138 558 122 q 670 188 640 153 q 717 283 700 224 q 733 428 733 342 l 733 1022 l 889 1022 l 889 439 q 862 227 889 314 q 785 85 835 140 q 665 6 735 31 q 510 -18 596 -18 z "},"V":{"ha":825,"x_min":-4,"x_max":826,"o":"m -4 1022 l 167 1022 l 318 493 q 364 326 344 406 q 411 158 383 247 l 418 158 q 465 326 444 247 q 511 493 486 406 l 663 1022 l 826 1022 l 507 0 l 317 0 l -4 1022 z "},"W":{"ha":1242,"x_min":31,"x_max":1208,"o":"m 31 1022 l 197 1022 l 293 490 l 347 163 l 353 163 q 387 326 369 246 q 422 490 404 407 l 554 1022 l 696 1022 l 829 490 q 864 328 847 410 q 899 163 881 246 l 906 163 q 931 328 918 246 q 957 490 944 410 l 1054 1022 l 1208 1022 l 1007 0 l 808 0 l 671 568 q 646 688 657 631 q 624 803 635 744 l 617 803 q 594 688 606 744 q 569 568 582 631 l 435 0 l 240 0 l 31 1022 z "},"X":{"ha":828,"x_min":21,"x_max":806,"o":"m 314 528 l 39 1022 l 218 1022 l 342 783 q 378 711 361 747 q 419 629 396 675 l 426 629 q 462 711 446 675 q 496 783 478 747 l 617 1022 l 786 1022 l 511 519 l 806 0 l 626 0 l 492 254 q 451 333 472 293 q 407 421 431 374 l 401 421 q 360 333 379 374 q 322 254 342 293 l 192 0 l 21 0 l 314 528 z "},"Y":{"ha":768,"x_min":-4,"x_max":772,"o":"m 303 388 l -4 1022 l 168 1022 l 286 751 q 333 639 310 693 q 382 526 356 585 l 388 526 q 437 639 413 585 q 485 751 461 693 l 604 1022 l 772 1022 l 464 388 l 464 0 l 303 0 l 303 388 z "},"Z":{"ha":843,"x_min":65,"x_max":782,"o":"m 65 97 l 578 888 l 113 888 l 113 1022 l 776 1022 l 776 926 l 265 136 l 782 136 l 782 0 l 65 0 l 65 97 z "},"[":{"ha":493,"x_min":143,"x_max":436,"o":"m 143 1182 l 436 1182 l 436 1094 l 263 1094 l 263 -72 l 436 -72 l 436 -161 l 143 -161 l 143 1182 z "},"\\":{"ha":542,"x_min":28,"x_max":525,"o":"m 28 1178 l 139 1178 l 525 -181 l 414 -181 l 28 1178 z "},"]":{"ha":493,"x_min":54,"x_max":349,"o":"m 54 -72 l 228 -72 l 228 1094 l 54 1094 l 54 1182 l 349 1182 l 349 -161 l 54 -161 l 54 -72 z "},"^":{"ha":675,"x_min":61,"x_max":614,"o":"m 289 1019 l 386 1019 l 614 622 l 475 622 l 338 889 l 200 622 l 61 622 l 289 1019 z "},"_":{"ha":782,"x_min":18,"x_max":763,"o":"m 18 14 l 763 14 l 763 -85 l 18 -85 l 18 14 z "},"`":{"ha":853,"x_min":179,"x_max":518,"o":"m 179 1135 l 290 1242 l 518 974 l 438 894 l 179 1135 z "},"a":{"ha":799,"x_min":75,"x_max":692,"o":"m 300 -18 q 209 -3 250 -18 q 138 42 168 13 q 92 112 108 71 q 75 203 75 153 q 99 325 75 267 q 182 419 122 383 q 327 465 240 451 q 532 486 414 478 q 525 550 532 519 q 501 603 518 581 q 456 640 485 626 q 386 653 428 653 q 264 628 324 653 q 156 572 204 604 l 108 689 q 245 755 168 726 q 414 783 322 783 q 624 699 557 783 q 692 460 692 615 l 692 0 l 561 0 l 547 83 l 543 83 q 431 10 490 39 q 300 -18 371 -18 m 349 108 q 442 129 399 108 q 532 193 485 150 l 532 382 q 435 371 476 375 q 361 360 393 367 q 306 345 329 354 q 264 319 282 336 q 231 265 233 292 q 229 214 229 238 q 263 132 229 156 q 349 108 297 108 z "},"b":{"ha":874,"x_min":119,"x_max":804,"o":"m 475 -18 q 367 7 422 -18 q 264 79 313 32 l 260 79 l 244 0 l 119 0 l 119 1107 l 278 1107 l 278 814 l 274 683 q 381 755 322 726 q 501 783 439 783 q 630 756 574 783 q 725 677 686 728 q 784 554 764 626 q 804 394 804 482 q 777 220 804 297 q 704 90 750 143 q 599 10 658 38 q 475 -18 540 -18 m 444 114 q 583 185 528 114 q 639 392 639 257 q 597 582 639 514 q 460 650 556 650 q 278 557 371 650 l 278 183 q 365 129 322 144 q 444 114 408 114 z "},"c":{"ha":718,"x_min":67,"x_max":679,"o":"m 432 -18 q 288 9 354 -18 q 172 87 221 36 q 94 212 122 138 q 67 381 67 286 q 97 551 67 476 q 180 678 128 626 q 301 756 232 729 q 444 783 369 783 q 573 758 519 783 q 668 696 626 732 l 589 592 q 524 635 557 619 q 451 651 492 651 q 364 632 404 651 q 294 577 324 613 q 249 492 265 542 q 232 381 232 442 q 248 271 232 321 q 292 186 264 221 q 360 132 319 151 q 447 113 400 113 q 538 133 496 113 q 614 182 579 153 l 679 76 q 563 6 626 29 q 432 -18 499 -18 z "},"d":{"ha":875,"x_min":69,"x_max":756,"o":"m 385 -18 q 153 84 238 -18 q 69 381 69 186 q 97 549 69 475 q 169 676 124 624 q 274 756 215 728 q 397 783 333 783 q 510 760 464 783 q 603 697 556 738 l 596 824 l 596 1107 l 756 1107 l 756 0 l 625 0 l 611 86 l 607 86 q 508 12 564 42 q 385 -18 451 -18 m 422 114 q 596 207 515 114 l 596 581 q 512 635 553 619 q 428 650 471 650 q 352 631 388 650 q 291 578 317 613 q 250 495 265 544 q 235 383 235 446 q 283 183 235 253 q 422 114 331 114 z "},"e":{"ha":785,"x_min":65,"x_max":725,"o":"m 438 -18 q 292 9 360 -18 q 174 87 224 36 q 94 212 124 138 q 65 381 65 286 q 94 549 65 475 q 172 676 124 624 q 284 756 221 728 q 414 783 347 783 q 548 757 490 783 q 645 683 606 731 q 705 569 685 636 q 725 421 725 503 q 723 376 725 396 q 718 340 721 356 l 222 340 q 295 169 232 231 q 458 107 358 107 q 554 122 510 107 q 640 164 599 136 l 696 63 q 578 4 643 26 q 438 -18 513 -18 m 588 450 q 544 604 588 550 q 417 658 500 658 q 349 644 382 658 q 289 604 315 631 q 244 539 263 578 q 221 450 226 500 l 588 450 z "},"f":{"ha":479,"x_min":43,"x_max":524,"o":"m 492 979 q 408 999 440 999 q 307 861 307 999 l 307 764 l 461 764 l 461 636 l 307 636 l 307 0 l 147 0 l 147 636 l 43 636 l 43 756 l 147 764 l 147 860 q 161 967 147 918 q 204 1051 175 1017 q 279 1106 233 1086 q 389 1125 325 1125 q 463 1117 428 1125 q 524 1099 497 1110 l 492 979 z "},"g":{"ha":803,"x_min":64,"x_max":781,"o":"m 381 -343 q 254 -331 313 -343 q 153 -292 196 -318 q 88 -229 111 -267 q 64 -142 64 -192 q 93 -50 64 -93 q 175 25 122 -7 l 175 32 q 126 81 146 50 q 106 158 106 111 q 132 240 106 203 q 190 300 158 276 l 190 306 q 121 388 151 336 q 90 508 90 440 q 115 624 90 574 q 179 710 139 675 q 273 765 219 746 q 386 783 326 783 q 447 778 418 783 q 497 764 475 772 l 768 764 l 768 644 l 622 644 q 658 585 644 621 q 672 504 672 549 q 650 393 672 442 q 589 310 628 344 q 498 259 550 276 q 386 242 446 242 q 279 265 339 242 q 249 231 260 249 q 238 185 238 213 q 264 130 238 150 q 365 110 290 110 l 506 110 q 713 67 644 110 q 781 -76 781 24 q 753 -181 781 -132 q 673 -265 725 -229 q 547 -322 621 -301 q 381 -343 472 -343 m 386 344 q 488 388 446 344 q 531 508 531 432 q 490 629 531 588 q 386 671 449 671 q 283 629 324 671 q 242 508 242 588 q 284 388 242 432 q 386 344 326 344 m 404 -237 q 495 -226 454 -237 q 565 -197 536 -215 q 610 -153 594 -178 q 626 -101 626 -129 q 590 -35 626 -53 q 483 -18 554 -18 l 368 -18 q 317 -15 342 -18 q 265 -7 292 -12 q 215 -60 231 -32 q 200 -118 200 -89 q 254 -207 200 -176 q 404 -237 308 -237 z "},"h":{"ha":863,"x_min":121,"x_max":756,"o":"m 121 1107 l 279 1107 l 279 814 l 274 663 q 383 747 324 711 q 521 783 442 783 q 699 706 643 783 q 756 481 756 628 l 756 0 l 596 0 l 596 461 q 565 603 596 561 q 467 646 535 646 q 372 619 414 646 q 279 542 331 593 l 279 0 l 121 0 l 121 1107 z "},"i":{"ha":358,"x_min":99,"x_max":263,"o":"m 100 0 l 100 764 l 258 764 l 258 0 l 100 0 m 263 1088 l 263 915 l 99 915 l 99 1088 l 263 1088 z "},"j":{"ha":379,"x_min":-68,"x_max":283,"o":"m 283 1088 l 283 915 l 119 915 l 119 1088 l 283 1088 m -68 -308 l -39 -189 q -6 -197 -24 -193 q 29 -201 11 -201 q 102 -165 83 -201 q 121 -60 121 -128 l 121 764 l 281 764 l 281 -57 q 268 -167 281 -117 q 228 -253 256 -217 q 158 -309 201 -289 q 50 -329 114 -329 l -68 -308 z "},"k":{"ha":799,"x_min":119,"x_max":785,"o":"m 119 1107 l 275 1107 l 275 393 l 279 393 l 579 764 l 756 764 l 496 454 l 785 0 l 611 0 l 404 346 l 275 197 l 275 0 l 119 0 l 119 1107 z "},"l":{"ha":379,"x_min":111,"x_max":269,"o":"m 111 1106 l 269 1106 l 269 0 l 111 0 l 111 1106 z "},"m":{"ha":1308,"x_min":121,"x_max":1199,"o":"m 121 764 l 251 764 l 264 657 l 268 657 q 375 747 317 710 q 504 783 433 783 q 641 747 592 783 q 715 643 690 710 q 833 744 774 706 q 964 783 892 783 q 1142 706 1086 783 q 1199 481 1199 628 l 1199 0 l 1039 0 l 1039 461 q 1008 603 1039 561 q 911 646 978 646 q 739 542 835 646 l 739 0 l 579 0 l 579 461 q 549 603 579 561 q 451 646 518 646 q 279 542 375 646 l 279 0 l 121 0 l 121 764 z "},"n":{"ha":867,"x_min":119,"x_max":754,"o":"m 119 764 l 250 764 l 263 658 l 267 658 q 380 747 319 710 q 519 783 440 783 q 698 706 642 783 q 754 481 754 628 l 754 0 l 594 0 l 594 461 q 564 603 594 561 q 465 646 533 646 q 371 619 413 646 q 278 542 329 593 l 278 0 l 119 0 l 119 764 z "},"o":{"ha":853,"x_min":67,"x_max":786,"o":"m 426 -18 q 290 9 356 -18 q 176 87 225 36 q 97 212 126 138 q 67 381 67 286 q 97 551 67 476 q 176 678 126 626 q 290 756 225 729 q 426 783 356 783 q 563 756 497 783 q 677 678 628 729 q 756 551 726 626 q 786 381 786 476 q 756 212 786 286 q 677 87 726 138 q 563 9 628 36 q 426 -18 497 -18 m 426 113 q 570 185 518 113 q 622 381 622 258 q 570 577 622 503 q 426 651 518 651 q 283 577 335 651 q 232 381 232 503 q 285 185 232 258 q 426 113 338 113 z "},"p":{"ha":875,"x_min":121,"x_max":806,"o":"m 121 764 l 251 764 l 264 681 l 268 681 q 378 753 318 722 q 503 783 439 783 q 633 756 576 783 q 727 677 689 728 q 785 554 765 626 q 806 394 806 482 q 778 220 806 297 q 706 90 751 143 q 601 10 660 38 q 476 -18 542 -18 q 374 4 425 -18 q 275 68 324 26 l 279 -62 l 279 -310 l 121 -310 l 121 764 m 446 114 q 585 185 529 114 q 640 392 640 257 q 599 582 640 514 q 461 650 557 650 q 372 627 417 650 q 279 557 328 604 l 279 183 q 367 129 324 144 q 446 114 410 114 z "},"q":{"ha":875,"x_min":69,"x_max":756,"o":"m 596 -50 l 603 82 q 503 10 558 39 q 385 -18 447 -18 q 153 84 238 -18 q 69 381 69 186 q 97 549 69 475 q 169 676 124 624 q 274 756 215 728 q 397 783 333 783 q 513 760 464 783 q 610 690 561 736 l 615 690 l 629 764 l 756 764 l 756 -310 l 596 -310 l 596 -50 m 422 114 q 596 207 515 114 l 596 581 q 512 635 553 619 q 428 650 471 650 q 352 631 388 650 q 291 578 317 613 q 250 495 265 544 q 235 383 235 446 q 283 183 235 253 q 422 114 331 114 z "},"r":{"ha":568,"x_min":119,"x_max":569,"o":"m 119 764 l 250 764 l 263 626 l 267 626 q 364 742 307 701 q 483 783 421 783 q 531 779 511 783 q 569 767 551 775 l 540 628 q 504 638 521 635 q 464 640 488 640 q 365 604 417 640 q 278 476 314 568 l 278 0 l 119 0 l 119 764 z "},"s":{"ha":667,"x_min":40,"x_max":618,"o":"m 328 -18 q 172 12 249 -18 q 40 88 96 42 l 115 190 q 218 126 167 150 q 332 103 269 103 q 435 132 403 103 q 467 206 467 161 q 452 251 467 232 q 413 285 438 271 q 359 313 389 300 q 297 338 329 325 q 221 371 260 353 q 151 415 182 389 q 99 476 119 440 q 79 560 79 511 q 98 649 79 608 q 151 719 117 689 q 237 767 186 750 q 350 783 288 783 q 490 756 429 783 q 599 693 551 729 l 524 594 q 442 642 483 624 q 353 661 401 661 q 260 634 290 661 q 231 567 231 607 q 244 524 231 542 q 281 493 258 507 q 333 468 303 479 q 393 446 363 457 q 474 413 433 431 q 546 369 514 394 q 598 306 578 343 q 618 214 618 268 q 599 124 618 167 q 544 50 581 82 q 453 0 507 18 q 328 -18 399 -18 z "},"t":{"ha":550,"x_min":33,"x_max":526,"o":"m 376 -18 q 268 1 313 -18 q 196 56 224 21 q 156 140 168 90 q 144 250 144 190 l 144 636 l 33 636 l 33 756 l 151 764 l 169 975 l 304 975 l 304 764 l 503 764 l 503 636 l 304 636 l 304 249 q 330 144 304 178 q 415 110 356 110 q 458 115 435 110 q 497 128 481 121 l 526 10 q 456 -10 494 -1 q 376 -18 418 -18 z "},"u":{"ha":861,"x_min":110,"x_max":740,"o":"m 343 -18 q 165 59 221 -18 q 110 283 110 136 l 110 764 l 269 764 l 269 303 q 299 161 269 203 q 397 119 329 119 q 492 147 450 119 q 581 233 533 174 l 581 764 l 740 764 l 740 0 l 610 0 l 597 115 l 593 115 q 481 17 540 53 q 343 -18 422 -18 z "},"v":{"ha":757,"x_min":18,"x_max":738,"o":"m 18 764 l 182 764 l 313 353 q 345 239 328 294 q 379 125 363 183 l 385 125 q 419 239 401 183 q 451 353 436 294 l 582 764 l 738 764 l 474 0 l 289 0 l 18 764 z "},"w":{"ha":1150,"x_min":38,"x_max":1113,"o":"m 38 764 l 199 764 l 300 350 q 321 241 311 294 q 342 133 331 188 l 347 133 q 372 242 360 188 q 397 350 383 296 l 504 764 l 653 764 l 763 350 q 788 241 776 294 q 814 133 800 188 l 819 133 q 841 241 831 188 q 864 350 851 294 l 963 764 l 1113 764 l 915 0 l 724 0 l 626 378 q 601 485 613 432 q 578 599 590 539 l 571 599 q 549 485 560 539 q 522 376 538 431 l 429 0 l 244 0 l 38 764 z "},"x":{"ha":731,"x_min":21,"x_max":708,"o":"m 268 399 l 39 764 l 211 764 l 303 610 q 337 546 318 578 q 375 482 356 514 l 381 482 q 413 546 396 514 q 444 610 429 578 l 525 764 l 692 764 l 463 381 l 708 0 l 535 0 l 435 161 q 396 231 415 196 q 356 297 376 265 l 349 297 q 313 231 331 265 q 278 161 296 197 l 189 0 l 21 0 l 268 399 z "},"y":{"ha":756,"x_min":18,"x_max":738,"o":"m 363 -319 l 211 -319 l 321 6 l 18 764 l 182 764 l 324 371 q 358 264 340 319 q 393 156 375 208 l 400 156 l 460 371 l 582 764 l 738 764 l 363 -319 z "},"z":{"ha":681,"x_min":51,"x_max":642,"o":"m 51 86 l 428 636 l 93 636 l 93 764 l 629 764 l 629 679 l 253 128 l 642 128 l 642 0 l 51 0 l 51 86 z "},"{":{"ha":493,"x_min":50,"x_max":436,"o":"m 358 -164 q 274 -153 310 -164 q 216 -119 239 -143 q 182 -53 193 -94 q 171 49 171 -12 q 173 126 171 90 q 178 197 175 163 q 183 266 181 232 q 185 339 185 300 q 178 383 185 361 q 157 422 172 404 q 116 449 142 439 q 50 460 90 460 l 50 557 q 116 568 90 557 q 157 596 142 579 q 178 633 172 613 q 185 675 185 654 q 183 749 185 714 q 178 818 181 783 q 173 889 175 853 q 171 967 171 925 q 182 1069 171 1028 q 216 1134 193 1110 q 274 1169 239 1158 q 358 1179 310 1179 l 436 1179 l 436 1092 l 400 1092 q 320 1063 340 1092 q 300 958 300 1033 q 304 827 300 890 q 308 685 308 764 q 285 565 308 604 q 207 511 261 525 l 207 504 q 285 450 261 490 q 308 331 308 410 q 304 188 308 251 q 300 57 300 125 q 320 -47 300 -18 q 400 -75 340 -75 l 436 -75 l 436 -164 l 358 -164 z "},"|":{"ha":390,"x_min":142,"x_max":249,"o":"m 142 1171 l 249 1171 l 249 -187 l 142 -187 l 142 1171 z "},"}":{"ha":493,"x_min":54,"x_max":440,"o":"m 54 -75 l 90 -75 q 170 -47 150 -75 q 190 57 190 -18 q 187 188 190 125 q 183 331 183 251 q 206 450 183 410 q 283 504 229 490 l 283 511 q 206 565 229 525 q 183 685 183 604 q 187 827 183 764 q 190 958 190 890 q 170 1063 190 1033 q 90 1092 150 1092 l 54 1092 l 54 1179 l 132 1179 q 216 1169 181 1179 q 275 1134 251 1158 q 310 1069 299 1110 q 321 967 321 1028 q 319 889 321 925 q 314 818 317 853 q 309 749 311 783 q 307 675 307 714 q 313 633 307 654 q 335 596 319 613 q 376 568 350 579 q 440 557 401 557 l 440 460 q 376 449 401 460 q 335 422 350 439 q 313 383 319 404 q 307 339 307 361 q 309 266 307 300 q 314 197 311 232 q 319 126 317 163 q 321 49 321 90 q 310 -53 321 -12 q 275 -119 299 -94 q 216 -153 251 -143 q 132 -164 181 -164 l 54 -164 l 54 -75 z "},"~":{"ha":792,"x_min":51,"x_max":738,"o":"m 531 393 q 447 413 483 393 q 378 457 410 433 q 318 501 347 481 q 256 521 289 521 q 138 428 188 521 l 51 490 q 152 603 99 569 q 258 638 206 638 q 342 617 306 638 q 410 574 378 597 q 471 530 442 550 q 533 510 500 510 q 650 603 600 510 l 738 539 q 636 426 689 460 q 531 393 583 393 z "},"¡":{"ha":476,"x_min":157,"x_max":321,"o":"m 321 774 l 321 601 l 157 601 l 157 774 l 321 774 m 186 469 l 293 469 l 315 -126 l 319 -290 l 158 -290 l 186 469 z "},"¤":{"ha":792,"x_min":38,"x_max":751,"o":"m 38 235 l 136 335 q 81 514 81 407 q 135 693 81 621 l 38 794 l 119 878 l 226 769 q 306 808 263 794 q 394 822 349 822 q 483 808 439 822 q 563 769 526 794 l 669 878 l 751 794 l 653 693 q 708 514 708 621 q 694 416 708 461 q 653 335 679 371 l 751 235 l 669 151 l 561 260 q 394 208 489 208 q 226 260 299 208 l 119 151 l 38 235 m 394 324 q 515 375 465 324 q 564 514 564 426 q 551 592 564 557 q 515 653 538 628 q 461 693 492 679 q 394 707 431 707 q 328 693 360 707 q 274 653 297 679 q 238 592 251 628 q 225 514 225 557 q 274 375 225 426 q 394 324 324 324 z "},"¥":{"ha":926,"x_min":19,"x_max":904,"o":"m 383 225 l 118 225 l 118 314 l 383 314 l 383 401 l 118 401 l 118 492 l 344 492 l 19 1018 l 189 1018 q 258 893 225 951 q 321 782 290 835 q 370 696 346 739 q 414 617 394 653 q 446 559 433 582 q 460 532 458 536 l 467 532 q 483 559 469 536 q 515 617 496 582 q 559 694 535 651 q 608 782 583 738 q 672 893 639 835 q 742 1018 706 951 l 904 1018 l 579 492 l 806 492 l 806 401 l 542 401 l 542 314 l 806 314 l 806 225 l 542 225 l 542 0 l 383 0 l 383 225 z "},"§":{"ha":1389,"x_min":357,"x_max":1031,"o":"m 935 919 q 847 958 903 939 q 715 976 790 976 q 596 943 639 976 q 553 869 553 910 q 607 786 553 815 q 753 732 661 757 q 867 694 815 715 q 955 642 918 672 q 1011 574 992 613 q 1031 483 1031 535 q 1003 371 1031 421 q 933 288 976 321 q 975 233 956 271 q 994 147 994 196 q 967 42 994 88 q 895 -35 940 -4 q 792 -83 850 -67 q 672 -99 735 -99 q 522 -82 593 -99 q 401 -29 451 -65 l 443 75 q 533 31 474 53 q 672 8 593 8 q 803 43 756 8 q 850 132 850 78 q 840 175 850 156 q 807 212 831 194 q 744 246 783 229 q 647 281 706 263 q 526 324 581 301 q 435 375 472 346 q 377 442 397 404 q 357 532 357 481 q 384 628 357 576 q 471 718 411 679 q 428 776 444 738 q 413 850 413 814 q 435 945 413 903 q 498 1018 457 988 q 597 1065 539 1049 q 725 1082 654 1082 q 865 1065 804 1082 q 971 1025 926 1049 l 935 919 m 550 667 q 486 557 486 619 q 493 521 486 539 q 519 485 500 503 q 571 451 538 468 q 658 415 604 433 q 781 373 733 392 q 850 343 828 354 q 888 392 874 363 q 901 454 901 422 q 863 535 901 504 q 769 588 824 567 q 653 627 714 610 q 550 667 593 644 z "},"¨":{"ha":853,"x_min":182,"x_max":671,"o":"m 271 908 q 207 934 232 908 q 182 996 182 960 q 207 1059 182 1033 q 271 1085 232 1085 q 333 1059 308 1085 q 358 996 358 1033 q 333 934 358 960 q 271 908 308 908 m 583 908 q 519 934 544 908 q 494 996 494 960 q 519 1059 494 1033 q 583 1085 544 1085 q 647 1059 622 1085 q 671 996 671 1033 q 647 934 671 960 q 583 908 622 908 z "},"«":{"ha":665,"x_min":69,"x_max":611,"o":"m 69 368 l 69 414 l 303 681 l 365 626 l 165 389 q 267 272 214 333 q 367 153 321 211 l 303 103 l 69 368 m 314 368 l 314 414 l 547 681 l 610 626 l 410 389 q 512 272 458 333 q 611 153 565 211 l 547 103 l 314 368 z "},"°":{"ha":533,"x_min":63,"x_max":472,"o":"m 267 656 q 188 671 225 656 q 124 713 151 686 q 79 778 96 740 q 63 863 63 817 q 79 947 63 908 q 124 1012 96 985 q 188 1054 151 1039 q 267 1069 225 1069 q 346 1054 308 1069 q 412 1012 383 1039 q 456 947 440 985 q 472 863 472 908 q 456 778 472 817 q 412 713 440 740 q 346 671 383 686 q 267 656 308 656 m 267 739 q 349 774 318 739 q 381 863 381 808 q 349 953 381 918 q 267 988 318 988 q 185 953 217 988 q 154 863 154 918 q 185 774 154 808 q 267 739 217 739 z "},"±":{"ha":1389,"x_min":194,"x_max":1201,"o":"m 1194 639 l 753 639 l 753 269 l 636 269 l 636 639 l 194 639 l 194 754 l 636 754 l 636 1122 l 753 1122 l 753 754 l 1194 754 l 1194 639 m 1201 135 l 1201 19 l 194 19 l 194 135 l 1201 135 z "},"²":{"ha":578,"x_min":56,"x_max":507,"o":"m 78 675 q 286 872 213 793 q 360 1017 360 950 q 331 1103 360 1071 q 251 1135 301 1135 q 184 1110 215 1135 q 126 1050 153 1086 l 56 1115 q 149 1203 96 1171 q 269 1235 203 1235 q 422 1185 365 1235 q 478 1035 478 1135 q 463 954 478 993 q 419 876 447 915 q 354 797 392 838 q 272 710 317 756 l 507 710 l 507 607 l 78 607 l 78 675 z "},"³":{"ha":578,"x_min":51,"x_max":507,"o":"m 285 589 q 148 622 208 589 q 51 708 88 654 l 129 768 q 194 705 157 728 q 275 682 231 682 q 353 708 321 682 q 386 781 386 735 q 211 881 386 881 l 211 954 q 324 982 283 954 q 364 1054 364 1010 q 337 1117 364 1094 q 264 1140 310 1140 q 201 1121 232 1140 q 147 1071 171 1101 l 76 1133 q 167 1208 118 1182 q 282 1235 215 1235 q 360 1224 324 1235 q 424 1191 396 1213 q 467 1139 451 1169 q 483 1069 483 1108 q 456 981 483 1017 q 382 924 428 946 q 469 870 432 908 q 507 774 507 832 q 489 697 507 732 q 440 639 471 663 q 369 602 410 615 q 285 589 329 589 z "},"´":{"ha":853,"x_min":335,"x_max":674,"o":"m 335 974 l 563 1242 l 674 1135 l 417 894 l 335 974 z "},"¶":{"ha":1389,"x_min":331,"x_max":971,"o":"m 642 413 l 629 413 q 535 430 586 413 q 439 484 483 447 q 364 578 394 521 q 332 713 333 635 q 350 838 331 775 q 419 952 369 901 q 556 1035 469 1003 q 776 1067 643 1067 q 894 1064 847 1067 q 971 1054 940 1061 l 971 -78 l 864 -78 l 864 961 l 749 961 l 749 -78 l 642 -78 l 642 413 z "},"·":{"ha":797,"x_min":311,"x_max":475,"o":"m 475 424 l 311 424 l 311 596 l 475 596 l 475 424 z "},"¸":{"ha":853,"x_min":278,"x_max":564,"o":"m 278 -287 q 409 -264 374 -281 q 444 -212 444 -247 q 419 -167 444 -185 q 325 -140 393 -150 l 394 4 l 494 4 l 449 -99 q 534 -137 504 -112 q 564 -210 564 -161 q 493 -317 564 -282 q 292 -360 422 -353 l 278 -287 z "},"¹":{"ha":578,"x_min":132,"x_max":388,"o":"m 265 1075 l 132 1075 l 132 1153 q 220 1177 186 1163 q 289 1217 254 1192 l 388 1217 l 388 607 l 265 607 l 265 1075 z "},"»":{"ha":696,"x_min":69,"x_max":642,"o":"m 332 629 l 406 693 l 642 424 l 642 372 l 404 103 l 329 161 q 375 215 353 189 q 418 265 397 242 q 485 344 453 306 q 529 396 518 382 l 332 629 m 72 629 l 146 693 l 382 424 l 382 372 l 144 103 l 69 161 q 115 215 93 189 q 158 265 138 242 q 226 344 193 306 q 269 396 258 382 l 72 629 z "},"¼":{"ha":1233,"x_min":90,"x_max":1196,"o":"m 946 1042 l 386 -18 l 285 -18 l 844 1042 l 946 1042 m 225 414 l 225 882 l 90 882 l 90 958 q 180 983 146 968 q 249 1022 214 999 l 346 1022 l 346 414 l 225 414 m 1196 154 l 1104 154 l 1104 0 l 996 0 l 996 154 l 718 154 l 718 215 l 963 608 l 1104 608 l 1104 238 l 1196 238 l 1196 154 m 996 238 l 996 333 l 1004 507 l 997 507 l 838 238 l 996 238 z "},"½":{"ha":1281,"x_min":89,"x_max":1208,"o":"m 814 1042 l 915 1042 l 354 -18 l 253 -18 l 814 1042 m 224 882 l 89 882 l 89 958 q 178 983 144 968 q 247 1022 213 999 l 344 1022 l 344 414 l 224 414 l 224 882 m 779 68 q 988 265 914 186 q 1061 410 1061 343 q 1032 496 1061 464 q 953 528 1003 528 q 885 503 917 528 q 828 443 854 479 l 757 507 q 849 595 796 563 q 969 628 903 628 q 1122 576 1065 628 q 1179 428 1179 525 q 1163 347 1179 386 q 1120 269 1147 308 q 1056 189 1093 229 q 974 103 1018 149 l 1208 103 l 1208 0 l 779 0 l 779 68 z "},"¾":{"ha":1254,"x_min":49,"x_max":1215,"o":"m 74 940 q 164 1015 115 989 q 279 1042 213 1042 q 356 1031 319 1042 q 421 998 393 1019 q 465 946 449 976 q 481 876 481 915 q 452 788 481 824 q 379 729 424 753 q 466 676 429 714 q 503 579 503 638 q 485 503 503 538 q 438 444 468 468 q 367 408 407 421 q 282 394 326 394 q 144 428 203 394 q 49 515 85 461 l 125 575 q 190 512 153 535 q 272 489 228 489 q 351 515 318 489 q 383 588 383 540 q 207 688 383 688 l 207 761 q 322 789 282 761 q 361 861 361 817 q 333 924 361 900 q 261 947 306 947 q 198 928 228 947 q 144 878 168 908 l 74 940 m 997 1042 l 436 -18 l 336 -18 l 897 1042 l 997 1042 m 1215 154 l 1125 154 l 1125 0 l 1015 0 l 1015 154 l 738 154 l 738 215 l 982 608 l 1125 608 l 1125 238 l 1215 238 l 1215 154 m 1015 238 l 1015 333 l 1024 507 l 1017 507 l 857 238 l 1015 238 z "},"¿":{"ha":682,"x_min":81,"x_max":639,"o":"m 281 599 l 281 771 l 444 771 l 444 599 l 281 599 m 426 465 q 421 326 433 379 q 385 239 408 274 q 335 182 363 204 q 282 135 307 160 q 240 75 257 110 q 221 -18 222 40 q 251 -134 218 -89 q 358 -179 283 -179 q 410 -172 385 -179 q 458 -146 436 -165 q 494 -90 479 -126 q 513 4 508 -54 l 639 4 q 603 -150 633 -89 q 529 -247 572 -211 q 437 -298 486 -283 q 344 -312 388 -312 q 238 -289 286 -312 q 154 -226 189 -265 q 100 -135 119 -186 q 81 -26 81 -83 q 98 85 81 42 q 141 160 115 129 q 196 217 167 192 q 249 274 225 242 q 287 351 272 306 q 296 465 301 396 l 426 465 z "},"×":{"ha":1389,"x_min":243,"x_max":1147,"o":"m 1065 74 l 696 443 l 325 74 l 243 154 l 614 525 l 243 894 l 326 976 l 696 606 l 1065 976 l 1147 894 l 776 525 l 1147 154 l 1065 74 z "},"÷":{"ha":1389,"x_min":194,"x_max":1194,"o":"m 585 876 q 617 953 585 921 q 694 985 650 985 q 772 953 739 985 q 804 876 804 921 q 772 799 804 831 q 694 767 739 767 q 617 799 650 767 q 585 876 585 831 m 1194 582 l 1194 467 l 194 467 l 194 582 l 1194 582 m 585 172 q 617 249 585 217 q 694 281 650 281 q 772 249 739 281 q 804 172 804 217 q 772 94 804 126 q 694 63 739 63 q 617 94 650 63 q 585 172 585 126 z "},"ˇ":{"ha":1389,"x_min":310,"x_max":1076,"o":"m 1076 760 l 694 185 l 310 761 l 472 761 l 694 411 l 907 760 l 1076 760 z "},"˙":{"ha":1389,"x_min":558,"x_max":826,"o":"m 694 397 q 597 438 635 399 q 558 529 560 478 q 567 582 558 557 q 594 626 576 607 q 638 658 613 646 q 693 669 663 669 q 749 658 725 669 q 791 626 774 646 q 817 582 808 607 q 826 529 826 557 q 792 438 826 476 q 694 397 757 399 z "},"‘":{"ha":281,"x_min":64,"x_max":228,"o":"m 228 858 l 64 858 l 64 1031 q 108 1159 64 1106 q 228 1224 151 1213 l 228 1147 q 163 1107 179 1140 q 147 1031 147 1074 l 228 1031 l 228 858 z "},"’":{"ha":282,"x_min":40,"x_max":204,"o":"m 40 1222 l 204 1222 l 204 1050 q 160 922 204 974 q 40 858 117 869 l 40 933 q 103 974 88 940 q 119 1050 119 1008 l 40 1050 l 40 1222 z "},"“":{"ha":536,"x_min":101,"x_max":501,"o":"m 501 851 l 338 851 l 338 1024 q 382 1152 338 1099 q 501 1217 426 1206 l 501 1140 q 437 1100 453 1133 q 421 1024 421 1067 l 501 1024 l 501 851 m 265 851 l 101 851 l 101 1024 q 146 1152 101 1099 q 265 1217 190 1206 l 265 1140 q 201 1100 217 1133 q 185 1024 185 1067 l 265 1024 l 265 851 z "},"”":{"ha":538,"x_min":40,"x_max":440,"o":"m 40 1219 l 204 1219 l 204 1047 q 160 918 204 971 q 40 854 117 864 l 40 931 q 104 971 88 936 q 121 1047 121 1004 l 40 1047 l 40 1219 m 276 1219 l 440 1219 l 440 1047 q 396 918 440 971 q 276 854 353 864 l 276 931 q 340 971 324 936 q 357 1047 357 1004 l 276 1047 l 276 1219 z "},"†":{"ha":1389,"x_min":357,"x_max":1032,"o":"m 757 735 l 1032 746 l 1032 615 l 757 625 l 769 -79 l 619 -79 l 632 625 l 357 615 l 357 746 l 632 735 l 619 1065 l 769 1065 l 757 735 z "},"‡":{"ha":1389,"x_min":357,"x_max":1032,"o":"m 757 754 l 1032 765 l 1032 633 l 757 644 l 757 344 l 1032 356 l 1032 224 l 757 235 l 769 -79 l 619 -79 l 632 235 l 357 224 l 357 356 l 632 344 l 632 644 l 357 633 l 357 765 l 632 754 l 619 1065 l 769 1065 l 757 754 z "},"‥":{"ha":1389,"x_min":279,"x_max":1110,"o":"m 443 442 l 279 442 l 279 614 l 443 614 l 443 442 m 1110 442 l 946 442 l 946 614 l 1110 614 l 1110 442 z "},"…":{"ha":1389,"x_min":164,"x_max":1225,"o":"m 776 442 l 613 442 l 613 614 l 776 614 l 776 442 m 1225 442 l 1061 442 l 1061 614 l 1225 614 l 1225 442 m 328 442 l 164 442 l 164 614 l 328 614 l 328 442 z "},"‰":{"ha":1389,"x_min":44,"x_max":1344,"o":"m 708 1044 l 789 1044 l 250 -21 l 168 -21 l 708 1044 m 44 726 q 58 855 44 797 q 95 953 71 913 q 153 1017 119 994 q 228 1040 188 1040 q 307 1015 274 1040 q 362 948 340 990 q 394 849 383 906 q 406 728 406 792 q 390 588 406 647 q 350 491 375 529 q 293 435 325 453 q 226 417 261 417 q 148 441 182 417 q 91 507 114 465 q 56 606 68 549 q 44 726 44 663 m 310 726 q 306 810 310 768 q 294 885 303 851 q 268 939 285 918 q 224 960 251 960 q 184 940 200 960 q 159 888 168 919 q 146 814 150 856 q 142 729 142 772 q 145 642 142 683 q 158 568 149 600 q 184 517 168 536 q 226 497 200 497 q 269 517 253 497 q 294 569 285 538 q 306 642 303 601 q 310 726 310 683 m 553 299 q 566 427 553 369 q 603 526 579 485 q 662 590 628 567 q 736 613 696 613 q 815 588 782 613 q 870 520 849 563 q 903 421 892 478 q 914 300 914 364 q 899 160 914 219 q 858 63 883 101 q 801 7 833 25 q 735 -11 769 -11 q 656 13 690 -11 q 599 79 622 38 q 565 178 576 121 q 553 299 553 235 m 983 299 q 997 427 983 369 q 1034 526 1010 485 q 1092 590 1058 567 q 1167 613 1126 613 q 1246 588 1213 613 q 1301 520 1279 563 q 1333 421 1322 478 q 1344 300 1344 364 q 1329 160 1344 219 q 1289 63 1314 101 q 1232 7 1264 25 q 1165 -11 1200 -11 q 1087 13 1121 -11 q 1030 79 1053 38 q 995 178 1007 121 q 983 299 983 235 m 817 299 q 814 382 817 340 q 801 457 811 424 q 776 511 792 490 q 732 532 760 532 q 692 512 708 532 q 667 460 676 492 q 653 386 657 428 q 649 301 649 344 q 652 214 649 256 q 665 140 656 172 q 692 89 675 108 q 735 69 708 69 q 776 90 760 69 q 801 142 792 110 q 813 215 810 174 q 817 299 817 257 m 1247 299 q 1244 382 1247 340 q 1232 457 1242 424 q 1206 511 1222 490 q 1163 532 1190 532 q 1123 512 1139 532 q 1097 460 1107 492 q 1083 386 1088 428 q 1079 301 1079 344 q 1083 215 1079 257 q 1096 141 1086 174 q 1122 89 1106 108 q 1165 69 1139 69 q 1206 90 1190 69 q 1231 142 1222 110 q 1244 215 1240 174 q 1247 299 1247 257 z "},"′":{"ha":414,"x_min":128,"x_max":319,"o":"m 161 1076 l 319 1075 l 293 917 l 232 672 l 128 674 l 161 1076 z "},"″":{"ha":719,"x_min":126,"x_max":624,"o":"m 160 1076 l 318 1075 l 292 917 l 231 672 l 126 674 l 160 1076 m 464 1076 l 624 1075 l 596 917 l 536 672 l 432 674 l 464 1076 z "},"‹":{"ha":438,"x_min":69,"x_max":382,"o":"m 182 389 q 226 337 193 375 q 293 258 258 299 q 336 208 314 235 q 382 154 358 182 l 307 96 l 69 365 l 69 417 l 307 686 l 379 622 l 182 389 z "},"›":{"ha":438,"x_min":56,"x_max":368,"o":"m 256 393 q 212 445 244 407 q 144 524 179 483 q 101 574 124 547 q 56 628 79 600 l 131 686 l 368 417 l 368 365 l 132 96 l 58 158 l 256 393 z "},"※":{"ha":1285,"x_min":146,"x_max":1139,"o":"m 1126 942 l 714 529 l 1126 122 l 1047 36 l 633 453 q 599 416 622 440 q 544 360 575 392 q 477 292 513 329 q 407 219 442 256 q 320 132 365 178 q 226 36 275 86 l 146 115 l 560 529 q 524 565 547 542 q 469 619 500 589 q 401 686 438 650 q 329 757 365 722 q 146 936 244 839 l 226 1022 l 639 604 l 1053 1022 l 1126 942 m 635 800 q 558 832 594 800 q 528 906 528 863 q 560 982 528 954 q 635 1013 590 1013 q 713 982 682 1013 q 746 906 746 953 q 712 831 746 861 q 635 800 678 800 m 364 528 q 333 452 364 483 q 258 421 303 421 q 181 451 211 421 q 151 528 151 481 q 181 606 151 572 q 258 639 214 639 q 332 606 299 639 q 364 528 364 569 m 1033 639 q 1107 606 1074 639 q 1139 528 1139 569 q 1108 452 1139 483 q 1033 421 1078 421 q 956 451 986 421 q 926 528 926 481 q 956 606 926 572 q 1033 639 989 639 m 713 213 q 746 136 746 183 q 712 61 746 92 q 635 31 678 31 q 558 63 594 31 q 528 136 528 93 q 560 213 528 185 q 635 243 590 243 q 713 213 682 243 z "},"₩":{"ha":1233,"x_min":44,"x_max":1178,"o":"m 1178 557 l 1178 468 l 1019 468 l 932 0 l 769 0 l 674 468 l 549 468 l 453 0 l 290 0 l 203 468 l 44 468 l 44 557 l 185 557 l 94 1010 l 228 1010 l 303 557 l 456 557 l 540 951 l 682 951 l 767 557 l 919 557 l 994 1010 l 1128 1010 l 1038 557 l 1178 557 m 567 557 l 656 557 l 611 775 l 567 557 m 853 150 l 906 468 l 785 468 l 853 150 m 369 150 l 438 468 l 317 468 l 369 150 z "},"℃":{"ha":1389,"x_min":54,"x_max":1343,"o":"m 260 654 q 181 669 218 654 q 115 712 143 685 q 70 777 86 739 q 54 861 54 815 q 70 947 54 908 q 115 1013 86 986 q 181 1056 143 1040 q 260 1071 218 1071 q 340 1056 301 1071 q 406 1013 378 1040 q 450 947 433 986 q 467 861 467 908 q 450 777 467 815 q 406 712 433 739 q 340 669 378 685 q 260 654 301 654 m 1028 -19 q 846 16 931 -19 q 699 119 761 51 q 602 284 638 186 q 567 508 567 382 q 603 733 567 633 q 701 901 639 832 q 849 1006 764 969 q 1033 1042 935 1042 q 1200 1002 1126 1042 q 1321 914 1274 963 l 1229 810 q 1144 874 1189 851 q 1036 897 1099 897 q 915 871 969 897 q 820 794 860 844 q 758 674 781 744 q 736 514 736 603 q 757 351 736 424 q 816 229 778 279 q 908 152 854 179 q 1031 125 963 125 q 1153 153 1101 125 q 1250 231 1206 181 l 1343 129 q 1202 19 1281 57 q 1028 -19 1124 -19 m 260 739 q 343 773 311 739 q 375 861 375 807 q 343 951 375 917 q 260 985 311 985 q 178 951 210 985 q 147 861 147 917 q 178 773 147 807 q 260 739 210 739 z "},"℉":{"ha":1389,"x_min":94,"x_max":1310,"o":"m 300 654 q 221 669 258 654 q 155 712 183 685 q 110 777 126 739 q 94 861 94 815 q 110 947 94 908 q 155 1013 126 986 q 221 1056 183 1040 q 300 1071 258 1071 q 380 1056 342 1071 q 446 1013 418 1040 q 490 947 474 986 q 507 861 507 908 q 490 777 507 815 q 446 712 474 739 q 380 669 418 685 q 300 654 342 654 m 701 1024 l 1310 1024 l 1310 883 l 865 883 l 865 576 l 1243 576 l 1243 438 l 865 438 l 865 0 l 701 0 l 701 1024 m 300 739 q 383 773 351 739 q 415 861 415 807 q 383 951 415 917 q 300 985 351 985 q 219 951 250 985 q 188 861 188 917 q 219 773 188 807 q 300 739 250 739 z "},"№":{"ha":1431,"x_min":85,"x_max":1407,"o":"m 144 -18 q 118 -17 126 -18 q 97 -12 110 -15 l 85 113 q 127 126 114 113 q 140 178 140 139 l 140 994 l 318 994 q 452 677 386 835 q 585 356 518 519 l 658 182 l 664 182 q 654 315 658 256 q 647 428 650 375 q 643 528 644 481 q 642 626 642 576 l 642 844 q 674 972 642 929 q 782 1014 707 1014 q 808 1013 800 1014 q 831 1007 817 1011 l 843 882 q 799 869 813 882 q 786 817 786 856 l 786 0 l 610 0 q 474 318 539 160 q 342 640 408 476 l 268 813 l 263 813 q 274 681 269 740 q 281 568 278 621 q 284 467 283 515 q 285 369 285 419 l 285 151 q 252 24 285 67 q 144 -18 219 -18 m 1161 428 q 1067 444 1111 428 q 989 494 1022 461 q 935 574 956 526 q 915 682 915 621 q 935 791 915 743 q 989 872 956 839 q 1067 921 1022 904 q 1161 938 1111 938 q 1256 921 1211 938 q 1334 872 1300 904 q 1388 791 1368 839 q 1407 682 1407 743 q 1388 574 1407 621 q 1334 494 1368 526 q 1256 444 1300 461 q 1161 428 1211 428 m 1161 531 q 1247 569 1215 531 q 1279 682 1279 607 q 1247 796 1279 757 q 1161 835 1215 835 q 1076 796 1108 835 q 1043 682 1043 757 q 1076 569 1043 607 q 1161 531 1108 531 m 961 315 l 1361 315 l 1361 224 l 961 224 l 961 315 z "},"℡":{"ha":1389,"x_min":36,"x_max":1353,"o":"m 194 901 l 36 901 l 36 1024 l 486 1024 l 486 901 l 326 901 l 326 0 l 194 0 l 194 901 m 550 814 l 904 814 l 904 703 l 683 703 l 683 474 l 850 474 l 850 368 l 683 368 l 683 113 l 919 113 l 919 0 l 550 0 l 550 814 m 1007 814 l 1139 814 l 1139 118 l 1353 118 l 1353 0 l 1007 0 l 1007 814 z "},"™":{"ha":1017,"x_min":3,"x_max":974,"o":"m 153 956 l 3 956 l 3 1056 l 413 1056 l 413 956 l 263 956 l 263 569 l 153 569 l 153 956 m 486 1056 l 617 1056 l 686 883 l 728 767 l 733 767 l 774 883 l 842 1056 l 974 1056 l 974 569 l 871 569 l 871 764 l 883 933 l 878 933 l 771 643 l 688 643 l 582 933 l 576 933 l 589 764 l 589 569 l 486 569 l 486 1056 z "},"Å":{"ha":1389,"x_min":261,"x_max":1128,"o":"m 868 289 l 515 289 l 429 0 l 261 0 l 586 986 q 509 1052 538 1008 q 481 1154 481 1096 q 539 1292 481 1242 q 690 1343 597 1343 q 775 1330 736 1343 q 842 1292 814 1317 q 887 1232 871 1267 q 903 1154 903 1197 q 875 1054 903 1096 q 800 989 847 1013 l 1128 0 l 953 0 l 868 289 m 690 1260 q 613 1229 643 1260 q 582 1146 582 1199 q 613 1060 582 1090 q 690 1031 643 1031 q 767 1060 735 1031 q 800 1146 800 1090 q 767 1229 800 1199 q 690 1260 735 1260 m 831 417 l 790 553 q 742 721 765 636 q 694 893 718 806 l 688 893 q 642 721 665 806 q 593 553 619 636 l 553 417 l 831 417 z "},"Ⅰ":{"ha":1389,"x_min":611,"x_max":778,"o":"m 611 1024 l 778 1024 l 778 0 l 611 0 l 611 1024 z "},"Ⅱ":{"ha":1389,"x_min":396,"x_max":993,"o":"m 396 1024 l 561 1024 l 561 0 l 396 0 l 396 1024 m 828 1024 l 993 1024 l 993 0 l 828 0 l 828 1024 z "},"Ⅲ":{"ha":1389,"x_min":181,"x_max":1208,"o":"m 181 1024 l 346 1024 l 346 0 l 181 0 l 181 1024 m 611 1024 l 778 1024 l 778 0 l 611 0 l 611 1024 m 1043 1024 l 1208 1024 l 1208 0 l 1043 0 l 1043 1024 z "},"Ⅳ":{"ha":1389,"x_min":199,"x_max":1326,"o":"m 199 1024 l 364 1024 l 364 0 l 199 0 l 199 1024 m 493 1024 l 667 1024 l 818 496 q 863 328 843 407 q 910 163 883 250 l 917 163 q 965 328 944 250 q 1010 496 985 407 l 1160 1024 l 1326 1024 l 1007 0 l 814 0 l 493 1024 z "},"Ⅴ":{"ha":1389,"x_min":278,"x_max":1111,"o":"m 278 1024 l 451 1024 l 603 496 q 648 328 628 407 q 696 163 668 250 l 701 163 q 749 328 729 250 q 794 496 769 407 l 944 1024 l 1111 1024 l 792 0 l 597 0 l 278 1024 z "},"Ⅵ":{"ha":1389,"x_min":61,"x_max":1190,"o":"m 61 1024 l 235 1024 l 386 496 q 432 328 413 407 q 479 163 451 250 l 485 163 q 533 328 513 250 q 579 496 554 407 l 729 1024 l 894 1024 l 576 0 l 382 0 l 61 1024 m 1024 1024 l 1190 1024 l 1190 0 l 1024 0 l 1024 1024 z "},"Ⅶ":{"ha":1389,"x_min":14,"x_max":1303,"o":"m 14 1024 l 188 1024 l 296 496 q 330 328 314 407 q 368 163 346 250 l 375 163 q 415 328 399 250 q 449 496 431 407 l 556 1024 l 722 1024 l 474 0 l 264 0 l 14 1024 m 810 1024 l 975 1024 l 975 0 l 810 0 l 810 1024 m 1138 1024 l 1303 1024 l 1303 0 l 1138 0 l 1138 1024 z "},"Ⅷ":{"ha":1389,"x_min":10,"x_max":1304,"o":"m 1167 1024 l 1304 1024 l 1304 0 l 1167 0 l 1167 1024 m 910 1024 l 1047 1024 l 1047 0 l 910 0 l 910 1024 m 654 1024 l 792 1024 l 792 0 l 654 0 l 654 1024 m 10 1024 l 157 1024 l 235 496 l 286 163 l 292 163 q 319 328 307 250 q 344 496 332 407 l 421 1024 l 560 1024 l 374 0 l 206 0 l 10 1024 z "},"Ⅸ":{"ha":1389,"x_min":197,"x_max":1303,"o":"m 197 1024 l 361 1024 l 361 0 l 197 0 l 197 1024 m 808 528 l 535 1024 l 717 1024 l 839 785 q 876 713 858 749 q 918 631 893 676 l 924 631 q 960 713 943 676 q 993 785 976 749 l 1111 1024 l 1285 1024 l 1011 519 l 1303 0 l 1121 0 l 988 254 q 948 331 968 292 q 904 418 928 371 l 899 418 q 858 331 876 371 q 819 254 839 292 l 692 0 l 517 0 l 808 528 z "},"Ⅹ":{"ha":1389,"x_min":300,"x_max":1088,"o":"m 592 528 l 318 1024 l 500 1024 l 624 785 q 660 713 643 749 q 701 631 678 676 l 707 631 q 744 713 728 676 q 778 785 760 749 l 894 1024 l 1068 1024 l 794 519 l 1088 0 l 904 0 l 771 254 q 731 331 751 292 q 688 418 711 371 l 682 418 q 642 331 661 371 q 604 254 624 292 l 475 0 l 300 0 l 592 528 z "},"ⅰ":{"ha":1389,"x_min":590,"x_max":799,"o":"m 694 906 q 620 933 650 906 q 590 1001 590 961 q 620 1072 590 1046 q 694 1099 650 1099 q 769 1072 739 1099 q 799 1001 799 1046 q 769 933 799 961 q 694 906 739 906 m 613 764 l 776 764 l 776 0 l 613 0 l 613 764 z "},"ⅱ":{"ha":1389,"x_min":392,"x_max":999,"o":"m 496 906 q 421 933 450 906 q 392 1001 392 961 q 421 1072 392 1046 q 496 1099 450 1099 q 569 1072 540 1099 q 599 1001 599 1046 q 569 933 599 961 q 496 906 540 906 m 896 906 q 822 933 851 906 q 792 1001 792 961 q 822 1072 792 1046 q 896 1099 851 1099 q 969 1072 940 1099 q 999 1001 999 1046 q 969 933 999 961 q 896 906 940 906 m 413 764 l 576 764 l 576 0 l 413 0 l 413 764 m 814 764 l 976 764 l 976 0 l 814 0 l 814 764 z "},"ⅲ":{"ha":1389,"x_min":190,"x_max":1200,"o":"m 294 906 q 220 933 250 906 q 190 1001 190 961 q 220 1072 190 1046 q 294 1099 250 1099 q 369 1072 339 1099 q 399 1001 399 1046 q 369 933 399 961 q 294 906 339 906 m 694 906 q 620 933 650 906 q 590 1001 590 961 q 620 1072 590 1046 q 694 1099 650 1099 q 769 1072 739 1099 q 799 1001 799 1046 q 769 933 799 961 q 694 906 739 906 m 1096 906 q 1022 933 1051 906 q 992 1001 992 961 q 1022 1072 992 1046 q 1096 1099 1051 1099 q 1170 1072 1140 1099 q 1200 1001 1200 1046 q 1170 933 1200 961 q 1096 906 1140 906 m 211 764 l 376 764 l 376 0 l 211 0 l 211 764 m 613 764 l 776 764 l 776 0 l 613 0 l 613 764 m 1013 764 l 1178 764 l 1178 0 l 1013 0 l 1013 764 z "},"ⅳ":{"ha":1389,"x_min":213,"x_max":1256,"o":"m 317 906 q 242 933 272 906 q 213 1001 213 961 q 242 1072 213 1046 q 317 1099 272 1099 q 390 1072 361 1099 q 419 1001 419 1046 q 390 933 419 961 q 317 906 361 906 m 233 764 l 397 764 l 397 0 l 233 0 l 233 764 m 535 764 l 700 764 l 829 356 q 862 240 844 297 q 896 128 879 183 l 901 128 q 935 240 918 183 q 968 356 953 297 l 1097 764 l 1256 764 l 993 0 l 803 0 l 535 764 z "},"ⅴ":{"ha":1389,"x_min":333,"x_max":1056,"o":"m 333 764 l 500 764 l 629 356 q 663 240 646 297 q 696 128 679 183 l 701 128 q 735 240 718 183 q 768 356 753 297 l 897 764 l 1056 764 l 793 0 l 603 0 l 333 764 z "},"ⅵ":{"ha":1389,"x_min":133,"x_max":1178,"o":"m 1075 906 q 1000 933 1029 906 q 971 1001 971 961 q 1000 1072 971 1046 q 1075 1099 1029 1099 q 1149 1072 1119 1099 q 1178 1001 1178 1046 q 1149 933 1178 961 q 1075 906 1119 906 m 133 764 l 300 764 l 429 356 q 462 240 444 297 q 494 128 479 183 l 500 128 q 534 240 517 183 q 567 356 551 297 l 696 764 l 854 764 l 593 0 l 403 0 l 133 764 m 992 764 l 1156 764 l 1156 0 l 992 0 l 992 764 z "},"ⅶ":{"ha":1389,"x_min":17,"x_max":1308,"o":"m 860 906 q 785 933 815 906 q 756 1001 756 961 q 785 1072 756 1046 q 860 1099 815 1099 q 934 1072 904 1099 q 964 1001 964 1046 q 934 933 964 961 q 860 906 904 906 m 1206 906 q 1131 933 1161 906 q 1101 1001 1101 961 q 1131 1072 1101 1046 q 1206 1099 1161 1099 q 1279 1072 1250 1099 q 1308 1001 1308 1046 q 1279 933 1308 961 q 1206 906 1250 906 m 17 764 l 182 764 l 290 356 q 319 240 304 297 q 351 128 335 183 l 357 128 q 387 240 372 183 q 415 356 401 297 l 525 764 l 682 764 l 449 0 l 258 0 l 17 764 m 778 764 l 942 764 l 942 0 l 778 0 l 778 764 m 1124 764 l 1286 764 l 1286 0 l 1124 0 l 1124 764 z "},"ⅷ":{"ha":1389,"x_min":14,"x_max":1336,"o":"m 711 906 q 646 933 671 906 q 621 1001 621 961 q 646 1072 621 1046 q 711 1099 671 1099 q 774 1072 749 1099 q 800 1001 800 1046 q 774 933 800 961 q 711 906 749 906 m 979 906 q 914 933 940 906 q 888 1001 888 961 q 914 1072 888 1046 q 979 1099 940 1099 q 1042 1072 1017 1099 q 1068 1001 1068 1046 q 1042 933 1068 961 q 979 906 1017 906 m 1246 906 q 1182 933 1208 906 q 1156 1001 1156 961 q 1182 1072 1156 1046 q 1246 1099 1208 1099 q 1310 1072 1285 1099 q 1336 1001 1336 1046 q 1310 933 1336 961 q 1246 906 1285 906 m 14 764 l 165 764 l 239 356 q 260 240 250 297 q 282 128 269 183 l 288 128 q 308 240 299 183 q 328 356 317 297 l 401 764 l 546 764 l 368 0 l 200 0 l 14 764 m 642 764 l 778 764 l 778 0 l 642 0 l 642 764 m 910 764 l 1046 764 l 1046 0 l 910 0 l 910 764 m 1178 764 l 1314 764 l 1314 0 l 1178 0 l 1178 764 z "},"ⅸ":{"ha":1389,"x_min":224,"x_max":1239,"o":"m 329 906 q 253 933 283 906 q 224 1001 224 961 q 253 1072 224 1046 q 329 1099 283 1099 q 403 1072 374 1099 q 432 1001 432 1046 q 403 933 432 961 q 329 906 374 906 m 246 764 l 410 764 l 410 0 l 246 0 l 246 764 m 796 399 l 567 764 l 742 764 l 832 613 q 868 548 850 581 q 906 483 886 515 l 911 483 l 974 613 l 1053 764 l 1224 764 l 996 381 l 1239 0 l 1063 0 l 964 161 q 925 228 944 194 q 886 296 906 263 l 879 296 q 843 229 860 263 q 807 161 826 196 l 718 0 l 549 0 l 796 399 z "},"ⅹ":{"ha":1389,"x_min":350,"x_max":1039,"o":"m 594 399 l 367 764 l 543 764 l 633 613 q 668 548 650 581 q 706 483 686 515 l 711 483 l 774 613 l 853 764 l 1024 764 l 796 381 l 1039 0 l 864 0 l 764 161 q 725 228 744 194 q 685 296 706 263 l 678 296 q 643 229 660 263 q 607 161 626 196 l 519 0 l 350 0 l 594 399 z "},"←":{"ha":1389,"x_min":49,"x_max":1333,"o":"m 301 469 q 409 375 351 433 q 508 258 467 317 l 407 201 q 329 292 372 247 q 240 380 286 338 q 144 460 193 422 q 49 528 96 497 q 144 596 96 558 q 240 676 193 633 q 329 763 286 718 q 407 854 372 808 l 508 797 q 409 681 467 739 q 301 586 351 622 l 1333 586 l 1333 469 l 301 469 z "},"↑":{"ha":1389,"x_min":368,"x_max":1021,"o":"m 636 921 q 542 813 600 871 q 425 714 483 756 l 368 815 q 546 983 460 888 q 694 1174 632 1078 q 843 983 757 1078 q 1021 815 929 888 l 964 714 q 847 813 906 756 q 753 921 789 871 l 753 -111 l 636 -111 l 636 921 z "},"→":{"ha":1389,"x_min":56,"x_max":1340,"o":"m 56 586 l 1088 586 q 980 681 1038 622 q 881 797 922 739 l 982 854 q 1149 676 1054 763 q 1340 528 1244 590 q 1149 379 1244 465 q 982 201 1054 293 l 881 258 q 980 375 922 317 q 1088 469 1038 433 l 56 469 l 56 586 z "},"↓":{"ha":1389,"x_min":368,"x_max":1021,"o":"m 753 135 q 847 242 789 185 q 964 342 906 300 l 1021 240 q 930 163 975 206 q 842 73 885 119 q 763 -22 800 26 q 694 -118 725 -71 q 626 -22 664 -71 q 547 73 589 26 q 459 163 504 119 q 368 240 414 206 l 425 342 q 542 242 483 300 q 636 135 600 185 l 636 1167 l 753 1167 l 753 135 z "},"↔":{"ha":1389,"x_min":49,"x_max":1340,"o":"m 301 467 q 409 372 351 431 q 508 256 467 314 l 407 197 q 329 288 372 243 q 240 376 286 333 q 144 456 193 418 q 49 525 94 494 q 144 592 96 554 q 240 672 193 629 q 329 760 286 714 q 407 851 372 806 l 508 793 q 409 676 467 735 q 301 582 351 618 l 1088 582 q 980 676 1038 618 q 881 793 922 735 l 982 851 q 1149 672 1054 760 q 1340 525 1244 583 q 1151 376 1244 463 q 982 197 1057 290 l 881 256 q 980 372 922 314 q 1088 467 1038 431 l 301 467 z "},"↕":{"ha":1389,"x_min":368,"x_max":1021,"o":"m 753 135 q 847 242 789 185 q 964 342 906 300 l 1021 240 q 930 163 975 206 q 842 73 885 119 q 763 -22 800 26 q 694 -118 725 -71 q 626 -22 664 -71 q 547 73 589 26 q 459 163 504 119 q 368 240 414 206 l 425 342 q 542 242 483 300 q 636 135 600 185 l 636 921 q 542 813 600 871 q 425 714 483 756 l 368 815 q 546 983 460 888 q 694 1174 632 1078 q 843 983 757 1078 q 1021 815 929 888 l 964 714 q 847 813 906 756 q 753 921 789 871 l 753 135 z "},"↖":{"ha":1389,"x_min":238,"x_max":1188,"o":"m 375 765 q 384 622 385 703 q 372 469 383 542 l 260 499 q 269 619 267 557 q 268 745 271 682 q 258 869 265 808 q 238 985 250 931 q 353 965 292 972 q 477 954 414 957 q 603 953 540 951 q 724 963 665 956 l 753 850 q 600 838 681 839 q 457 847 519 838 l 1188 117 l 1106 35 l 375 765 z "},"↗":{"ha":1389,"x_min":201,"x_max":1151,"o":"m 932 847 q 789 838 869 838 q 636 850 708 839 l 665 963 q 786 953 724 956 q 912 954 849 951 q 1036 965 975 957 q 1151 985 1097 972 q 1131 869 1139 931 q 1121 745 1124 808 q 1120 619 1118 682 q 1129 499 1122 557 l 1017 469 q 1005 622 1006 542 q 1014 765 1004 703 l 283 35 l 201 117 l 932 847 z "},"↘":{"ha":1389,"x_min":201,"x_max":1151,"o":"m 1014 290 q 1005 433 1004 353 q 1017 586 1006 514 l 1129 557 q 1120 436 1122 499 q 1121 310 1118 374 q 1131 186 1124 247 q 1151 71 1139 125 q 1036 91 1097 83 q 912 101 975 99 q 786 102 849 104 q 665 93 724 100 l 636 206 q 789 217 708 217 q 932 208 869 218 l 201 939 l 283 1021 l 1014 290 z "},"↙":{"ha":1389,"x_min":238,"x_max":1188,"o":"m 457 208 q 600 217 519 218 q 753 206 681 217 l 724 93 q 603 102 665 100 q 477 101 540 104 q 353 91 414 99 q 238 71 292 83 q 258 186 250 125 q 268 310 265 247 q 269 436 271 374 q 260 557 267 499 l 372 586 q 384 433 383 514 q 375 290 385 353 l 1106 1021 l 1188 939 l 457 208 z "},"⇒":{"ha":1389,"x_min":56,"x_max":1357,"o":"m 1015 389 q 1167 524 1093 471 q 1015 658 1093 576 l 56 658 l 56 774 l 915 774 q 851 856 882 814 q 797 936 821 897 l 896 993 q 992 860 938 926 q 1106 732 1046 793 q 1231 617 1167 671 q 1357 524 1294 564 q 1231 431 1294 485 q 1106 317 1167 378 q 992 188 1046 256 q 896 54 938 121 l 797 111 q 851 192 821 150 q 915 274 882 233 l 56 274 l 56 389 l 1015 389 z "},"⇔":{"ha":1389,"x_min":32,"x_max":1357,"o":"m 547 936 q 497 856 526 897 q 436 774 468 814 l 953 774 q 892 856 921 814 q 842 936 863 897 l 942 993 q 1028 860 979 926 q 1131 732 1076 793 q 1243 617 1185 671 q 1357 524 1301 564 q 1243 431 1301 485 q 1130 315 1185 376 q 1027 188 1075 254 q 942 54 979 121 l 842 111 q 892 192 863 150 q 953 274 921 233 l 436 274 q 497 192 468 233 q 547 111 526 150 l 447 54 q 361 187 410 119 q 258 316 313 254 q 147 431 204 378 q 32 524 89 485 q 147 617 89 564 q 258 732 204 671 q 361 860 313 793 q 447 993 410 926 l 547 936 m 347 658 q 207 524 272 574 q 347 389 272 474 l 1042 389 q 1182 524 1117 474 q 1042 658 1117 574 l 347 658 z "},"∀":{"ha":1389,"x_min":156,"x_max":1233,"o":"m 1233 1013 l 697 -21 l 692 -21 l 156 1013 l 257 1067 l 435 722 l 954 722 l 1132 1067 l 1233 1013 m 692 222 l 697 222 l 894 607 l 494 607 l 692 222 z "},"∂":{"ha":1389,"x_min":289,"x_max":1106,"o":"m 968 671 q 909 876 968 806 q 746 947 850 947 q 674 937 707 947 q 613 910 640 926 q 562 874 585 894 q 522 835 539 854 l 440 928 q 583 1024 504 986 q 761 1063 661 1063 q 897 1038 835 1063 q 1006 963 960 1013 q 1079 840 1053 913 q 1106 671 1106 767 q 1075 435 1106 557 q 983 214 1044 314 q 828 49 922 114 q 610 -15 735 -15 q 471 9 531 -15 q 371 76 411 33 q 310 176 331 118 q 289 301 289 235 q 319 451 289 383 q 401 569 350 519 q 515 645 451 618 q 646 672 579 672 q 827 625 754 672 q 944 501 900 578 l 947 501 q 963 590 958 546 q 968 671 968 633 m 421 307 q 474 161 421 215 q 614 107 526 107 q 782 172 711 108 q 894 354 853 236 q 864 441 886 403 q 810 506 842 479 q 739 547 778 533 q 658 561 700 561 q 572 542 615 561 q 496 490 529 524 q 442 410 463 457 q 421 307 421 364 z "},"∃":{"ha":1389,"x_min":267,"x_max":1115,"o":"m 1115 1032 l 1115 15 l 267 15 l 267 131 l 1000 131 l 1000 467 l 267 467 l 267 582 l 1000 582 l 1000 917 l 267 917 l 267 1032 l 1115 1032 z "},"∇":{"ha":1389,"x_min":203,"x_max":1185,"o":"m 203 904 l 203 1001 l 1185 1001 l 1185 904 l 790 -21 l 597 -21 l 203 904 m 999 865 l 385 865 l 563 436 l 688 114 l 694 114 l 819 436 l 999 865 z "},"∈":{"ha":1389,"x_min":171,"x_max":1210,"o":"m 636 856 q 511 835 569 856 q 408 778 453 814 q 333 691 363 742 q 293 582 303 640 l 1210 582 l 1210 467 l 293 467 q 333 357 303 407 q 408 270 363 307 q 511 213 453 233 q 636 192 569 192 l 1210 192 l 1210 76 l 636 76 q 453 110 539 76 q 306 205 368 144 q 207 347 243 265 q 171 524 171 429 q 207 700 171 618 q 306 842 243 782 q 453 937 368 903 q 636 971 539 971 l 1210 971 l 1210 856 l 636 856 z "},"∋":{"ha":1389,"x_min":179,"x_max":1218,"o":"m 179 856 l 179 971 l 753 971 q 936 937 851 971 q 1083 842 1021 903 q 1182 700 1146 782 q 1218 524 1218 618 q 1182 347 1218 429 q 1083 205 1146 265 q 936 110 1021 144 q 753 76 851 76 l 179 76 l 179 192 l 753 192 q 878 213 819 192 q 981 270 936 233 q 1056 357 1026 307 q 1096 467 1086 407 l 179 467 l 179 582 l 1096 582 q 1056 691 1086 640 q 981 778 1026 742 q 878 835 936 814 q 753 856 819 856 l 179 856 z "},"∏":{"ha":1389,"x_min":274,"x_max":1117,"o":"m 274 994 l 1117 994 l 1117 -187 l 953 -187 l 953 854 l 436 854 l 436 -187 l 274 -187 l 274 994 z "},"∑":{"ha":1389,"x_min":278,"x_max":1111,"o":"m 493 132 l 1111 132 l 1111 0 l 278 0 l 278 90 l 653 506 l 297 915 l 297 1014 l 1064 1014 l 1064 883 l 514 883 l 514 878 l 829 511 l 493 138 l 493 132 z "},"√":{"ha":1389,"x_min":44,"x_max":1389,"o":"m 1389 1222 l 1389 1161 l 817 1161 l 371 -122 l 328 -122 l 178 265 l 81 129 l 44 157 l 239 431 l 375 78 l 774 1222 l 1389 1222 z "},"∝":{"ha":1389,"x_min":44,"x_max":1188,"o":"m 769 524 q 897 402 828 449 q 1060 356 967 356 q 1144 368 1107 356 l 1188 261 q 1058 240 1129 240 q 947 256 999 240 q 851 297 896 271 q 767 359 806 324 q 694 433 728 394 q 622 359 661 394 q 539 297 583 324 q 442 256 494 271 q 331 240 390 240 q 228 258 279 240 q 137 312 178 276 q 70 400 96 347 q 44 524 44 453 q 70 648 44 594 q 137 737 96 701 q 228 790 178 772 q 331 807 279 807 q 443 792 392 807 q 540 751 494 776 q 623 690 585 725 q 694 614 661 654 q 766 690 728 654 q 849 751 804 725 q 947 792 894 776 q 1058 807 999 807 q 1188 786 1129 807 l 1144 679 q 1060 692 1107 692 q 897 645 967 692 q 769 524 828 599 m 160 524 q 174 453 160 485 q 210 400 188 422 q 264 367 233 378 q 328 356 294 356 q 491 402 421 356 q 619 524 561 449 q 491 645 561 599 q 328 692 421 692 q 264 681 294 692 q 210 647 233 669 q 174 594 188 625 q 160 524 160 564 z "},"∞":{"ha":1389,"x_min":44,"x_max":1344,"o":"m 694 614 q 766 690 728 654 q 849 751 804 725 q 947 792 894 776 q 1058 807 999 807 q 1160 790 1108 807 q 1252 737 1211 772 q 1319 648 1293 701 q 1344 524 1344 594 q 1319 400 1344 453 q 1252 312 1293 347 q 1160 258 1211 276 q 1058 240 1108 240 q 947 256 999 240 q 851 297 896 271 q 767 359 806 324 q 694 433 728 394 q 622 359 661 394 q 539 297 583 324 q 442 256 494 271 q 331 240 390 240 q 228 258 279 240 q 137 312 178 276 q 70 400 96 347 q 44 524 44 453 q 70 648 44 594 q 137 737 96 701 q 228 790 178 772 q 331 807 279 807 q 443 792 392 807 q 540 751 494 776 q 623 690 585 725 q 694 614 661 654 m 160 524 q 174 453 160 485 q 210 400 188 422 q 264 367 233 378 q 328 356 294 356 q 492 402 424 356 q 619 524 561 449 q 492 645 561 599 q 328 692 424 692 q 264 681 294 692 q 210 647 233 669 q 174 594 188 625 q 160 524 160 564 m 769 524 q 897 402 828 449 q 1060 356 967 356 q 1124 367 1093 356 q 1178 400 1156 378 q 1215 453 1201 422 q 1229 524 1229 485 q 1215 594 1229 564 q 1178 647 1201 625 q 1124 681 1156 669 q 1060 692 1093 692 q 897 645 967 692 q 769 524 828 599 z "},"∠":{"ha":1389,"x_min":138,"x_max":1226,"o":"m 411 154 l 1226 154 l 1226 39 l 138 39 l 138 44 l 1054 964 l 1136 882 l 411 158 l 411 154 z "},"∧":{"ha":1389,"x_min":156,"x_max":1233,"o":"m 692 1075 l 697 1075 l 1233 40 l 1132 -12 l 697 832 l 692 832 l 257 -12 l 156 40 l 692 1075 z "},"∨":{"ha":1389,"x_min":156,"x_max":1233,"o":"m 697 -28 l 692 -28 l 156 1007 l 257 1060 l 692 215 l 697 215 l 1132 1060 l 1233 1007 l 697 -28 z "},"∩":{"ha":1389,"x_min":247,"x_max":1142,"o":"m 247 582 q 281 765 247 681 q 376 913 315 850 q 518 1011 436 975 q 694 1047 600 1047 q 871 1011 789 1047 q 1013 913 953 975 q 1108 765 1074 850 q 1142 582 1142 681 l 1142 8 l 1026 8 l 1026 582 q 1001 721 1026 657 q 931 832 976 785 q 826 906 886 879 q 694 932 765 932 q 563 906 624 932 q 458 832 503 879 q 388 721 413 785 q 363 582 363 657 l 363 8 l 247 8 l 247 582 z "},"∪":{"ha":1389,"x_min":247,"x_max":1142,"o":"m 1142 465 q 1108 283 1142 368 q 1013 135 1074 197 q 871 36 953 72 q 694 0 789 0 q 518 36 600 0 q 376 135 436 72 q 281 283 315 197 q 247 465 247 368 l 247 1039 l 363 1039 l 363 465 q 388 326 363 390 q 458 215 413 263 q 563 142 503 168 q 694 115 624 115 q 826 142 765 115 q 931 215 886 168 q 1001 326 976 263 q 1026 465 1026 390 l 1026 1039 l 1142 1039 l 1142 465 z "},"∫":{"ha":1389,"x_min":432,"x_max":957,"o":"m 625 835 q 648 1008 625 942 q 708 1113 671 1075 q 790 1164 744 1150 q 882 1178 836 1178 q 919 1176 900 1178 q 957 1171 938 1174 l 944 1044 q 893 1050 929 1050 q 843 1041 867 1050 q 802 1006 819 1032 q 774 934 785 981 q 764 813 764 888 l 764 221 q 741 48 764 115 q 681 -57 718 -19 q 599 -108 644 -94 q 507 -122 553 -122 q 470 -120 489 -122 q 432 -115 451 -118 l 444 11 q 496 6 460 6 q 546 15 522 6 q 587 49 569 24 q 615 122 604 75 q 625 243 625 168 l 625 835 z "},"∬":{"ha":1389,"x_min":161,"x_max":1228,"o":"m 353 835 q 376 1008 353 942 q 435 1113 399 1075 q 518 1164 472 1150 q 610 1178 564 1178 q 685 1171 647 1178 l 672 1044 q 622 1050 657 1050 q 572 1041 596 1050 q 530 1006 547 1032 q 502 934 513 981 q 492 813 492 888 l 492 221 q 469 48 492 115 q 409 -57 446 -19 q 326 -108 372 -94 q 235 -122 281 -122 q 161 -115 199 -122 l 172 11 q 224 6 188 6 q 274 15 251 6 q 315 49 297 24 q 343 122 333 75 q 353 243 353 168 l 353 835 m 897 835 q 920 1008 897 942 q 980 1113 943 1075 q 1063 1164 1017 1150 q 1154 1178 1108 1178 q 1228 1171 1190 1178 l 1217 1044 q 1165 1050 1201 1050 q 1115 1041 1139 1050 q 1074 1006 1092 1032 q 1046 934 1056 981 q 1036 813 1036 888 l 1036 221 q 1013 48 1036 115 q 953 -57 990 -19 q 871 -108 917 -94 q 779 -122 825 -122 q 704 -115 742 -122 l 717 11 q 767 6 732 6 q 818 15 794 6 q 859 49 842 24 q 887 122 876 75 q 897 243 897 168 l 897 835 z "},"∮":{"ha":1389,"x_min":432,"x_max":957,"o":"m 625 297 q 501 382 550 319 q 451 528 451 444 q 465 606 451 568 q 501 674 478 643 q 556 726 524 704 q 625 758 588 749 l 625 835 q 648 1008 625 942 q 708 1113 671 1075 q 790 1164 744 1150 q 882 1178 836 1178 q 919 1176 900 1178 q 957 1171 938 1174 l 944 1044 q 893 1050 929 1050 q 844 1042 867 1050 q 803 1009 821 1033 q 774 940 785 985 q 764 824 764 896 l 764 758 q 833 726 801 749 q 888 674 865 704 q 924 606 911 643 q 938 528 938 568 q 888 382 938 444 q 764 297 839 319 l 764 221 q 741 48 764 115 q 681 -57 718 -19 q 599 -108 644 -94 q 507 -122 553 -122 q 470 -120 489 -122 q 432 -115 451 -118 l 444 11 q 496 6 460 6 q 546 14 522 6 q 587 47 569 22 q 615 115 604 71 q 625 232 625 160 l 625 297 m 625 690 q 545 628 576 671 q 514 528 514 586 q 545 427 514 469 q 625 365 576 385 l 625 690 m 764 365 q 844 427 813 385 q 875 528 875 469 q 844 628 875 586 q 764 690 813 671 l 764 365 z "},"∴":{"ha":1389,"x_min":231,"x_max":1160,"o":"m 585 844 q 617 922 585 890 q 694 954 650 954 q 772 922 739 954 q 804 844 804 890 q 772 768 804 800 q 694 736 739 736 q 617 768 650 736 q 585 844 585 800 m 231 203 q 263 279 231 247 q 340 311 294 311 q 417 279 385 311 q 449 203 449 247 q 417 126 449 158 q 340 93 385 93 q 263 126 294 93 q 231 203 231 158 m 940 203 q 973 279 940 247 q 1050 311 1006 311 q 1127 279 1094 311 q 1160 203 1160 247 q 1127 126 1160 158 q 1050 93 1094 93 q 973 126 1006 93 q 940 203 940 158 z "},"∵":{"ha":1389,"x_min":231,"x_max":1160,"o":"m 231 844 q 263 922 231 890 q 340 954 294 954 q 417 922 385 954 q 449 844 449 890 q 417 768 449 800 q 340 736 385 736 q 263 768 294 736 q 231 844 231 800 m 940 844 q 973 922 940 890 q 1050 954 1006 954 q 1127 922 1094 954 q 1160 844 1160 890 q 1127 768 1160 800 q 1050 736 1094 736 q 973 768 1006 736 q 940 844 940 800 m 585 203 q 617 279 585 247 q 694 311 650 311 q 772 279 739 311 q 804 203 804 247 q 772 126 804 158 q 694 93 739 93 q 617 126 650 93 q 585 203 585 158 z "},"∶":{"ha":1389,"x_min":585,"x_max":804,"o":"m 585 844 q 617 922 585 890 q 694 954 650 954 q 772 922 739 954 q 804 844 804 890 q 772 768 804 800 q 694 736 739 736 q 617 768 650 736 q 585 844 585 800 m 585 203 q 617 279 585 247 q 694 311 650 311 q 772 279 739 311 q 804 203 804 247 q 772 126 804 158 q 694 93 739 93 q 617 126 650 93 q 585 203 585 158 z "},"∽":{"ha":1389,"x_min":44,"x_max":1344,"o":"m 654 565 q 732 658 690 614 q 823 735 774 701 q 931 788 872 768 q 1058 807 989 807 q 1160 790 1108 807 q 1252 737 1211 772 q 1319 648 1293 701 q 1344 524 1344 594 q 1319 400 1344 453 q 1252 312 1293 347 q 1159 258 1211 276 q 1054 240 1107 240 q 924 261 985 240 l 967 368 q 1056 356 1007 356 q 1123 367 1092 356 q 1178 400 1154 378 q 1215 453 1201 422 q 1229 524 1229 485 q 1215 594 1229 564 q 1178 647 1201 625 q 1124 681 1156 669 q 1060 692 1093 692 q 960 675 1006 692 q 876 630 915 658 q 801 563 836 601 q 735 482 767 525 q 657 391 699 435 q 565 314 615 347 q 458 260 515 281 q 331 240 400 240 q 228 258 279 240 q 137 312 178 276 q 70 400 96 347 q 44 524 44 453 q 70 648 44 594 q 137 737 96 701 q 230 790 178 772 q 335 807 282 807 q 464 786 406 807 l 421 679 q 332 692 383 692 q 265 681 297 692 q 210 647 233 669 q 174 594 188 625 q 160 524 160 564 q 174 453 160 485 q 210 400 188 422 q 264 367 233 378 q 328 356 294 356 q 428 372 382 356 q 513 417 474 389 q 588 484 553 446 q 654 565 622 522 z "},"≒":{"ha":1389,"x_min":194,"x_max":1194,"o":"m 335 931 q 367 1008 335 975 q 444 1040 400 1040 q 522 1008 489 1040 q 554 931 554 975 q 522 853 554 886 q 444 821 489 821 q 367 853 400 821 q 335 931 335 886 m 1194 710 l 1194 611 l 194 611 l 194 710 l 1194 710 m 1194 436 l 1194 338 l 194 338 l 194 436 l 1194 436 m 835 117 q 867 194 835 161 q 944 226 900 226 q 1022 194 989 226 q 1054 117 1054 161 q 1022 40 1054 72 q 944 7 989 7 q 867 40 900 7 q 835 117 835 72 z "},"≠":{"ha":1389,"x_min":194,"x_max":1194,"o":"m 790 618 l 721 425 l 1194 425 l 1194 310 l 678 310 l 578 35 l 469 75 l 556 310 l 194 310 l 194 425 l 597 425 l 667 618 l 194 618 l 194 733 l 710 733 l 811 1013 l 919 972 l 832 733 l 1194 733 l 1194 618 l 790 618 z "},"≡":{"ha":1389,"x_min":194,"x_max":1194,"o":"m 1194 879 l 1194 772 l 194 772 l 194 879 l 1194 879 m 1194 578 l 1194 469 l 194 469 l 194 578 l 1194 578 m 1194 275 l 1194 168 l 194 168 l 194 275 l 1194 275 z "},"≤":{"ha":1389,"x_min":138,"x_max":1215,"o":"m 444 660 l 1215 349 l 1172 240 l 138 660 l 138 664 l 1172 1083 l 1215 975 l 444 664 l 444 660 m 1210 117 l 1210 8 l 179 8 l 179 117 l 1210 117 z "},"≥":{"ha":1389,"x_min":174,"x_max":1251,"o":"m 944 660 l 944 664 l 174 975 l 217 1083 l 1251 664 l 1251 660 l 217 240 l 174 349 l 944 660 m 179 117 l 1210 117 l 1210 8 l 179 8 l 179 117 z "},"≪":{"ha":1389,"x_min":63,"x_max":1325,"o":"m 888 982 l 235 526 l 235 521 l 888 65 l 831 -15 l 63 521 l 63 526 l 831 1063 l 888 982 m 1325 982 l 672 526 l 672 521 l 1325 65 l 1268 -15 l 500 521 l 500 526 l 1268 1063 l 1325 982 z "},"≫":{"ha":1389,"x_min":64,"x_max":1326,"o":"m 889 526 l 889 521 l 121 -15 l 64 65 l 717 521 l 717 526 l 64 982 l 121 1063 l 889 526 m 1326 526 l 1326 521 l 558 -15 l 501 65 l 1154 521 l 1154 526 l 501 982 l 558 1063 l 1326 526 z "},"⊂":{"ha":1389,"x_min":171,"x_max":1210,"o":"m 636 76 q 453 110 539 76 q 306 205 368 144 q 207 347 243 265 q 171 524 171 429 q 207 700 171 618 q 306 842 243 782 q 453 937 368 903 q 636 971 539 971 l 1210 971 l 1210 856 l 636 856 q 497 831 561 856 q 386 760 433 806 q 313 655 339 715 q 286 524 286 594 q 313 392 286 453 q 386 287 339 332 q 497 217 433 242 q 636 192 561 192 l 1210 192 l 1210 76 l 636 76 z "},"⊃":{"ha":1389,"x_min":179,"x_max":1218,"o":"m 753 971 q 936 937 851 971 q 1083 842 1021 903 q 1182 700 1146 782 q 1218 524 1218 618 q 1182 347 1218 429 q 1083 205 1146 265 q 936 110 1021 144 q 753 76 851 76 l 179 76 l 179 192 l 753 192 q 892 217 828 192 q 1003 287 956 242 q 1076 392 1050 332 q 1103 524 1103 453 q 1076 655 1103 594 q 1003 760 1050 715 q 892 831 956 806 q 753 856 828 856 l 179 856 l 179 971 l 753 971 z "},"⊆":{"ha":1389,"x_min":171,"x_max":1210,"o":"m 567 947 q 448 926 500 947 q 360 871 396 906 q 305 790 324 836 q 286 693 286 744 q 305 595 286 642 q 360 514 324 549 q 448 458 396 479 q 567 438 500 438 l 1210 438 l 1210 322 l 567 322 q 403 352 476 322 q 278 433 331 382 q 199 551 226 483 q 171 693 171 618 q 199 835 171 768 q 278 953 226 903 q 403 1033 331 1003 q 567 1063 476 1063 l 1210 1063 l 1210 947 l 567 947 m 1210 100 l 1210 -15 l 179 -15 l 179 100 l 1210 100 z "},"⊇":{"ha":1389,"x_min":179,"x_max":1218,"o":"m 822 438 q 941 458 889 438 q 1029 514 993 479 q 1084 595 1065 549 q 1103 693 1103 642 q 1084 790 1103 744 q 1029 871 1065 836 q 941 926 993 906 q 822 947 889 947 l 179 947 l 179 1063 l 822 1063 q 985 1033 913 1063 q 1110 953 1058 1003 q 1190 835 1163 903 q 1218 693 1218 768 q 1190 551 1218 618 q 1110 433 1163 483 q 985 352 1058 382 q 822 322 913 322 l 179 322 l 179 438 l 822 438 m 1210 100 l 1210 -15 l 179 -15 l 179 100 l 1210 100 z "},"⊙":{"ha":1389,"x_min":181,"x_max":1208,"o":"m 694 14 q 495 54 589 14 q 331 165 401 94 q 221 328 261 235 q 181 528 181 422 q 221 728 181 635 q 331 891 261 821 q 495 1001 401 961 q 694 1042 589 1042 q 894 1001 801 1042 q 1058 891 988 961 q 1168 728 1128 821 q 1208 528 1208 635 q 1168 328 1208 422 q 1058 165 1128 235 q 894 54 988 94 q 694 14 801 14 m 296 528 q 327 373 296 446 q 413 246 358 300 q 540 160 467 192 q 694 129 613 129 q 849 160 776 129 q 976 246 922 192 q 1062 373 1031 300 q 1093 528 1093 446 q 1062 683 1093 610 q 976 810 1031 756 q 849 895 922 864 q 694 926 776 926 q 540 895 613 926 q 413 810 467 864 q 327 683 358 756 q 296 528 296 610 m 779 528 q 755 467 779 492 q 694 443 731 443 q 634 467 658 443 q 610 528 610 492 q 634 588 610 563 q 694 613 658 613 q 755 588 731 613 q 779 528 779 563 z "},"⊥":{"ha":1389,"x_min":139,"x_max":1250,"o":"m 1250 163 l 1250 47 l 139 47 l 139 163 l 636 163 l 636 1025 l 753 1025 l 753 163 l 1250 163 z "},"⌒":{"ha":1389,"x_min":31,"x_max":1358,"o":"m 31 901 q 162 1012 90 961 q 317 1099 233 1063 q 494 1156 400 1135 q 694 1176 589 1176 q 894 1156 800 1176 q 1072 1099 989 1135 q 1227 1012 1156 1063 q 1358 901 1299 961 l 1308 797 q 1038 981 1190 911 q 694 1051 886 1051 q 351 981 503 1051 q 81 797 200 911 l 31 901 z "},"①":{"ha":1389,"x_min":44,"x_max":1344,"o":"m 694 -122 q 442 -71 560 -122 q 235 69 324 -19 q 96 275 147 157 q 44 528 44 393 q 96 781 44 663 q 235 987 147 899 q 442 1126 324 1075 q 694 1178 560 1178 q 947 1126 829 1178 q 1153 987 1065 1075 q 1293 781 1242 899 q 1344 528 1344 663 q 1293 274 1344 393 q 1153 67 1242 156 q 946 -72 1064 -21 q 694 -122 828 -122 m 694 -76 q 929 -29 819 -76 q 1122 101 1039 18 q 1251 293 1204 183 q 1299 528 1299 403 q 1251 763 1299 653 q 1122 955 1204 872 q 929 1085 1039 1038 q 694 1132 819 1132 q 458 1084 568 1132 q 267 954 349 1036 q 138 762 185 872 q 90 528 90 651 q 138 293 90 403 q 267 101 185 183 q 460 -29 350 18 q 694 -76 569 -76 m 654 746 l 504 746 l 504 836 q 606 862 563 847 q 688 897 650 876 l 796 897 l 796 174 l 654 174 l 654 746 z "},"②":{"ha":1389,"x_min":44,"x_max":1344,"o":"m 694 -122 q 442 -71 560 -122 q 235 69 324 -19 q 96 275 147 157 q 44 528 44 393 q 96 781 44 663 q 235 987 147 899 q 442 1126 324 1075 q 694 1178 560 1178 q 947 1126 829 1178 q 1153 987 1065 1075 q 1293 781 1242 899 q 1344 528 1344 663 q 1293 274 1344 393 q 1153 67 1242 156 q 946 -72 1064 -21 q 694 -122 828 -122 m 694 -76 q 929 -29 819 -76 q 1122 101 1039 18 q 1251 293 1204 183 q 1299 528 1299 403 q 1251 763 1299 653 q 1122 955 1204 872 q 929 1085 1039 1038 q 694 1132 819 1132 q 458 1084 568 1132 q 267 954 349 1036 q 138 762 185 872 q 90 528 90 651 q 138 293 90 403 q 267 101 185 183 q 460 -29 350 18 q 694 -76 569 -76 m 449 256 q 597 386 531 326 q 708 498 663 446 q 779 595 754 550 q 804 681 804 640 q 772 771 804 739 q 676 803 740 803 q 588 778 628 803 q 515 724 547 754 l 436 800 q 692 914 544 914 q 794 898 749 914 q 873 853 840 882 q 924 783 906 824 q 942 693 942 743 q 918 594 942 643 q 855 494 894 544 q 763 392 815 444 q 651 286 710 340 q 720 291 683 289 q 792 293 757 293 l 972 293 l 972 174 l 449 174 l 449 256 z "},"③":{"ha":1389,"x_min":44,"x_max":1344,"o":"m 694 -122 q 442 -71 560 -122 q 235 69 324 -19 q 96 275 147 157 q 44 528 44 393 q 96 781 44 663 q 235 987 147 899 q 442 1126 324 1075 q 694 1178 560 1178 q 947 1126 829 1178 q 1153 987 1065 1075 q 1293 781 1242 899 q 1344 528 1344 663 q 1293 274 1344 393 q 1153 67 1242 156 q 946 -72 1064 -21 q 694 -122 828 -122 m 694 -76 q 929 -29 819 -76 q 1122 101 1039 18 q 1251 293 1204 183 q 1299 528 1299 403 q 1251 763 1299 653 q 1122 955 1204 872 q 929 1085 1039 1038 q 694 1132 819 1132 q 458 1084 568 1132 q 267 954 349 1036 q 138 762 185 872 q 90 528 90 651 q 138 293 90 403 q 267 101 185 183 q 460 -29 350 18 q 694 -76 569 -76 m 683 157 q 523 187 592 157 q 414 261 454 217 l 481 350 q 565 293 517 317 q 681 269 614 269 q 782 299 743 269 q 821 376 821 328 q 810 426 821 404 q 772 464 799 449 q 699 488 744 479 q 585 496 654 496 l 585 597 q 749 628 703 597 q 796 708 796 660 q 765 778 796 753 q 676 804 735 804 q 513 733 588 804 l 440 821 q 549 889 489 864 q 681 914 608 914 q 865 864 794 914 q 936 718 936 814 q 899 618 936 658 q 799 554 861 578 l 799 550 q 917 486 869 531 q 965 367 965 442 q 943 278 965 317 q 883 212 921 239 q 793 171 844 185 q 683 157 742 157 z "},"④":{"ha":1389,"x_min":44,"x_max":1344,"o":"m 694 1178 q 947 1126 829 1178 q 1153 987 1065 1075 q 1293 781 1242 899 q 1344 528 1344 663 q 1293 274 1344 393 q 1153 67 1242 156 q 946 -72 1064 -21 q 694 -122 828 -122 q 442 -71 560 -122 q 235 69 324 -19 q 96 275 147 157 q 44 528 44 393 q 96 781 44 663 q 235 987 147 899 q 442 1126 324 1075 q 694 1178 560 1178 m 694 -76 q 929 -29 819 -76 q 1122 101 1039 18 q 1251 293 1204 183 q 1299 528 1299 403 q 1251 763 1299 653 q 1122 955 1204 872 q 929 1085 1039 1038 q 694 1132 819 1132 q 458 1084 568 1132 q 267 954 349 1036 q 138 762 185 872 q 90 528 90 651 q 138 293 90 403 q 267 101 185 183 q 460 -29 350 18 q 694 -76 569 -76 m 856 463 l 957 463 l 957 357 l 856 357 l 856 174 l 722 174 l 722 357 l 371 357 l 371 453 l 688 897 l 856 897 l 856 463 m 722 463 l 722 617 q 724 692 722 649 q 728 768 725 735 l 722 768 q 691 717 704 738 q 658 664 678 696 l 511 463 l 722 463 z "},"⑤":{"ha":1389,"x_min":44,"x_max":1344,"o":"m 694 -122 q 442 -71 560 -122 q 235 69 324 -19 q 96 275 147 157 q 44 528 44 393 q 96 781 44 663 q 235 987 147 899 q 442 1126 324 1075 q 694 1178 560 1178 q 947 1126 829 1178 q 1153 987 1065 1075 q 1293 781 1242 899 q 1344 528 1344 663 q 1293 274 1344 393 q 1153 67 1242 156 q 946 -72 1064 -21 q 694 -122 828 -122 m 694 -76 q 929 -29 819 -76 q 1122 101 1039 18 q 1251 293 1204 183 q 1299 528 1299 403 q 1251 763 1299 653 q 1122 955 1204 872 q 929 1085 1039 1038 q 694 1132 819 1132 q 458 1084 568 1132 q 267 954 349 1036 q 138 762 185 872 q 90 528 90 651 q 138 293 90 403 q 267 101 185 183 q 460 -29 350 18 q 694 -76 569 -76 m 690 157 q 531 188 594 157 q 424 258 468 218 l 489 350 q 571 294 525 319 q 681 269 617 269 q 789 306 747 269 q 831 406 831 342 q 791 503 831 468 q 685 538 751 538 q 617 526 644 538 q 554 493 589 515 l 486 535 l 511 897 l 935 897 l 935 779 l 629 779 l 614 610 q 665 628 639 621 q 722 635 692 635 q 819 621 774 635 q 898 579 864 607 q 952 509 932 551 q 972 408 972 467 q 949 302 972 349 q 886 223 925 256 q 797 174 847 190 q 690 157 746 157 z "},"⑥":{"ha":1389,"x_min":44,"x_max":1344,"o":"m 694 1178 q 947 1126 829 1178 q 1153 987 1065 1075 q 1293 781 1242 899 q 1344 528 1344 663 q 1293 274 1344 393 q 1153 67 1242 156 q 946 -72 1064 -21 q 694 -122 828 -122 q 442 -71 560 -122 q 235 69 324 -19 q 96 275 147 157 q 44 528 44 393 q 96 781 44 663 q 235 987 147 899 q 442 1126 324 1075 q 694 1178 560 1178 m 694 -76 q 929 -29 819 -76 q 1122 101 1039 18 q 1251 293 1204 183 q 1299 528 1299 403 q 1251 763 1299 653 q 1122 955 1204 872 q 929 1085 1039 1038 q 694 1132 819 1132 q 458 1084 568 1132 q 267 954 349 1036 q 138 762 185 872 q 90 528 90 651 q 138 293 90 403 q 267 101 185 183 q 460 -29 350 18 q 694 -76 569 -76 m 860 744 q 801 783 836 768 q 728 799 765 799 q 656 785 690 799 q 596 742 622 772 q 553 662 569 711 q 535 539 538 613 q 622 601 571 578 q 722 624 672 624 q 886 568 822 624 q 950 397 950 513 q 930 297 950 342 q 875 222 910 253 q 794 174 840 190 q 696 157 749 157 q 583 178 636 157 q 490 242 529 199 q 426 353 450 286 q 403 514 403 421 q 429 695 403 619 q 499 819 456 771 q 601 891 543 868 q 722 914 660 914 q 847 890 794 914 q 935 831 899 865 l 860 744 m 697 264 q 782 299 746 264 q 818 393 818 335 q 784 489 818 456 q 688 522 750 522 q 614 503 653 522 q 539 440 575 485 q 592 304 550 344 q 697 264 635 264 z "},"⑦":{"ha":1389,"x_min":44,"x_max":1344,"o":"m 694 -122 q 442 -71 560 -122 q 235 69 324 -19 q 96 275 147 157 q 44 528 44 393 q 96 781 44 663 q 235 987 147 899 q 442 1126 324 1075 q 694 1178 560 1178 q 947 1126 829 1178 q 1153 987 1065 1075 q 1293 781 1242 899 q 1344 528 1344 663 q 1293 274 1344 393 q 1153 67 1242 156 q 946 -72 1064 -21 q 694 -122 828 -122 m 694 -76 q 929 -29 819 -76 q 1122 101 1039 18 q 1251 293 1204 183 q 1299 528 1299 403 q 1251 763 1299 653 q 1122 955 1204 872 q 929 1085 1039 1038 q 694 1132 819 1132 q 458 1084 568 1132 q 267 954 349 1036 q 138 762 185 872 q 90 528 90 651 q 138 293 90 403 q 267 101 185 183 q 460 -29 350 18 q 694 -76 569 -76 m 582 174 q 601 347 588 268 q 640 499 614 426 q 704 639 665 571 q 801 779 743 707 l 439 779 l 439 897 l 958 897 l 958 811 q 846 663 889 733 q 778 519 803 593 q 743 363 754 446 q 726 174 732 279 l 582 174 z "},"⑧":{"ha":1389,"x_min":44,"x_max":1344,"o":"m 694 -122 q 442 -71 560 -122 q 235 69 324 -19 q 96 275 147 157 q 44 528 44 393 q 96 781 44 663 q 235 987 147 899 q 442 1126 324 1075 q 694 1178 560 1178 q 947 1126 829 1178 q 1153 987 1065 1075 q 1293 781 1242 899 q 1344 528 1344 663 q 1293 274 1344 393 q 1153 67 1242 156 q 946 -72 1064 -21 q 694 -122 828 -122 m 694 -76 q 929 -29 819 -76 q 1122 101 1039 18 q 1251 293 1204 183 q 1299 528 1299 403 q 1251 763 1299 653 q 1122 955 1204 872 q 929 1085 1039 1038 q 694 1132 819 1132 q 458 1084 568 1132 q 267 954 349 1036 q 138 762 185 872 q 90 528 90 651 q 138 293 90 403 q 267 101 185 183 q 460 -29 350 18 q 694 -76 569 -76 m 693 157 q 583 172 633 157 q 497 213 533 186 q 440 275 461 239 q 419 353 419 311 q 432 418 419 389 q 465 470 444 447 q 511 511 485 493 q 567 543 538 529 l 567 547 q 486 619 519 578 q 453 718 453 660 q 472 799 453 763 q 523 860 490 835 q 599 900 556 886 q 694 914 643 914 q 872 860 807 914 q 936 721 936 806 q 901 619 936 661 q 826 550 867 576 l 826 546 q 925 475 883 518 q 967 358 967 432 q 947 278 967 315 q 892 215 928 242 q 805 172 856 188 q 693 157 754 157 m 744 583 q 797 642 778 610 q 815 708 815 675 q 783 785 815 754 q 692 815 750 815 q 610 790 643 815 q 578 718 578 765 q 626 635 578 665 q 744 583 675 606 m 699 257 q 799 284 761 257 q 838 363 838 311 q 823 412 838 392 q 783 449 808 432 q 722 479 757 465 q 644 508 686 493 q 576 451 606 485 q 547 374 547 418 q 591 289 547 321 q 699 257 635 257 z "},"⑨":{"ha":1389,"x_min":44,"x_max":1344,"o":"m 694 1178 q 947 1126 829 1178 q 1153 987 1065 1075 q 1293 781 1242 899 q 1344 528 1344 663 q 1293 274 1344 393 q 1153 67 1242 156 q 946 -72 1064 -21 q 694 -122 828 -122 q 442 -71 560 -122 q 235 69 324 -19 q 96 275 147 157 q 44 528 44 393 q 96 781 44 663 q 235 987 147 899 q 442 1126 324 1075 q 694 1178 560 1178 m 694 -76 q 929 -29 819 -76 q 1122 101 1039 18 q 1251 293 1204 183 q 1299 528 1299 403 q 1251 763 1299 653 q 1122 955 1204 872 q 929 1085 1039 1038 q 694 1132 819 1132 q 458 1084 568 1132 q 267 954 349 1036 q 138 762 185 872 q 90 528 90 651 q 138 293 90 403 q 267 101 185 183 q 460 -29 350 18 q 694 -76 569 -76 m 528 325 q 587 286 551 301 q 663 271 622 271 q 733 285 700 271 q 792 329 767 299 q 832 410 817 360 q 850 532 847 460 q 767 470 815 492 q 671 449 719 449 q 578 463 621 449 q 505 504 536 476 q 456 574 474 532 q 438 675 438 617 q 458 774 438 729 q 513 849 478 818 q 593 897 547 881 q 690 914 639 914 q 803 893 750 914 q 896 828 856 872 q 960 717 936 785 q 983 557 983 650 q 957 376 983 451 q 887 251 931 300 q 786 180 843 203 q 667 157 729 157 q 540 181 592 157 q 453 239 489 206 l 528 325 m 699 547 q 773 567 733 547 q 846 631 813 586 q 794 767 835 726 q 690 807 753 807 q 606 773 642 807 q 571 676 571 739 q 699 547 571 547 z "},"⑩":{"ha":1389,"x_min":44,"x_max":1344,"o":"m 694 -122 q 442 -71 560 -122 q 235 69 324 -19 q 96 275 147 157 q 44 528 44 393 q 96 781 44 663 q 235 987 147 899 q 442 1126 324 1075 q 694 1178 560 1178 q 947 1126 829 1178 q 1153 987 1065 1075 q 1293 781 1242 899 q 1344 528 1344 663 q 1293 274 1344 393 q 1153 67 1242 156 q 946 -72 1064 -21 q 694 -122 828 -122 m 694 -76 q 929 -29 819 -76 q 1122 101 1039 18 q 1251 293 1204 183 q 1299 528 1299 403 q 1251 763 1299 653 q 1122 955 1204 872 q 929 1085 1039 1038 q 694 1132 819 1132 q 458 1084 568 1132 q 267 954 349 1036 q 138 762 185 872 q 90 528 90 651 q 138 293 90 403 q 267 101 185 183 q 460 -29 350 18 q 694 -76 569 -76 m 881 157 q 786 183 829 157 q 712 259 743 210 q 664 379 681 308 q 647 539 647 450 q 711 818 647 722 q 881 914 775 914 q 1048 815 985 914 q 1111 539 1111 717 q 1094 379 1111 450 q 1048 259 1078 308 q 976 183 1018 210 q 881 157 933 157 m 393 746 l 272 746 l 272 836 q 358 862 322 847 q 425 897 393 876 l 525 897 l 525 174 l 393 174 l 393 746 m 881 271 q 952 333 925 271 q 979 539 979 396 q 952 742 979 682 q 881 801 925 801 q 808 742 836 801 q 781 539 781 682 q 808 333 781 396 q 881 271 836 271 z "},"⑪":{"ha":1389,"x_min":44,"x_max":1344,"o":"m 694 -122 q 442 -71 560 -122 q 235 69 324 -19 q 96 275 147 157 q 44 528 44 393 q 96 781 44 663 q 235 987 147 899 q 442 1126 324 1075 q 694 1178 560 1178 q 947 1126 829 1178 q 1153 987 1065 1075 q 1293 781 1242 899 q 1344 528 1344 663 q 1293 274 1344 393 q 1153 67 1242 156 q 946 -72 1064 -21 q 694 -122 828 -122 m 694 -76 q 929 -29 819 -76 q 1122 101 1039 18 q 1251 293 1204 183 q 1299 528 1299 403 q 1251 763 1299 653 q 1122 955 1204 872 q 929 1085 1039 1038 q 694 1132 819 1132 q 458 1084 568 1132 q 267 954 349 1036 q 138 762 185 872 q 90 528 90 651 q 138 293 90 403 q 267 101 185 183 q 460 -29 350 18 q 694 -76 569 -76 m 454 746 l 333 746 l 333 836 q 418 862 382 847 q 486 897 454 876 l 586 897 l 586 174 l 454 174 l 454 746 m 843 746 l 724 746 l 724 836 q 808 862 772 847 q 875 897 843 876 l 975 897 l 975 174 l 843 174 l 843 746 z "},"⑫":{"ha":1389,"x_min":44,"x_max":1344,"o":"m 694 -122 q 442 -71 560 -122 q 235 69 324 -19 q 96 275 147 157 q 44 528 44 393 q 96 781 44 663 q 235 987 147 899 q 442 1126 324 1075 q 694 1178 560 1178 q 947 1126 829 1178 q 1153 987 1065 1075 q 1293 781 1242 899 q 1344 528 1344 663 q 1293 274 1344 393 q 1153 67 1242 156 q 946 -72 1064 -21 q 694 -122 828 -122 m 694 -76 q 929 -29 819 -76 q 1122 101 1039 18 q 1251 293 1204 183 q 1299 528 1299 403 q 1251 763 1299 653 q 1122 955 1204 872 q 929 1085 1039 1038 q 694 1132 819 1132 q 458 1084 568 1132 q 267 954 349 1036 q 138 762 185 872 q 90 528 90 651 q 138 293 90 403 q 267 101 185 183 q 460 -29 350 18 q 694 -76 569 -76 m 660 256 q 854 500 783 399 q 925 681 925 601 q 902 771 925 739 q 833 803 879 803 q 774 782 801 803 q 724 733 747 761 l 650 808 q 853 914 739 914 q 998 853 944 914 q 1051 693 1051 793 q 1033 594 1051 643 q 985 494 1015 544 q 917 392 956 444 q 836 286 878 340 q 891 291 861 289 q 946 293 921 293 l 1074 293 l 1074 174 l 660 174 l 660 256 m 392 746 l 272 746 l 272 836 q 356 862 321 847 q 424 897 392 876 l 524 897 l 524 174 l 392 174 l 392 746 z "},"⑬":{"ha":1389,"x_min":44,"x_max":1344,"o":"m 694 -122 q 442 -71 560 -122 q 235 69 324 -19 q 96 275 147 157 q 44 528 44 393 q 96 781 44 663 q 235 987 147 899 q 442 1126 324 1075 q 694 1178 560 1178 q 947 1126 829 1178 q 1153 987 1065 1075 q 1293 781 1242 899 q 1344 528 1344 663 q 1293 274 1344 393 q 1153 67 1242 156 q 946 -72 1064 -21 q 694 -122 828 -122 m 694 -76 q 929 -29 819 -76 q 1122 101 1039 18 q 1251 293 1204 183 q 1299 528 1299 403 q 1251 763 1299 653 q 1122 955 1204 872 q 929 1085 1039 1038 q 694 1132 819 1132 q 458 1084 568 1132 q 267 954 349 1036 q 138 762 185 872 q 90 528 90 651 q 138 293 90 403 q 267 101 185 183 q 460 -29 350 18 q 694 -76 569 -76 m 851 157 q 726 183 781 157 q 640 251 672 210 l 704 338 q 767 289 733 308 q 847 269 800 269 q 918 299 890 269 q 946 376 946 328 q 938 426 946 404 q 910 464 931 449 q 857 488 890 479 q 771 496 824 496 l 771 597 q 892 628 858 597 q 925 708 925 660 q 902 778 925 753 q 840 804 879 804 q 728 747 781 804 l 660 831 q 850 914 743 914 q 1000 864 943 914 q 1057 718 1057 814 q 1028 618 1057 658 q 949 554 999 578 l 949 550 q 1042 486 1004 531 q 1079 367 1079 442 q 1061 278 1079 317 q 1012 212 1043 239 q 940 171 981 185 q 851 157 899 157 m 396 746 l 276 746 l 276 836 q 360 862 325 847 q 428 897 396 876 l 528 897 l 528 174 l 396 174 l 396 746 z "},"⑭":{"ha":1389,"x_min":44,"x_max":1344,"o":"m 694 1178 q 947 1126 829 1178 q 1153 987 1065 1075 q 1293 781 1242 899 q 1344 528 1344 663 q 1293 274 1344 393 q 1153 67 1242 156 q 946 -72 1064 -21 q 694 -122 828 -122 q 442 -71 560 -122 q 235 69 324 -19 q 96 275 147 157 q 44 528 44 393 q 96 781 44 663 q 235 987 147 899 q 442 1126 324 1075 q 694 1178 560 1178 m 694 -76 q 929 -29 819 -76 q 1122 101 1039 18 q 1251 293 1204 183 q 1299 528 1299 403 q 1251 763 1299 653 q 1122 955 1204 872 q 929 1085 1039 1038 q 694 1132 819 1132 q 458 1084 568 1132 q 267 954 349 1036 q 138 762 185 872 q 90 528 90 651 q 138 293 90 403 q 267 101 185 183 q 460 -29 350 18 q 694 -76 569 -76 m 272 836 q 356 862 321 847 q 424 897 392 876 l 524 897 l 524 174 l 392 174 l 392 746 l 272 746 l 272 836 m 1025 463 l 1100 463 l 1100 357 l 1025 357 l 1025 174 l 903 174 l 903 357 l 632 357 l 632 453 l 869 897 l 1025 897 l 1025 463 m 903 463 l 903 617 q 904 692 903 649 q 908 768 906 735 l 903 768 q 880 717 889 738 q 857 664 871 696 l 753 463 l 903 463 z "},"⑮":{"ha":1389,"x_min":44,"x_max":1344,"o":"m 694 -122 q 442 -71 560 -122 q 235 69 324 -19 q 96 275 147 157 q 44 528 44 393 q 96 781 44 663 q 235 987 147 899 q 442 1126 324 1075 q 694 1178 560 1178 q 947 1126 829 1178 q 1153 987 1065 1075 q 1293 781 1242 899 q 1344 528 1344 663 q 1293 274 1344 393 q 1153 67 1242 156 q 946 -72 1064 -21 q 694 -122 828 -122 m 694 -76 q 929 -29 819 -76 q 1122 101 1039 18 q 1251 293 1204 183 q 1299 528 1299 403 q 1251 763 1299 653 q 1122 955 1204 872 q 929 1085 1039 1038 q 694 1132 819 1132 q 458 1084 568 1132 q 267 954 349 1036 q 138 762 185 872 q 90 528 90 651 q 138 293 90 403 q 267 101 185 183 q 460 -29 350 18 q 694 -76 569 -76 m 392 746 l 272 746 l 272 836 q 356 862 321 847 q 424 897 392 876 l 524 897 l 524 174 l 392 174 l 392 746 m 853 157 q 727 185 778 157 q 640 251 676 213 l 700 342 q 763 292 728 314 q 844 269 797 269 q 922 306 892 269 q 953 406 953 342 q 924 503 953 468 q 849 538 894 538 q 799 526 821 538 q 751 493 776 515 l 692 535 l 710 897 l 1056 897 l 1056 779 l 819 779 l 810 610 q 889 635 850 635 q 965 621 929 635 q 1026 579 1000 607 q 1069 509 1053 551 q 1085 408 1085 467 q 1066 302 1085 349 q 1015 223 1047 256 q 940 174 982 190 q 853 157 899 157 z "},"⑴":{"ha":1389,"x_min":42,"x_max":1347,"o":"m 214 -114 q 81 185 119 29 q 42 528 42 342 q 81 870 42 714 q 214 1169 121 1026 l 289 1149 q 170 856 201 1010 q 139 528 139 703 q 170 199 139 353 q 289 -93 201 46 l 214 -114 m 1100 -93 q 1219 199 1188 46 q 1250 528 1250 353 q 1219 856 1250 703 q 1100 1149 1188 1010 l 1175 1169 q 1309 870 1271 1026 q 1347 528 1347 714 q 1308 185 1347 342 q 1175 -114 1269 29 l 1100 -93 m 442 144 l 650 144 l 650 831 l 481 831 l 481 932 q 600 963 551 943 q 692 1010 649 982 l 811 1010 l 811 144 l 996 144 l 996 13 l 442 13 l 442 144 z "},"⑵":{"ha":1389,"x_min":42,"x_max":1347,"o":"m 214 -114 q 81 185 119 29 q 42 528 42 342 q 81 870 42 714 q 214 1169 121 1026 l 289 1149 q 170 856 201 1010 q 139 528 139 703 q 170 199 139 353 q 289 -93 201 46 l 214 -114 m 1100 -93 q 1219 199 1188 46 q 1250 528 1250 353 q 1219 856 1250 703 q 1100 1149 1188 1010 l 1175 1169 q 1309 870 1271 1026 q 1347 528 1347 714 q 1308 185 1347 342 q 1175 -114 1269 29 l 1100 -93 m 393 106 q 574 297 493 210 q 710 459 654 385 q 795 597 765 533 q 825 719 825 661 q 787 851 825 803 q 665 899 749 899 q 558 867 607 899 q 472 788 508 835 l 379 876 q 514 988 442 949 q 686 1028 586 1028 q 810 1006 756 1028 q 903 946 864 985 q 962 851 942 907 q 982 728 982 796 q 954 590 982 660 q 878 447 926 519 q 765 297 829 374 q 625 139 700 221 q 708 144 665 142 q 786 147 750 147 l 1024 147 l 1024 13 l 393 13 l 393 106 z "},"⑶":{"ha":1389,"x_min":42,"x_max":1347,"o":"m 214 -114 q 81 185 119 29 q 42 528 42 342 q 81 870 42 714 q 214 1169 121 1026 l 289 1149 q 170 856 201 1010 q 139 528 139 703 q 170 199 139 353 q 289 -93 201 46 l 214 -114 m 1100 -93 q 1219 199 1188 46 q 1250 528 1250 353 q 1219 856 1250 703 q 1100 1149 1188 1010 l 1175 1169 q 1309 870 1271 1026 q 1347 528 1347 714 q 1308 185 1347 342 q 1175 -114 1269 29 l 1100 -93 m 679 -6 q 485 35 565 -6 q 356 135 404 76 l 435 236 q 534 158 476 190 q 664 126 592 126 q 797 169 744 126 q 850 289 850 213 q 835 364 850 331 q 787 420 821 397 q 697 456 753 443 q 558 468 640 468 l 558 586 q 678 599 629 586 q 758 636 728 613 q 803 691 789 660 q 817 757 817 722 q 776 861 817 824 q 669 899 736 899 q 564 874 611 899 q 476 804 517 849 l 392 903 q 520 994 450 961 q 675 1028 590 1028 q 799 1011 743 1028 q 894 961 854 994 q 957 880 935 928 q 979 769 979 832 q 932 626 979 682 q 800 538 885 569 l 800 531 q 952 445 893 507 q 1011 279 1011 383 q 985 159 1011 213 q 914 69 958 106 q 809 14 869 33 q 679 -6 749 -6 z "},"⑷":{"ha":1389,"x_min":42,"x_max":1347,"o":"m 289 1149 q 170 856 201 1010 q 139 528 139 703 q 170 199 139 353 q 289 -93 201 46 l 214 -114 q 81 185 119 29 q 42 528 42 342 q 81 870 42 714 q 214 1169 121 1026 l 289 1149 m 1175 1169 q 1309 870 1271 1026 q 1347 528 1347 714 q 1308 185 1347 342 q 1175 -114 1269 29 l 1100 -93 q 1219 199 1188 46 q 1250 528 1250 353 q 1219 856 1250 703 q 1100 1149 1188 1010 l 1175 1169 m 908 401 l 1035 401 l 1035 276 l 908 276 l 908 13 l 757 13 l 757 276 l 333 276 l 333 385 l 724 1010 l 908 1010 l 908 401 m 757 401 l 757 665 q 758 759 757 708 q 763 858 760 810 l 756 858 q 719 781 736 818 q 679 704 701 744 l 492 401 l 757 401 z "},"⑸":{"ha":1389,"x_min":42,"x_max":1347,"o":"m 214 -114 q 81 185 119 29 q 42 528 42 342 q 81 870 42 714 q 214 1169 121 1026 l 289 1149 q 170 856 201 1010 q 139 528 139 703 q 170 199 139 353 q 289 -93 201 46 l 214 -114 m 1100 -93 q 1219 199 1188 46 q 1250 528 1250 353 q 1219 856 1250 703 q 1100 1149 1188 1010 l 1175 1169 q 1309 870 1271 1026 q 1347 528 1347 714 q 1308 185 1347 342 q 1175 -114 1269 29 l 1100 -93 m 672 -7 q 566 4 614 -7 q 478 34 518 15 q 407 78 439 53 q 349 131 375 103 l 426 233 q 522 157 467 189 q 653 125 576 125 q 731 139 694 125 q 792 180 767 153 q 833 245 818 207 q 849 331 849 283 q 798 478 849 426 q 664 531 747 531 q 583 517 617 531 q 510 472 550 503 l 431 521 l 461 1010 l 964 1010 l 964 874 l 601 874 l 578 610 q 642 638 610 629 q 717 646 675 646 q 831 628 778 646 q 924 572 885 610 q 988 475 964 533 q 1011 336 1011 417 q 983 190 1011 254 q 908 83 954 126 q 800 16 861 39 q 672 -7 739 -7 z "},"⑹":{"ha":1389,"x_min":42,"x_max":1347,"o":"m 289 1149 q 170 856 201 1010 q 139 528 139 703 q 170 199 139 353 q 289 -93 201 46 l 214 -114 q 81 185 119 29 q 42 528 42 342 q 81 870 42 714 q 214 1169 121 1026 l 289 1149 m 1175 1169 q 1309 870 1271 1026 q 1347 528 1347 714 q 1308 185 1347 342 q 1175 -114 1269 29 l 1100 -93 q 1219 199 1188 46 q 1250 528 1250 353 q 1219 856 1250 703 q 1100 1149 1188 1010 l 1175 1169 m 919 821 q 848 876 892 856 q 758 896 804 896 q 672 876 713 896 q 601 811 632 857 q 550 691 569 765 q 528 507 531 617 q 632 596 572 565 q 746 626 692 626 q 858 607 807 626 q 945 549 908 588 q 1002 453 982 511 q 1022 317 1022 394 q 998 183 1022 243 q 933 82 974 124 q 838 17 892 40 q 722 -6 783 -6 q 590 24 651 -6 q 481 113 528 53 q 406 263 433 172 q 379 478 379 354 q 410 729 379 625 q 492 900 440 833 q 610 997 543 967 q 749 1028 676 1028 q 900 997 836 1028 q 1007 918 964 965 l 919 821 m 718 119 q 828 172 785 119 q 872 317 872 224 q 831 462 872 417 q 715 507 790 507 q 623 481 672 507 q 532 386 574 454 q 594 183 544 247 q 718 119 643 119 z "},"⑺":{"ha":1389,"x_min":42,"x_max":1347,"o":"m 214 -114 q 81 185 119 29 q 42 528 42 342 q 81 870 42 714 q 214 1169 121 1026 l 289 1149 q 170 856 201 1010 q 139 528 139 703 q 170 199 139 353 q 289 -93 201 46 l 214 -114 m 1100 -93 q 1219 199 1188 46 q 1250 528 1250 353 q 1219 856 1250 703 q 1100 1149 1188 1010 l 1175 1169 q 1309 870 1271 1026 q 1347 528 1347 714 q 1308 185 1347 342 q 1175 -114 1269 29 l 1100 -93 m 558 13 q 581 261 564 149 q 631 476 599 374 q 710 674 663 578 q 825 875 758 771 l 383 875 l 383 1010 l 997 1010 l 997 911 q 867 702 918 801 q 786 498 817 603 q 741 276 756 393 q 721 13 726 158 l 558 13 z "},"⑻":{"ha":1389,"x_min":42,"x_max":1347,"o":"m 214 -114 q 81 185 119 29 q 42 528 42 342 q 81 870 42 714 q 214 1169 121 1026 l 289 1149 q 170 856 201 1010 q 139 528 139 703 q 170 199 139 353 q 289 -93 201 46 l 214 -114 m 1100 -93 q 1219 199 1188 46 q 1250 528 1250 353 q 1219 856 1250 703 q 1100 1149 1188 1010 l 1175 1169 q 1309 870 1271 1026 q 1347 528 1347 714 q 1308 185 1347 342 q 1175 -114 1269 29 l 1100 -93 m 697 -6 q 564 15 625 -6 q 458 71 503 35 q 390 157 414 107 q 365 267 365 207 q 381 357 365 317 q 421 429 396 397 q 478 485 446 461 q 546 529 511 510 l 546 536 q 445 635 483 581 q 407 769 407 690 q 429 877 407 829 q 490 958 451 925 q 583 1010 529 992 q 699 1028 636 1028 q 819 1008 765 1028 q 909 955 872 989 q 966 872 946 921 q 986 765 986 824 q 974 696 986 729 q 944 633 963 663 q 900 576 925 603 q 849 526 875 549 l 849 521 q 919 475 886 499 q 974 421 951 451 q 1010 351 997 390 q 1024 260 1024 313 q 1001 154 1024 203 q 935 70 978 106 q 833 15 893 35 q 697 -6 772 -6 m 760 568 q 826 658 801 614 q 850 756 850 703 q 810 868 850 822 q 696 914 771 914 q 592 876 633 914 q 551 769 551 838 q 567 701 551 731 q 610 649 582 672 q 676 607 638 626 q 760 568 714 588 m 700 110 q 826 151 779 110 q 872 264 872 192 q 854 340 872 308 q 803 395 836 371 q 724 440 769 419 q 625 483 679 461 q 542 398 576 446 q 508 283 508 350 q 563 157 508 204 q 700 110 617 110 z "},"⑼":{"ha":1389,"x_min":42,"x_max":1347,"o":"m 289 1149 q 170 856 201 1010 q 139 528 139 703 q 170 199 139 353 q 289 -93 201 46 l 214 -114 q 81 185 119 29 q 42 528 42 342 q 81 870 42 714 q 214 1169 121 1026 l 289 1149 m 1175 1169 q 1309 870 1271 1026 q 1347 528 1347 714 q 1308 185 1347 342 q 1175 -114 1269 29 l 1100 -93 q 1219 199 1188 46 q 1250 528 1250 353 q 1219 856 1250 703 q 1100 1149 1188 1010 l 1175 1169 m 474 203 q 545 147 501 167 q 635 126 589 126 q 721 146 681 126 q 792 211 761 165 q 842 331 824 257 q 864 515 861 406 q 761 427 821 457 q 649 397 701 397 q 536 416 588 397 q 448 474 485 435 q 391 570 411 513 q 371 706 371 628 q 395 839 371 779 q 460 940 419 899 q 556 1005 501 982 q 671 1028 611 1028 q 803 999 740 1028 q 913 910 865 969 q 987 760 960 850 q 1014 546 1014 669 q 983 294 1014 399 q 901 122 953 189 q 783 25 850 56 q 644 -6 717 -6 q 493 25 557 -6 q 386 104 429 56 l 474 203 m 678 515 q 768 540 719 515 q 860 633 817 565 q 799 838 847 772 q 675 904 750 904 q 565 851 608 904 q 521 706 521 799 q 562 562 521 608 q 678 515 603 515 z "},"⑽":{"ha":1389,"x_min":42,"x_max":1347,"o":"m 1100 -93 q 1219 199 1188 46 q 1250 528 1250 353 q 1219 856 1250 703 q 1100 1149 1188 1010 l 1175 1169 q 1309 870 1271 1026 q 1347 528 1347 714 q 1308 185 1347 342 q 1175 -114 1269 29 l 1100 -93 m 214 -114 q 81 185 119 29 q 42 528 42 342 q 81 870 42 714 q 214 1169 121 1026 l 289 1149 q 170 856 201 1010 q 139 528 139 703 q 170 199 139 353 q 289 -93 201 46 l 214 -114 m 892 -6 q 792 24 838 -6 q 715 115 747 53 q 663 277 682 178 q 644 517 644 376 q 663 753 644 656 q 715 911 682 850 q 792 1000 747 972 q 892 1028 838 1028 q 991 1000 946 1028 q 1069 911 1036 972 q 1119 753 1101 850 q 1138 517 1138 656 q 1119 277 1138 376 q 1069 115 1101 178 q 991 24 1036 53 q 892 -6 946 -6 m 407 846 l 268 846 l 268 932 q 374 963 331 943 q 457 1010 417 983 l 529 1010 l 529 13 l 407 13 l 407 846 m 892 111 q 942 132 919 111 q 981 201 965 153 q 1006 326 997 249 q 1015 517 1015 404 q 1006 705 1015 629 q 981 826 997 781 q 942 892 965 872 q 892 911 919 911 q 842 892 865 911 q 803 826 819 872 q 778 705 788 781 q 769 517 769 629 q 778 326 769 404 q 803 201 788 249 q 842 132 819 153 q 892 111 865 111 z "},"⑾":{"ha":1389,"x_min":42,"x_max":1347,"o":"m 1100 -93 q 1219 199 1188 46 q 1250 528 1250 353 q 1219 856 1250 703 q 1100 1149 1188 1010 l 1175 1169 q 1309 870 1271 1026 q 1347 528 1347 714 q 1308 185 1347 342 q 1175 -114 1269 29 l 1100 -93 m 214 -114 q 81 185 119 29 q 42 528 42 342 q 81 870 42 714 q 214 1169 121 1026 l 289 1149 q 170 856 201 1010 q 139 528 139 703 q 170 199 139 353 q 289 -93 201 46 l 214 -114 m 881 846 l 740 846 l 740 932 q 847 963 803 943 q 931 1010 890 983 l 1003 1010 l 1003 13 l 881 13 l 881 846 m 467 846 l 328 846 l 328 932 q 433 963 390 943 q 517 1010 476 983 l 590 1010 l 590 13 l 467 13 l 467 846 z "},"⑿":{"ha":1389,"x_min":42,"x_max":1347,"o":"m 1100 -93 q 1219 199 1188 46 q 1250 528 1250 353 q 1219 856 1250 703 q 1100 1149 1188 1010 l 1175 1169 q 1309 870 1271 1026 q 1347 528 1347 714 q 1308 185 1347 342 q 1175 -114 1269 29 l 1100 -93 m 214 -114 q 81 185 119 29 q 42 528 42 342 q 81 870 42 714 q 214 1169 121 1026 l 289 1149 q 170 856 201 1010 q 139 528 139 703 q 170 199 139 353 q 289 -93 201 46 l 214 -114 m 644 106 q 894 476 813 321 q 976 744 976 631 q 854 914 976 914 q 775 886 813 914 q 707 818 738 858 l 632 892 q 735 990 685 953 q 863 1028 786 1028 q 1032 952 971 1028 q 1093 747 1093 876 q 1072 608 1093 681 q 1014 456 1051 535 q 924 294 976 378 q 808 124 872 211 q 882 129 843 126 q 953 132 921 132 l 1124 132 l 1124 13 l 644 13 l 644 106 m 407 846 l 268 846 l 268 932 q 374 963 331 943 q 457 1010 417 983 l 529 1010 l 529 13 l 407 13 l 407 846 z "},"⒀":{"ha":1389,"x_min":42,"x_max":1347,"o":"m 1100 -93 q 1219 199 1188 46 q 1250 528 1250 353 q 1219 856 1250 703 q 1100 1149 1188 1010 l 1175 1169 q 1309 870 1271 1026 q 1347 528 1347 714 q 1308 185 1347 342 q 1175 -114 1269 29 l 1100 -93 m 214 -114 q 81 185 119 29 q 42 528 42 342 q 81 870 42 714 q 214 1169 121 1026 l 289 1149 q 170 856 201 1010 q 139 528 139 703 q 170 199 139 353 q 289 -93 201 46 l 214 -114 m 950 531 q 1077 446 1025 508 q 1129 279 1129 383 q 1108 159 1129 213 q 1052 69 1088 106 q 968 14 1017 33 q 865 -6 919 -6 q 717 28 778 -6 q 619 108 656 63 l 689 197 q 760 136 721 161 q 857 111 799 111 q 963 156 919 111 q 1006 279 1006 200 q 951 422 1006 371 q 771 472 897 472 l 771 582 q 867 597 828 582 q 932 636 907 611 q 969 695 957 661 q 981 768 981 729 q 948 876 981 839 q 857 914 915 914 q 786 895 818 914 q 725 843 754 876 l 649 929 q 746 1001 693 975 q 861 1028 799 1028 q 1037 962 971 1028 q 1103 769 1103 896 q 1062 625 1103 682 q 950 538 1021 568 l 950 531 m 407 846 l 268 846 l 268 932 q 374 963 331 943 q 457 1010 417 983 l 529 1010 l 529 13 l 407 13 l 407 846 z "},"⒁":{"ha":1389,"x_min":42,"x_max":1347,"o":"m 289 1149 q 170 856 201 1010 q 139 528 139 703 q 170 199 139 353 q 289 -93 201 46 l 214 -114 q 81 185 119 29 q 42 528 42 342 q 81 870 42 714 q 214 1169 121 1026 l 289 1149 m 1175 1169 q 1309 870 1271 1026 q 1347 528 1347 714 q 1308 185 1347 342 q 1175 -114 1269 29 l 1100 -93 q 1219 199 1188 46 q 1250 528 1250 353 q 1219 856 1250 703 q 1100 1149 1188 1010 l 1175 1169 m 268 932 q 374 963 331 943 q 457 1010 417 983 l 529 1010 l 529 13 l 407 13 l 407 846 l 268 846 l 268 932 m 1042 292 l 1042 13 l 931 13 l 931 292 l 615 292 l 615 385 l 915 1010 l 1042 1010 l 1042 401 l 1140 401 l 1140 292 l 1042 292 m 931 401 l 931 651 q 931 699 931 672 q 931 754 931 726 q 933 809 932 782 q 935 858 933 836 l 931 858 q 901 780 915 817 q 871 700 888 743 l 729 401 l 931 401 z "},"⒂":{"ha":1389,"x_min":42,"x_max":1347,"o":"m 1100 -93 q 1219 199 1188 46 q 1250 528 1250 353 q 1219 856 1250 703 q 1100 1149 1188 1010 l 1175 1169 q 1309 870 1271 1026 q 1347 528 1347 714 q 1308 185 1347 342 q 1175 -114 1269 29 l 1100 -93 m 214 -114 q 81 185 119 29 q 42 528 42 342 q 81 870 42 714 q 214 1169 121 1026 l 289 1149 q 170 856 201 1010 q 139 528 139 703 q 170 199 139 353 q 289 -93 201 46 l 214 -114 m 778 603 q 829 629 806 619 q 885 639 853 639 q 972 621 931 639 q 1045 565 1014 603 q 1094 471 1076 528 q 1113 336 1113 414 q 1092 190 1113 254 q 1035 83 1071 126 q 954 16 1000 39 q 858 -7 908 -7 q 710 27 769 -7 q 611 106 651 61 l 681 194 q 748 135 711 161 q 838 110 785 110 q 947 168 904 110 q 990 331 990 226 q 953 483 990 428 q 856 538 915 538 q 798 524 822 538 q 746 483 774 510 l 671 526 l 697 1010 l 1075 1010 l 1075 889 l 797 889 l 778 603 m 407 846 l 268 846 l 268 932 q 374 963 331 943 q 457 1010 417 983 l 529 1010 l 529 13 l 407 13 l 407 846 z "},"⒜":{"ha":1389,"x_min":42,"x_max":1347,"o":"m 214 -114 q 81 185 119 29 q 42 528 42 342 q 81 870 42 714 q 214 1169 121 1026 l 289 1149 q 170 856 201 1010 q 139 528 139 703 q 170 199 139 353 q 289 -93 201 46 l 214 -114 m 1100 -93 q 1219 199 1188 46 q 1250 528 1250 353 q 1219 856 1250 703 q 1100 1149 1188 1010 l 1175 1169 q 1309 870 1271 1026 q 1347 528 1347 714 q 1308 185 1347 342 q 1175 -114 1269 29 l 1100 -93 m 600 122 q 443 181 504 122 q 382 344 382 240 q 488 535 382 467 q 824 628 593 603 q 817 691 824 661 q 794 744 810 721 q 751 780 778 767 q 685 793 725 793 q 573 769 626 793 q 474 714 519 746 l 413 825 q 547 893 471 863 q 715 924 624 924 q 920 839 854 924 q 986 599 986 754 l 986 140 l 854 140 l 842 228 l 835 228 q 726 153 785 183 q 600 122 667 122 m 651 251 q 739 274 699 251 q 824 339 779 296 l 824 525 q 690 499 744 515 q 601 463 635 483 q 553 415 568 442 q 539 357 539 389 q 571 275 539 299 q 651 251 603 251 z "},"⒝":{"ha":1389,"x_min":42,"x_max":1347,"o":"m 214 -114 q 81 185 119 29 q 42 528 42 342 q 81 870 42 714 q 214 1169 121 1026 l 289 1149 q 170 856 201 1010 q 139 528 139 703 q 170 199 139 353 q 289 -93 201 46 l 214 -114 m 1100 -93 q 1219 199 1188 46 q 1250 528 1250 353 q 1219 856 1250 703 q 1100 1149 1188 1010 l 1175 1169 q 1309 870 1271 1026 q 1347 528 1347 714 q 1308 185 1347 342 q 1175 -114 1269 29 l 1100 -93 m 749 -1 q 649 24 700 -1 q 551 94 599 49 l 547 94 l 533 18 l 403 18 l 403 1125 l 568 1125 l 568 833 l 563 701 q 663 772 608 744 q 774 800 718 800 q 897 772 843 800 q 988 694 951 744 q 1044 572 1025 643 q 1064 413 1064 500 q 1038 237 1064 314 q 969 107 1013 160 q 868 26 925 54 q 749 -1 811 -1 m 717 135 q 846 205 796 135 q 896 410 896 275 q 858 599 896 532 q 732 665 819 665 q 652 642 692 665 q 568 574 613 619 l 568 203 q 646 150 607 165 q 717 135 685 135 z "},"⒞":{"ha":1389,"x_min":42,"x_max":1347,"o":"m 214 -114 q 81 185 119 29 q 42 528 42 342 q 81 870 42 714 q 214 1169 121 1026 l 289 1149 q 170 856 201 1010 q 139 528 139 703 q 170 199 139 353 q 289 -93 201 46 l 214 -114 m 1100 -93 q 1219 199 1188 46 q 1250 528 1250 353 q 1219 856 1250 703 q 1100 1149 1188 1010 l 1175 1169 q 1309 870 1271 1026 q 1347 528 1347 714 q 1308 185 1347 342 q 1175 -114 1269 29 l 1100 -93 m 749 122 q 604 149 671 122 q 488 228 538 176 q 411 353 439 279 q 383 522 383 428 q 415 693 383 618 q 498 819 446 768 q 618 897 550 869 q 761 924 686 924 q 891 897 836 924 q 985 833 946 871 l 907 732 q 842 775 875 758 q 769 792 810 792 q 682 772 722 792 q 613 717 642 753 q 567 633 583 682 q 550 522 550 583 q 566 413 550 463 q 610 329 582 364 q 678 275 639 294 q 765 256 718 256 q 856 276 814 256 q 931 325 899 297 l 1000 219 q 881 147 946 172 q 749 122 815 122 z "},"⒟":{"ha":1389,"x_min":42,"x_max":1347,"o":"m 214 -114 q 81 185 119 29 q 42 528 42 342 q 81 870 42 714 q 214 1169 121 1026 l 289 1149 q 170 856 201 1010 q 139 528 139 703 q 170 199 139 353 q 289 -93 201 46 l 214 -114 m 1100 -93 q 1219 199 1188 46 q 1250 528 1250 353 q 1219 856 1250 703 q 1100 1149 1188 1010 l 1175 1169 q 1309 870 1271 1026 q 1347 528 1347 714 q 1308 185 1347 342 q 1175 -114 1269 29 l 1100 -93 m 626 -1 q 503 26 558 -1 q 408 104 447 53 q 348 231 369 156 q 326 400 326 306 q 352 567 326 493 q 422 693 378 642 q 522 772 465 744 q 638 800 578 800 q 744 778 700 800 q 831 717 788 756 l 824 842 l 824 1125 l 988 1125 l 988 18 l 853 18 l 840 103 l 836 103 q 742 28 796 58 q 626 -1 689 -1 m 665 135 q 748 156 710 135 q 824 226 786 178 l 824 597 q 747 650 785 635 q 671 665 710 665 q 603 647 635 665 q 547 594 571 629 q 510 511 524 560 q 496 400 496 463 q 539 202 496 269 q 665 135 582 135 z "},"⒠":{"ha":1389,"x_min":42,"x_max":1347,"o":"m 214 -114 q 81 185 119 29 q 42 528 42 342 q 81 870 42 714 q 214 1169 121 1026 l 289 1149 q 170 856 201 1010 q 139 528 139 703 q 170 199 139 353 q 289 -93 201 46 l 214 -114 m 1100 -93 q 1219 199 1188 46 q 1250 528 1250 353 q 1219 856 1250 703 q 1100 1149 1188 1010 l 1175 1169 q 1309 870 1271 1026 q 1347 528 1347 714 q 1308 185 1347 342 q 1175 -114 1269 29 l 1100 -93 m 742 122 q 601 149 667 122 q 488 228 536 176 q 411 353 439 279 q 383 522 383 428 q 411 690 383 615 q 486 816 439 764 q 594 896 533 868 q 718 924 654 924 q 846 897 790 924 q 940 824 901 871 q 997 710 978 776 q 1017 563 1017 643 q 1015 523 1017 543 q 1010 483 1013 503 l 542 483 q 611 310 551 371 q 763 249 671 249 q 851 265 811 249 q 931 306 892 281 l 988 204 q 876 145 938 168 q 742 122 814 122 m 875 588 q 836 742 875 688 q 721 797 797 797 q 603 744 654 797 q 540 588 551 692 l 875 588 z "},"⒡":{"ha":1389,"x_min":42,"x_max":1347,"o":"m 289 1149 q 170 856 201 1010 q 139 528 139 703 q 170 199 139 353 q 289 -93 201 46 l 214 -114 q 81 185 119 29 q 42 528 42 342 q 81 870 42 714 q 214 1169 121 1026 l 289 1149 m 1175 1169 q 1309 870 1271 1026 q 1347 528 1347 714 q 1308 185 1347 342 q 1175 -114 1269 29 l 1100 -93 q 1219 199 1188 46 q 1250 528 1250 353 q 1219 856 1250 703 q 1100 1149 1188 1010 l 1175 1169 m 532 875 q 546 983 532 933 q 590 1067 560 1032 q 666 1123 619 1103 q 776 1143 713 1143 q 850 1135 815 1143 q 911 1115 885 1126 l 879 994 q 796 1013 843 1013 q 694 878 694 1013 l 694 782 l 849 782 l 849 651 l 694 651 l 694 18 l 532 18 l 532 651 l 428 651 l 428 775 l 532 782 l 532 875 z "},"⒢":{"ha":1389,"x_min":42,"x_max":1347,"o":"m 214 -114 q 81 185 119 29 q 42 528 42 342 q 81 870 42 714 q 214 1169 121 1026 l 289 1149 q 170 856 201 1010 q 139 528 139 703 q 170 199 139 353 q 289 -93 201 46 l 214 -114 m 1100 -93 q 1219 199 1188 46 q 1250 528 1250 353 q 1219 856 1250 703 q 1100 1149 1188 1010 l 1175 1169 q 1309 870 1271 1026 q 1347 528 1347 714 q 1308 185 1347 342 q 1175 -114 1269 29 l 1100 -93 m 675 -50 q 565 -38 615 -50 q 477 -3 514 -26 q 419 57 440 21 q 399 140 399 93 q 424 226 399 185 q 496 296 449 267 l 496 303 q 448 351 468 322 q 428 422 428 379 q 453 501 428 465 q 511 560 479 536 l 511 565 q 442 644 474 594 q 411 761 411 694 q 433 873 411 824 q 492 956 456 922 q 578 1008 529 990 q 682 1026 628 1026 q 730 1022 707 1026 q 771 1008 753 1018 l 1024 1008 l 1024 888 l 894 888 q 928 831 914 864 q 943 757 943 797 q 923 648 943 696 q 867 567 903 600 q 784 517 832 535 q 682 500 736 500 q 644 505 667 500 q 600 519 621 510 q 573 490 585 504 q 561 451 561 475 q 582 402 561 419 q 661 385 603 385 l 761 385 q 958 343 892 385 q 1024 206 1024 301 q 999 106 1024 153 q 930 25 975 60 q 820 -30 885 -10 q 675 -50 756 -50 m 682 604 q 769 645 735 604 q 804 761 804 686 q 769 874 804 833 q 682 914 735 914 q 595 875 631 914 q 560 761 560 836 q 596 645 560 686 q 682 604 632 604 m 700 57 q 767 67 738 57 q 819 94 797 78 q 853 133 842 111 q 865 176 865 154 q 833 238 865 221 q 738 254 800 254 l 664 254 q 627 256 646 254 q 590 265 608 258 q 550 215 563 242 q 538 161 538 189 q 581 85 538 113 q 700 57 624 57 z "},"⒣":{"ha":1389,"x_min":42,"x_max":1347,"o":"m 214 -114 q 81 185 119 29 q 42 528 42 342 q 81 870 42 714 q 214 1169 121 1026 l 289 1149 q 170 856 201 1010 q 139 528 139 703 q 170 199 139 353 q 289 -93 201 46 l 214 -114 m 1100 -93 q 1219 199 1188 46 q 1250 528 1250 353 q 1219 856 1250 703 q 1100 1149 1188 1010 l 1175 1169 q 1309 870 1271 1026 q 1347 528 1347 714 q 1308 185 1347 342 q 1175 -114 1269 29 l 1100 -93 m 396 1125 l 560 1125 l 560 833 l 551 682 q 660 765 603 729 q 794 800 718 800 q 967 723 913 800 q 1021 499 1021 646 l 1021 18 l 857 18 l 857 478 q 829 620 857 578 q 738 663 801 663 q 647 635 686 663 q 560 558 608 607 l 560 18 l 396 18 l 396 1125 z "},"⒤":{"ha":1389,"x_min":42,"x_max":1347,"o":"m 214 -114 q 81 185 119 29 q 42 528 42 342 q 81 870 42 714 q 214 1169 121 1026 l 289 1149 q 170 856 201 1010 q 139 528 139 703 q 170 199 139 353 q 289 -93 201 46 l 214 -114 m 1100 -93 q 1219 199 1188 46 q 1250 528 1250 353 q 1219 856 1250 703 q 1100 1149 1188 1010 l 1175 1169 q 1309 870 1271 1026 q 1347 528 1347 714 q 1308 185 1347 342 q 1175 -114 1269 29 l 1100 -93 m 694 924 q 620 951 650 924 q 590 1019 590 978 q 620 1089 590 1063 q 694 1115 650 1115 q 769 1089 739 1115 q 799 1019 799 1063 q 769 951 799 978 q 694 924 739 924 m 613 782 l 776 782 l 776 18 l 613 18 l 613 782 z "},"⒥":{"ha":1389,"x_min":42,"x_max":1347,"o":"m 724 1024 q 648 1051 678 1024 q 618 1119 618 1078 q 648 1189 618 1163 q 724 1215 678 1215 q 797 1189 768 1215 q 825 1119 825 1163 q 797 1051 825 1078 q 724 1024 768 1024 m 214 -114 q 81 185 119 29 q 42 528 42 342 q 81 870 42 714 q 214 1169 121 1026 l 289 1149 q 170 856 201 1010 q 139 528 139 703 q 170 199 139 353 q 289 -93 201 46 l 214 -114 m 1100 -93 q 1219 199 1188 46 q 1250 528 1250 353 q 1219 856 1250 703 q 1100 1149 1188 1010 l 1175 1169 q 1309 870 1271 1026 q 1347 528 1347 714 q 1308 185 1347 342 q 1175 -114 1269 29 l 1100 -93 m 572 -211 q 502 -205 532 -211 q 451 -190 472 -199 l 482 -68 q 550 -79 524 -79 q 622 -43 604 -79 q 640 61 640 -7 l 640 882 l 803 882 l 803 64 q 791 -47 803 4 q 752 -134 779 -97 q 681 -191 725 -171 q 572 -211 638 -211 z "},"⒦":{"ha":1389,"x_min":42,"x_max":1347,"o":"m 214 -114 q 81 185 119 29 q 42 528 42 342 q 81 870 42 714 q 214 1169 121 1026 l 289 1149 q 170 856 201 1010 q 139 528 139 703 q 170 199 139 353 q 289 -93 201 46 l 214 -114 m 1100 -93 q 1219 199 1188 46 q 1250 528 1250 353 q 1219 856 1250 703 q 1100 1149 1188 1010 l 1175 1169 q 1309 870 1271 1026 q 1347 528 1347 714 q 1308 185 1347 342 q 1175 -114 1269 29 l 1100 -93 m 401 1125 l 561 1125 l 561 414 l 565 414 l 835 782 l 1014 782 l 775 472 l 1043 18 l 865 18 l 682 361 l 561 214 l 561 18 l 401 18 l 401 1125 z "},"⒧":{"ha":1389,"x_min":42,"x_max":1347,"o":"m 214 -114 q 81 185 119 29 q 42 528 42 342 q 81 870 42 714 q 214 1169 121 1026 l 289 1149 q 170 856 201 1010 q 139 528 139 703 q 170 199 139 353 q 289 -93 201 46 l 214 -114 m 1100 -93 q 1219 199 1188 46 q 1250 528 1250 353 q 1219 856 1250 703 q 1100 1149 1188 1010 l 1175 1169 q 1309 870 1271 1026 q 1347 528 1347 714 q 1308 185 1347 342 q 1175 -114 1269 29 l 1100 -93 m 768 -1 q 643 51 681 -1 q 606 200 606 104 l 606 1125 l 771 1125 l 771 190 q 782 145 771 158 q 808 132 793 132 q 819 132 814 132 q 836 135 825 132 l 857 13 q 819 3 840 7 q 768 -1 799 -1 z "},"⒨":{"ha":1389,"x_min":42,"x_max":1347,"o":"m 214 -114 q 81 185 119 29 q 42 528 42 342 q 81 870 42 714 q 214 1169 121 1026 l 289 1149 q 170 856 201 1010 q 139 528 139 703 q 170 199 139 353 q 289 -93 201 46 l 214 -114 m 1100 -93 q 1219 199 1188 46 q 1250 528 1250 353 q 1219 856 1250 703 q 1100 1149 1188 1010 l 1175 1169 q 1309 870 1271 1026 q 1347 528 1347 714 q 1308 185 1347 342 q 1175 -114 1269 29 l 1100 -93 m 290 906 l 403 906 l 417 828 l 422 828 q 500 896 458 868 q 594 924 542 924 q 689 894 654 924 q 743 813 724 865 q 829 892 785 861 q 932 924 874 924 q 1063 857 1021 924 q 1106 664 1106 790 l 1106 140 l 965 140 l 965 642 q 947 753 965 721 q 889 785 928 785 q 767 710 829 785 l 767 140 l 632 140 l 632 642 q 613 753 632 721 q 554 785 594 785 q 494 767 522 785 q 433 710 465 749 l 433 140 l 290 140 l 290 906 z "},"⒩":{"ha":1389,"x_min":42,"x_max":1347,"o":"m 214 -114 q 81 185 119 29 q 42 528 42 342 q 81 870 42 714 q 214 1169 121 1026 l 289 1149 q 170 856 201 1010 q 139 528 139 703 q 170 199 139 353 q 289 -93 201 46 l 214 -114 m 1100 -93 q 1219 199 1188 46 q 1250 528 1250 353 q 1219 856 1250 703 q 1100 1149 1188 1010 l 1175 1169 q 1309 870 1271 1026 q 1347 528 1347 714 q 1308 185 1347 342 q 1175 -114 1269 29 l 1100 -93 m 388 906 l 521 906 l 535 804 l 540 804 q 648 889 590 854 q 785 924 706 924 q 960 849 907 924 q 1013 626 1013 774 l 1013 140 l 850 140 l 850 604 q 822 743 850 701 q 729 785 793 785 q 639 760 678 785 q 551 686 600 735 l 551 140 l 388 140 l 388 906 z "},"⒪":{"ha":1389,"x_min":42,"x_max":1347,"o":"m 214 -114 q 81 185 119 29 q 42 528 42 342 q 81 870 42 714 q 214 1169 121 1026 l 289 1149 q 170 856 201 1010 q 139 528 139 703 q 170 199 139 353 q 289 -93 201 46 l 214 -114 m 1100 -93 q 1219 199 1188 46 q 1250 528 1250 353 q 1219 856 1250 703 q 1100 1149 1188 1010 l 1175 1169 q 1309 870 1271 1026 q 1347 528 1347 714 q 1308 185 1347 342 q 1175 -114 1269 29 l 1100 -93 m 694 122 q 561 149 625 122 q 448 228 497 176 q 369 353 399 279 q 340 522 340 428 q 369 693 340 618 q 448 819 399 768 q 561 897 497 869 q 694 924 625 924 q 828 897 764 924 q 940 819 892 869 q 1018 693 989 768 q 1047 522 1047 618 q 1018 353 1047 428 q 940 228 989 279 q 828 149 892 176 q 694 122 764 122 m 694 256 q 771 275 736 256 q 830 329 806 294 q 867 413 854 364 q 881 522 881 463 q 867 633 881 583 q 830 717 854 682 q 771 772 806 753 q 694 792 736 792 q 558 717 608 792 q 507 522 507 643 q 557 328 507 400 q 694 256 607 256 z "},"⒫":{"ha":1389,"x_min":42,"x_max":1347,"o":"m 214 -114 q 81 185 119 29 q 42 528 42 342 q 81 870 42 714 q 214 1169 121 1026 l 289 1149 q 170 856 201 1010 q 139 528 139 703 q 170 199 139 353 q 289 -93 201 46 l 214 -114 m 1100 -93 q 1219 199 1188 46 q 1250 528 1250 353 q 1219 856 1250 703 q 1100 1149 1188 1010 l 1175 1169 q 1309 870 1271 1026 q 1347 528 1347 714 q 1308 185 1347 342 q 1175 -114 1269 29 l 1100 -93 m 397 1008 l 529 1008 l 544 925 l 549 925 q 655 997 597 967 q 775 1026 713 1026 q 901 999 846 1026 q 994 922 957 972 q 1051 799 1032 871 q 1071 639 1071 728 q 1044 463 1071 540 q 974 333 1018 386 q 871 253 929 281 q 749 225 813 225 q 651 248 700 225 q 556 311 603 271 l 560 182 l 560 -10 l 397 -10 l 397 1008 m 717 361 q 850 431 797 361 q 903 636 903 501 q 863 825 903 758 q 732 892 824 892 q 649 868 690 892 q 560 800 608 844 l 560 429 q 643 377 603 393 q 717 361 683 361 z "},"⒬":{"ha":1389,"x_min":42,"x_max":1347,"o":"m 214 -114 q 81 185 119 29 q 42 528 42 342 q 81 870 42 714 q 214 1169 121 1026 l 289 1149 q 170 856 201 1010 q 139 528 139 703 q 170 199 139 353 q 289 -93 201 46 l 214 -114 m 1100 -93 q 1219 199 1188 46 q 1250 528 1250 353 q 1219 856 1250 703 q 1100 1149 1188 1010 l 1175 1169 q 1309 870 1271 1026 q 1347 528 1347 714 q 1308 185 1347 342 q 1175 -114 1269 29 l 1100 -93 m 829 193 l 836 324 q 740 254 793 283 q 625 225 688 225 q 499 252 556 225 q 401 331 442 279 q 340 457 361 382 q 318 626 318 532 q 344 794 318 719 q 415 919 371 868 q 517 999 460 971 q 638 1026 575 1026 q 748 1003 700 1026 q 844 935 796 981 l 849 935 l 864 1008 l 993 1008 l 993 -10 l 829 -10 l 829 193 m 665 361 q 749 383 710 361 q 829 453 789 406 l 829 824 q 749 876 788 860 q 669 892 710 892 q 599 874 632 892 q 540 821 565 856 q 501 738 515 786 q 488 626 488 689 q 533 428 488 496 q 665 361 578 361 z "},"⒭":{"ha":1389,"x_min":42,"x_max":1347,"o":"m 214 -114 q 81 185 119 29 q 42 528 42 342 q 81 870 42 714 q 214 1169 121 1026 l 289 1149 q 170 856 201 1010 q 139 528 139 703 q 170 199 139 353 q 289 -93 201 46 l 214 -114 m 1100 -93 q 1219 199 1188 46 q 1250 528 1250 353 q 1219 856 1250 703 q 1100 1149 1188 1010 l 1175 1169 q 1309 870 1271 1026 q 1347 528 1347 714 q 1308 185 1347 342 q 1175 -114 1269 29 l 1100 -93 m 499 906 l 632 906 l 646 768 l 650 768 q 747 883 690 843 q 868 924 804 924 q 953 908 914 924 l 922 767 q 886 776 903 772 q 846 779 869 779 q 748 743 799 779 q 663 615 697 707 l 663 140 l 499 140 l 499 906 z "},"⒮":{"ha":1389,"x_min":42,"x_max":1347,"o":"m 214 -114 q 81 185 119 29 q 42 528 42 342 q 81 870 42 714 q 214 1169 121 1026 l 289 1149 q 170 856 201 1010 q 139 528 139 703 q 170 199 139 353 q 289 -93 201 46 l 214 -114 m 1100 -93 q 1219 199 1188 46 q 1250 528 1250 353 q 1219 856 1250 703 q 1100 1149 1188 1010 l 1175 1169 q 1309 870 1271 1026 q 1347 528 1347 714 q 1308 185 1347 342 q 1175 -114 1269 29 l 1100 -93 m 690 122 q 533 152 610 122 q 401 229 457 182 l 478 333 q 580 269 529 293 q 693 246 631 246 q 794 275 761 246 q 826 346 826 304 q 812 392 826 372 q 773 426 797 411 q 719 453 749 440 q 658 478 689 465 q 580 510 619 492 q 509 555 540 529 q 458 616 478 581 q 438 700 438 651 q 457 789 438 749 q 512 860 476 829 q 598 907 547 890 q 713 924 649 924 q 852 897 789 924 q 961 835 915 871 l 885 735 q 804 782 844 763 q 717 801 764 801 q 624 774 654 801 q 593 708 593 746 q 607 666 593 683 q 644 635 621 649 q 697 610 667 621 q 757 588 726 599 q 837 556 797 574 q 908 513 876 539 q 960 448 940 486 q 981 356 981 410 q 962 265 981 307 q 906 190 943 222 q 815 140 869 158 q 690 122 761 122 z "},"⒯":{"ha":1389,"x_min":42,"x_max":1347,"o":"m 214 -114 q 81 185 119 29 q 42 528 42 342 q 81 870 42 714 q 214 1169 121 1026 l 289 1149 q 170 856 201 1010 q 139 528 139 703 q 170 199 139 353 q 289 -93 201 46 l 214 -114 m 1100 -93 q 1219 199 1188 46 q 1250 528 1250 353 q 1219 856 1250 703 q 1100 1149 1188 1010 l 1175 1169 q 1309 870 1271 1026 q 1347 528 1347 714 q 1308 185 1347 342 q 1175 -114 1269 29 l 1100 -93 m 797 58 q 688 78 733 58 q 615 133 643 97 q 575 219 588 169 q 563 329 563 269 l 563 711 l 451 711 l 451 835 l 571 842 l 590 1053 l 725 1053 l 725 842 l 924 842 l 924 711 l 725 711 l 725 328 q 751 223 725 257 q 836 189 778 189 q 878 195 856 189 q 918 208 901 201 l 947 88 q 877 67 915 76 q 797 58 839 58 z "},"⒰":{"ha":1389,"x_min":42,"x_max":1347,"o":"m 214 -114 q 81 185 119 29 q 42 528 42 342 q 81 870 42 714 q 214 1169 121 1026 l 289 1149 q 170 856 201 1010 q 139 528 139 703 q 170 199 139 353 q 289 -93 201 46 l 214 -114 m 1100 -93 q 1219 199 1188 46 q 1250 528 1250 353 q 1219 856 1250 703 q 1100 1149 1188 1010 l 1175 1169 q 1309 870 1271 1026 q 1347 528 1347 714 q 1308 185 1347 342 q 1175 -114 1269 29 l 1100 -93 m 608 122 q 433 199 486 122 q 381 419 381 276 l 381 906 l 542 906 l 542 440 q 571 303 542 344 q 664 263 600 263 q 753 288 714 263 q 836 372 792 314 l 836 906 l 1000 906 l 1000 140 l 867 140 l 854 251 l 849 251 q 742 158 799 193 q 608 122 685 122 z "},"⒱":{"ha":1389,"x_min":42,"x_max":1347,"o":"m 214 -114 q 81 185 119 29 q 42 528 42 342 q 81 870 42 714 q 214 1169 121 1026 l 289 1149 q 170 856 201 1010 q 139 528 139 703 q 170 199 139 353 q 289 -93 201 46 l 214 -114 m 1100 -93 q 1219 199 1188 46 q 1250 528 1250 353 q 1219 856 1250 703 q 1100 1149 1188 1010 l 1175 1169 q 1309 870 1271 1026 q 1347 528 1347 714 q 1308 185 1347 342 q 1175 -114 1269 29 l 1100 -93 m 333 906 l 500 906 l 629 497 l 696 268 l 701 268 q 735 383 718 326 q 768 497 753 439 l 897 906 l 1056 906 l 793 140 l 603 140 l 333 906 z "},"⒲":{"ha":1389,"x_min":42,"x_max":1347,"o":"m 214 -114 q 81 185 119 29 q 42 528 42 342 q 81 870 42 714 q 214 1169 121 1026 l 289 1149 q 170 856 201 1010 q 139 528 139 703 q 170 199 139 353 q 289 -93 201 46 l 214 -114 m 1100 -93 q 1219 199 1188 46 q 1250 528 1250 353 q 1219 856 1250 703 q 1100 1149 1188 1010 l 1175 1169 q 1309 870 1271 1026 q 1347 528 1347 714 q 1308 185 1347 342 q 1175 -114 1269 29 l 1100 -93 m 229 906 l 381 906 l 454 494 q 472 385 464 439 q 489 276 481 331 l 496 276 q 515 385 507 332 q 535 494 524 439 l 624 906 l 775 906 l 864 494 q 884 385 875 439 q 906 276 893 331 l 911 276 q 929 385 921 331 q 947 494 938 439 l 1019 906 l 1158 906 l 1008 140 l 814 140 l 735 517 q 715 622 724 569 q 697 738 707 675 l 690 738 q 672 622 681 675 q 651 514 664 568 l 578 140 l 388 140 l 229 906 z "},"⒳":{"ha":1389,"x_min":42,"x_max":1347,"o":"m 214 -114 q 81 185 119 29 q 42 528 42 342 q 81 870 42 714 q 214 1169 121 1026 l 289 1149 q 170 856 201 1010 q 139 528 139 703 q 170 199 139 353 q 289 -93 201 46 l 214 -114 m 1100 -93 q 1219 199 1188 46 q 1250 528 1250 353 q 1219 856 1250 703 q 1100 1149 1188 1010 l 1175 1169 q 1309 870 1271 1026 q 1347 528 1347 714 q 1308 185 1347 342 q 1175 -114 1269 29 l 1100 -93 m 596 539 l 367 906 l 543 906 l 633 753 q 669 689 651 722 q 706 624 686 656 l 711 624 q 744 689 728 656 q 775 753 760 722 l 854 906 l 1024 906 l 796 522 l 1039 140 l 864 140 l 764 301 q 725 369 744 335 q 686 436 706 404 l 679 436 q 644 370 661 404 q 608 301 626 336 l 519 140 l 350 140 l 596 539 z "},"⒴":{"ha":1389,"x_min":42,"x_max":1347,"o":"m 214 -114 q 81 185 119 29 q 42 528 42 342 q 81 870 42 714 q 214 1169 121 1026 l 289 1149 q 170 856 201 1010 q 139 528 139 703 q 170 199 139 353 q 289 -93 201 46 l 214 -114 m 1100 -93 q 1219 199 1188 46 q 1250 528 1250 353 q 1219 856 1250 703 q 1100 1149 1188 1010 l 1175 1169 q 1309 870 1271 1026 q 1347 528 1347 714 q 1308 185 1347 342 q 1175 -114 1269 29 l 1100 -93 m 493 -19 q 436 -15 461 -19 q 390 -4 411 -11 l 421 124 q 450 116 433 119 q 482 113 467 113 q 576 138 540 113 q 624 207 611 163 l 636 250 l 336 1008 l 501 1008 l 639 619 q 674 512 657 567 q 708 401 690 457 l 715 401 q 746 510 731 454 q 776 619 761 567 l 893 1008 l 1051 1008 l 776 208 q 734 113 758 156 q 676 42 710 71 q 598 -3 643 13 q 493 -19 553 -19 z "},"⒵":{"ha":1389,"x_min":42,"x_max":1347,"o":"m 214 -114 q 81 185 119 29 q 42 528 42 342 q 81 870 42 714 q 214 1169 121 1026 l 289 1149 q 170 856 201 1010 q 139 528 139 703 q 170 199 139 353 q 289 -93 201 46 l 214 -114 m 1100 -93 q 1219 199 1188 46 q 1250 528 1250 353 q 1219 856 1250 703 q 1100 1149 1188 1010 l 1175 1169 q 1309 870 1271 1026 q 1347 528 1347 714 q 1308 185 1347 342 q 1175 -114 1269 29 l 1100 -93 m 406 228 l 779 775 l 447 775 l 447 906 l 985 906 l 985 818 l 610 271 l 996 271 l 996 140 l 406 140 l 406 228 z "},"ⓐ":{"ha":1389,"x_min":44,"x_max":1344,"o":"m 694 -122 q 442 -71 560 -122 q 235 69 324 -19 q 96 275 147 157 q 44 528 44 393 q 96 781 44 663 q 235 987 147 899 q 442 1126 324 1075 q 694 1178 560 1178 q 947 1126 829 1178 q 1153 987 1065 1075 q 1293 781 1242 899 q 1344 528 1344 663 q 1293 274 1344 393 q 1153 67 1242 156 q 946 -72 1064 -21 q 694 -122 828 -122 m 694 -76 q 929 -29 819 -76 q 1122 101 1039 18 q 1251 293 1204 183 q 1299 528 1299 403 q 1251 763 1299 653 q 1122 955 1204 872 q 929 1085 1039 1038 q 694 1132 819 1132 q 458 1084 568 1132 q 267 954 349 1036 q 138 762 185 872 q 90 528 90 651 q 138 293 90 403 q 267 101 185 183 q 460 -29 350 18 q 694 -76 569 -76 m 635 256 q 522 298 564 256 q 481 407 481 340 q 552 534 481 490 q 783 593 624 578 q 763 665 782 638 q 696 692 744 692 q 616 676 657 692 q 542 640 575 660 l 500 721 q 597 767 543 747 q 714 788 651 788 q 856 732 810 788 q 903 571 903 676 l 903 268 l 807 268 l 796 325 l 789 325 q 720 276 758 296 q 635 256 682 256 m 672 350 q 783 404 729 350 l 783 521 q 637 482 678 510 q 596 417 596 454 q 672 350 596 350 z "},"ⓑ":{"ha":1389,"x_min":44,"x_max":1344,"o":"m 694 -122 q 442 -71 560 -122 q 235 69 324 -19 q 96 275 147 157 q 44 528 44 393 q 96 781 44 663 q 235 987 147 899 q 442 1126 324 1075 q 694 1178 560 1178 q 947 1126 829 1178 q 1153 987 1065 1075 q 1293 781 1242 899 q 1344 528 1344 663 q 1293 274 1344 393 q 1153 67 1242 156 q 946 -72 1064 -21 q 694 -122 828 -122 m 694 -76 q 929 -29 819 -76 q 1122 101 1039 18 q 1251 293 1204 183 q 1299 528 1299 403 q 1251 763 1299 653 q 1122 955 1204 872 q 929 1085 1039 1038 q 694 1132 819 1132 q 458 1084 568 1132 q 267 954 349 1036 q 138 762 185 872 q 90 528 90 651 q 138 293 90 403 q 267 101 185 183 q 460 -29 350 18 q 694 -76 569 -76 m 754 192 q 683 208 719 192 q 617 256 646 224 l 610 256 l 597 204 l 507 204 l 507 933 l 625 933 l 625 744 l 621 658 q 690 706 653 688 q 769 725 728 725 q 919 655 865 725 q 972 468 972 585 q 954 350 972 401 q 906 263 936 299 q 837 210 876 228 q 754 192 797 192 m 733 289 q 816 333 782 289 q 850 465 850 378 q 824 585 850 544 q 739 626 797 626 q 625 569 682 626 l 625 331 q 681 299 653 308 q 733 289 708 289 z "},"ⓒ":{"ha":1389,"x_min":44,"x_max":1344,"o":"m 694 -122 q 442 -71 560 -122 q 235 69 324 -19 q 96 275 147 157 q 44 528 44 393 q 96 781 44 663 q 235 987 147 899 q 442 1126 324 1075 q 694 1178 560 1178 q 947 1126 829 1178 q 1153 987 1065 1075 q 1293 781 1242 899 q 1344 528 1344 663 q 1293 274 1344 393 q 1153 67 1242 156 q 946 -72 1064 -21 q 694 -122 828 -122 m 694 -76 q 929 -29 819 -76 q 1122 101 1039 18 q 1251 293 1204 183 q 1299 528 1299 403 q 1251 763 1299 653 q 1122 955 1204 872 q 929 1085 1039 1038 q 694 1132 819 1132 q 458 1084 568 1132 q 267 954 349 1036 q 138 762 185 872 q 90 528 90 651 q 138 293 90 403 q 267 101 185 183 q 460 -29 350 18 q 694 -76 569 -76 m 717 256 q 617 274 663 256 q 540 326 572 292 q 488 410 507 360 q 469 522 469 460 q 490 634 469 585 q 546 717 511 683 q 626 769 581 751 q 722 788 672 788 q 818 770 781 788 q 879 733 856 753 l 822 657 q 781 683 801 674 q 729 692 760 692 q 631 644 669 692 q 593 522 593 597 q 631 400 593 447 q 731 353 668 353 q 792 365 767 353 q 838 392 818 376 l 886 315 q 819 274 860 293 q 717 256 779 256 z "},"ⓓ":{"ha":1389,"x_min":44,"x_max":1344,"o":"m 694 -122 q 442 -71 560 -122 q 235 69 324 -19 q 96 275 147 157 q 44 528 44 393 q 96 781 44 663 q 235 987 147 899 q 442 1126 324 1075 q 694 1178 560 1178 q 947 1126 829 1178 q 1153 987 1065 1075 q 1293 781 1242 899 q 1344 528 1344 663 q 1293 274 1344 393 q 1153 67 1242 156 q 946 -72 1064 -21 q 694 -122 828 -122 m 694 -76 q 929 -29 819 -76 q 1122 101 1039 18 q 1251 293 1204 183 q 1299 528 1299 403 q 1251 763 1299 653 q 1122 955 1204 872 q 929 1085 1039 1038 q 694 1132 819 1132 q 458 1084 568 1132 q 267 954 349 1036 q 138 762 185 872 q 90 528 90 651 q 138 293 90 403 q 267 101 185 183 q 460 -29 350 18 q 694 -76 569 -76 m 656 192 q 499 263 556 192 q 442 468 442 333 q 460 575 442 528 q 509 656 479 622 q 578 707 539 689 q 657 725 617 725 q 732 710 699 725 q 794 669 765 694 l 788 756 l 788 933 l 907 933 l 907 204 l 811 204 l 800 258 l 796 258 q 731 211 767 231 q 656 192 696 192 m 685 289 q 737 304 713 289 q 788 347 761 319 l 788 583 q 734 617 760 607 q 682 628 708 628 q 599 585 633 628 q 564 468 564 543 q 685 289 564 289 z "},"ⓔ":{"ha":1389,"x_min":44,"x_max":1344,"o":"m 694 -122 q 442 -71 560 -122 q 235 69 324 -19 q 96 275 147 157 q 44 528 44 393 q 96 781 44 663 q 235 987 147 899 q 442 1126 324 1075 q 694 1178 560 1178 q 947 1126 829 1178 q 1153 987 1065 1075 q 1293 781 1242 899 q 1344 528 1344 663 q 1293 274 1344 393 q 1153 67 1242 156 q 946 -72 1064 -21 q 694 -122 828 -122 m 694 -76 q 929 -29 819 -76 q 1122 101 1039 18 q 1251 293 1204 183 q 1299 528 1299 403 q 1251 763 1299 653 q 1122 955 1204 872 q 929 1085 1039 1038 q 694 1132 819 1132 q 458 1084 568 1132 q 267 954 349 1036 q 138 762 185 872 q 90 528 90 651 q 138 293 90 403 q 267 101 185 183 q 460 -29 350 18 q 694 -76 569 -76 m 724 256 q 625 274 671 256 q 544 326 579 292 q 490 410 510 360 q 471 522 471 460 q 490 633 471 583 q 542 716 510 682 q 619 769 575 750 q 710 788 663 788 q 809 766 768 788 q 875 710 850 744 q 911 635 900 676 q 922 551 922 593 q 920 522 922 533 q 915 493 918 511 l 586 493 q 634 386 593 422 q 739 350 675 350 q 803 360 772 350 q 861 386 833 369 l 904 313 q 820 272 867 289 q 724 256 774 256 m 818 565 q 813 613 818 589 q 794 654 807 636 q 762 683 782 672 q 713 694 742 694 q 586 565 603 694 l 818 565 z "},"ⓕ":{"ha":1389,"x_min":44,"x_max":1344,"o":"m 694 1178 q 947 1126 829 1178 q 1153 987 1065 1075 q 1293 781 1242 899 q 1344 528 1344 663 q 1293 274 1344 393 q 1153 67 1242 156 q 946 -72 1064 -21 q 694 -122 828 -122 q 442 -71 560 -122 q 235 69 324 -19 q 96 275 147 157 q 44 528 44 393 q 96 781 44 663 q 235 987 147 899 q 442 1126 324 1075 q 694 1178 560 1178 m 694 -76 q 929 -29 819 -76 q 1122 101 1039 18 q 1251 293 1204 183 q 1299 528 1299 403 q 1251 763 1299 653 q 1122 955 1204 872 q 929 1085 1039 1038 q 694 1132 819 1132 q 458 1084 568 1132 q 267 954 349 1036 q 138 762 185 872 q 90 528 90 651 q 138 293 90 403 q 267 101 185 183 q 460 -29 350 18 q 694 -76 569 -76 m 601 761 q 611 837 601 801 q 641 898 621 872 q 693 939 661 924 q 769 954 725 954 q 822 949 799 954 q 865 936 846 944 l 842 850 q 786 858 821 858 q 719 767 719 858 l 719 713 l 822 713 l 822 618 l 719 618 l 719 204 l 601 204 l 601 618 l 531 618 l 531 707 l 601 713 l 601 761 z "},"ⓖ":{"ha":1389,"x_min":44,"x_max":1344,"o":"m 694 -122 q 442 -71 560 -122 q 235 69 324 -19 q 96 275 147 157 q 44 528 44 393 q 96 781 44 663 q 235 987 147 899 q 442 1126 324 1075 q 694 1178 560 1178 q 947 1126 829 1178 q 1153 987 1065 1075 q 1293 781 1242 899 q 1344 528 1344 663 q 1293 274 1344 393 q 1153 67 1242 156 q 946 -72 1064 -21 q 694 -122 828 -122 m 694 -76 q 929 -29 819 -76 q 1122 101 1039 18 q 1251 293 1204 183 q 1299 528 1299 403 q 1251 763 1299 653 q 1122 955 1204 872 q 929 1085 1039 1038 q 694 1132 819 1132 q 458 1084 568 1132 q 267 954 349 1036 q 138 762 185 872 q 90 528 90 651 q 138 293 90 403 q 267 101 185 183 q 460 -29 350 18 q 694 -76 569 -76 m 678 119 q 525 152 585 119 q 465 253 465 185 q 539 357 465 317 l 539 364 q 504 397 517 378 q 492 449 492 417 q 509 501 492 476 q 550 540 526 525 l 550 547 q 501 600 521 565 q 482 681 482 635 q 499 759 482 725 q 543 816 515 793 q 608 851 571 839 q 685 864 644 864 q 764 850 738 864 l 943 850 l 943 760 l 851 760 q 873 724 865 747 q 881 676 881 700 q 865 602 881 635 q 823 547 850 569 q 760 514 796 525 q 685 503 725 503 q 651 506 668 503 q 614 517 633 508 q 596 495 603 506 q 589 468 589 485 q 607 435 589 446 q 671 424 625 424 l 765 424 q 906 394 861 424 q 951 299 951 365 q 932 228 951 261 q 877 172 913 196 q 791 133 842 147 q 678 119 740 119 m 685 579 q 749 606 724 579 q 775 681 775 633 q 749 755 775 729 q 685 781 724 781 q 619 755 644 781 q 593 681 593 729 q 619 606 593 633 q 685 579 644 579 m 697 199 q 799 224 760 199 q 838 281 838 249 q 814 319 838 308 q 746 329 790 329 l 674 329 q 640 330 658 329 q 606 336 622 331 q 565 271 565 307 q 600 217 565 235 q 697 199 635 199 z "},"ⓗ":{"ha":1389,"x_min":44,"x_max":1344,"o":"m 694 -122 q 442 -71 560 -122 q 235 69 324 -19 q 96 275 147 157 q 44 528 44 393 q 96 781 44 663 q 235 987 147 899 q 442 1126 324 1075 q 694 1178 560 1178 q 947 1126 829 1178 q 1153 987 1065 1075 q 1293 781 1242 899 q 1344 528 1344 663 q 1293 274 1344 393 q 1153 67 1242 156 q 946 -72 1064 -21 q 694 -122 828 -122 m 694 -76 q 929 -29 819 -76 q 1122 101 1039 18 q 1251 293 1204 183 q 1299 528 1299 403 q 1251 763 1299 653 q 1122 955 1204 872 q 929 1085 1039 1038 q 694 1132 819 1132 q 458 1084 568 1132 q 267 954 349 1036 q 138 762 185 872 q 90 528 90 651 q 138 293 90 403 q 267 101 185 183 q 460 -29 350 18 q 694 -76 569 -76 m 490 933 l 608 933 l 608 746 l 601 644 q 674 701 632 676 q 768 725 717 725 q 891 669 856 725 q 926 522 926 614 l 926 204 l 810 204 l 810 506 q 793 592 810 561 q 724 624 776 624 q 669 608 696 624 q 608 558 642 592 l 608 204 l 490 204 l 490 933 z "},"ⓘ":{"ha":1389,"x_min":44,"x_max":1344,"o":"m 694 -122 q 442 -71 560 -122 q 235 69 324 -19 q 96 275 147 157 q 44 528 44 393 q 96 781 44 663 q 235 987 147 899 q 442 1126 324 1075 q 694 1178 560 1178 q 947 1126 829 1178 q 1153 987 1065 1075 q 1293 781 1242 899 q 1344 528 1344 663 q 1293 274 1344 393 q 1153 67 1242 156 q 946 -72 1064 -21 q 694 -122 828 -122 m 694 -76 q 929 -29 819 -76 q 1122 101 1039 18 q 1251 293 1204 183 q 1299 528 1299 403 q 1251 763 1299 653 q 1122 955 1204 872 q 929 1085 1039 1038 q 694 1132 819 1132 q 458 1084 568 1132 q 267 954 349 1036 q 138 762 185 872 q 90 528 90 651 q 138 293 90 403 q 267 101 185 183 q 460 -29 350 18 q 694 -76 569 -76 m 696 800 q 643 819 664 800 q 622 868 622 838 q 643 917 622 897 q 696 936 664 936 q 751 917 729 936 q 772 868 772 897 q 751 819 772 838 q 696 800 729 800 m 636 713 l 754 713 l 754 204 l 636 204 l 636 713 z "},"ⓙ":{"ha":1389,"x_min":44,"x_max":1344,"o":"m 694 -122 q 442 -71 560 -122 q 235 69 324 -19 q 96 275 147 157 q 44 528 44 393 q 96 781 44 663 q 235 987 147 899 q 442 1126 324 1075 q 694 1178 560 1178 q 947 1126 829 1178 q 1153 987 1065 1075 q 1293 781 1242 899 q 1344 528 1344 663 q 1293 274 1344 393 q 1153 67 1242 156 q 946 -72 1064 -21 q 694 -122 828 -122 m 694 -76 q 929 -29 819 -76 q 1122 101 1039 18 q 1251 293 1204 183 q 1299 528 1299 403 q 1251 763 1299 653 q 1122 955 1204 872 q 929 1085 1039 1038 q 694 1132 819 1132 q 458 1084 568 1132 q 267 954 349 1036 q 138 762 185 872 q 90 528 90 651 q 138 293 90 403 q 267 101 185 183 q 460 -29 350 18 q 694 -76 569 -76 m 711 856 q 657 874 678 856 q 636 924 636 893 q 657 972 636 953 q 711 992 678 992 q 765 972 743 992 q 786 924 786 953 q 765 874 786 893 q 711 856 743 856 m 608 40 q 562 43 581 40 q 526 53 543 46 l 549 143 q 569 138 560 140 q 593 136 578 136 q 638 158 626 136 q 650 224 650 179 l 650 768 l 768 768 l 768 231 q 733 93 768 146 q 608 40 697 40 z "},"ⓚ":{"ha":1389,"x_min":44,"x_max":1344,"o":"m 694 -122 q 442 -71 560 -122 q 235 69 324 -19 q 96 275 147 157 q 44 528 44 393 q 96 781 44 663 q 235 987 147 899 q 442 1126 324 1075 q 694 1178 560 1178 q 947 1126 829 1178 q 1153 987 1065 1075 q 1293 781 1242 899 q 1344 528 1344 663 q 1293 274 1344 393 q 1153 67 1242 156 q 946 -72 1064 -21 q 694 -122 828 -122 m 694 -76 q 929 -29 819 -76 q 1122 101 1039 18 q 1251 293 1204 183 q 1299 528 1299 403 q 1251 763 1299 653 q 1122 955 1204 872 q 929 1085 1039 1038 q 694 1132 819 1132 q 458 1084 568 1132 q 267 954 349 1036 q 138 762 185 872 q 90 528 90 651 q 138 293 90 403 q 267 101 185 183 q 460 -29 350 18 q 694 -76 569 -76 m 507 933 l 625 933 l 625 479 l 631 479 l 817 713 l 949 713 l 769 503 l 967 204 l 838 204 l 700 424 l 625 332 l 625 204 l 507 204 l 507 933 z "},"ⓛ":{"ha":1389,"x_min":44,"x_max":1344,"o":"m 694 -122 q 442 -71 560 -122 q 235 69 324 -19 q 96 275 147 157 q 44 528 44 393 q 96 781 44 663 q 235 987 147 899 q 442 1126 324 1075 q 694 1178 560 1178 q 947 1126 829 1178 q 1153 987 1065 1075 q 1293 781 1242 899 q 1344 528 1344 663 q 1293 274 1344 393 q 1153 67 1242 156 q 946 -72 1064 -21 q 694 -122 828 -122 m 694 -76 q 929 -29 819 -76 q 1122 101 1039 18 q 1251 293 1204 183 q 1299 528 1299 403 q 1251 763 1299 653 q 1122 955 1204 872 q 929 1085 1039 1038 q 694 1132 819 1132 q 458 1084 568 1132 q 267 954 349 1036 q 138 762 185 872 q 90 528 90 651 q 138 293 90 403 q 267 101 185 183 q 460 -29 350 18 q 694 -76 569 -76 m 739 192 q 647 231 672 192 q 621 338 621 271 l 621 933 l 739 933 l 739 329 q 747 298 739 307 q 767 289 756 289 q 775 289 771 289 q 786 292 779 289 l 803 203 q 776 196 790 200 q 739 192 763 192 z "},"ⓜ":{"ha":1389,"x_min":44,"x_max":1344,"o":"m 694 -122 q 442 -71 560 -122 q 235 69 324 -19 q 96 275 147 157 q 44 528 44 393 q 96 781 44 663 q 235 987 147 899 q 442 1126 324 1075 q 694 1178 560 1178 q 947 1126 829 1178 q 1153 987 1065 1075 q 1293 781 1242 899 q 1344 528 1344 663 q 1293 274 1344 393 q 1153 67 1242 156 q 946 -72 1064 -21 q 694 -122 828 -122 m 694 -76 q 929 -29 819 -76 q 1122 101 1039 18 q 1251 293 1204 183 q 1299 528 1299 403 q 1251 763 1299 653 q 1122 955 1204 872 q 929 1085 1039 1038 q 694 1132 819 1132 q 458 1084 568 1132 q 267 954 349 1036 q 138 762 185 872 q 90 528 90 651 q 138 293 90 403 q 267 101 185 183 q 460 -29 350 18 q 694 -76 569 -76 m 329 776 l 425 776 l 436 706 l 439 706 q 508 763 471 739 q 599 788 546 788 q 740 696 703 788 q 815 760 775 732 q 907 788 854 788 q 1029 732 992 788 q 1067 585 1067 676 l 1067 268 l 947 268 l 947 569 q 931 656 947 625 q 864 688 914 688 q 758 622 819 688 l 758 268 l 639 268 l 639 569 q 622 656 639 625 q 556 688 604 688 q 449 622 510 688 l 449 268 l 329 268 l 329 776 z "},"ⓝ":{"ha":1389,"x_min":44,"x_max":1344,"o":"m 694 -122 q 442 -71 560 -122 q 235 69 324 -19 q 96 275 147 157 q 44 528 44 393 q 96 781 44 663 q 235 987 147 899 q 442 1126 324 1075 q 694 1178 560 1178 q 947 1126 829 1178 q 1153 987 1065 1075 q 1293 781 1242 899 q 1344 528 1344 663 q 1293 274 1344 393 q 1153 67 1242 156 q 946 -72 1064 -21 q 694 -122 828 -122 m 694 -76 q 929 -29 819 -76 q 1122 101 1039 18 q 1251 293 1204 183 q 1299 528 1299 403 q 1251 763 1299 653 q 1122 955 1204 872 q 929 1085 1039 1038 q 694 1132 819 1132 q 458 1084 568 1132 q 267 954 349 1036 q 138 762 185 872 q 90 528 90 651 q 138 293 90 403 q 267 101 185 183 q 460 -29 350 18 q 694 -76 569 -76 m 479 776 l 574 776 l 585 706 l 589 706 q 664 763 622 739 q 757 788 706 788 q 881 732 846 788 q 917 585 917 676 l 917 268 l 799 268 l 799 569 q 783 656 799 625 q 715 688 767 688 q 658 671 686 688 q 597 622 631 654 l 597 268 l 479 268 l 479 776 z "},"ⓞ":{"ha":1389,"x_min":44,"x_max":1344,"o":"m 694 -122 q 442 -71 560 -122 q 235 69 324 -19 q 96 275 147 157 q 44 528 44 393 q 96 781 44 663 q 235 987 147 899 q 442 1126 324 1075 q 694 1178 560 1178 q 947 1126 829 1178 q 1153 987 1065 1075 q 1293 781 1242 899 q 1344 528 1344 663 q 1293 274 1344 393 q 1153 67 1242 156 q 946 -72 1064 -21 q 694 -122 828 -122 m 694 -76 q 929 -29 819 -76 q 1122 101 1039 18 q 1251 293 1204 183 q 1299 528 1299 403 q 1251 763 1299 653 q 1122 955 1204 872 q 929 1085 1039 1038 q 694 1132 819 1132 q 458 1084 568 1132 q 267 954 349 1036 q 138 762 185 872 q 90 528 90 651 q 138 293 90 403 q 267 101 185 183 q 460 -29 350 18 q 694 -76 569 -76 m 694 256 q 601 274 646 256 q 524 326 557 292 q 470 409 490 360 q 450 521 450 458 q 470 634 450 585 q 524 717 490 683 q 601 769 557 751 q 694 788 646 788 q 787 769 743 788 q 864 717 831 751 q 917 634 897 683 q 938 521 938 585 q 917 409 938 458 q 864 326 897 360 q 787 274 831 292 q 694 256 743 256 m 694 353 q 783 399 753 353 q 814 521 814 446 q 783 646 814 600 q 694 692 753 692 q 605 646 636 692 q 574 521 574 600 q 605 399 574 446 q 694 353 636 353 z "},"ⓟ":{"ha":1389,"x_min":44,"x_max":1344,"o":"m 694 -122 q 442 -71 560 -122 q 235 69 324 -19 q 96 275 147 157 q 44 528 44 393 q 96 781 44 663 q 235 987 147 899 q 442 1126 324 1075 q 694 1178 560 1178 q 947 1126 829 1178 q 1153 987 1065 1075 q 1293 781 1242 899 q 1344 528 1344 663 q 1293 274 1344 393 q 1153 67 1242 156 q 946 -72 1064 -21 q 694 -122 828 -122 m 694 -76 q 929 -29 819 -76 q 1122 101 1039 18 q 1251 293 1204 183 q 1299 528 1299 403 q 1251 763 1299 653 q 1122 955 1204 872 q 929 1085 1039 1038 q 694 1132 819 1132 q 458 1084 568 1132 q 267 954 349 1036 q 138 762 185 872 q 90 528 90 651 q 138 293 90 403 q 267 101 185 183 q 460 -29 350 18 q 694 -76 569 -76 m 492 851 l 586 851 l 597 794 l 601 794 q 671 843 631 822 q 754 864 711 864 q 904 794 851 864 q 957 607 957 725 q 939 489 957 540 q 891 402 921 438 q 822 349 861 367 q 740 331 783 331 q 670 346 707 331 q 604 389 633 361 l 610 289 l 610 147 l 492 147 l 492 851 m 717 428 q 801 472 767 428 q 835 604 835 517 q 808 724 835 683 q 724 765 782 765 q 610 708 671 765 l 610 469 q 665 438 638 447 q 717 428 693 428 z "},"ⓠ":{"ha":1389,"x_min":44,"x_max":1344,"o":"m 694 -122 q 442 -71 560 -122 q 235 69 324 -19 q 96 275 147 157 q 44 528 44 393 q 96 781 44 663 q 235 987 147 899 q 442 1126 324 1075 q 694 1178 560 1178 q 947 1126 829 1178 q 1153 987 1065 1075 q 1293 781 1242 899 q 1344 528 1344 663 q 1293 274 1344 393 q 1153 67 1242 156 q 946 -72 1064 -21 q 694 -122 828 -122 m 694 -76 q 929 -29 819 -76 q 1122 101 1039 18 q 1251 293 1204 183 q 1299 528 1299 403 q 1251 763 1299 653 q 1122 955 1204 872 q 929 1085 1039 1038 q 694 1132 819 1132 q 458 1084 568 1132 q 267 954 349 1036 q 138 762 185 872 q 90 528 90 651 q 138 293 90 403 q 267 101 185 183 q 460 -29 350 18 q 694 -76 569 -76 m 792 303 l 797 392 q 733 348 769 365 q 660 331 697 331 q 502 401 560 331 q 444 597 444 471 q 463 709 444 660 q 513 793 482 758 q 583 846 543 828 q 664 864 622 864 q 803 799 742 864 l 807 799 l 818 851 l 910 851 l 910 147 l 792 147 l 792 303 m 686 431 q 739 442 714 431 q 792 482 764 454 l 792 721 q 738 755 764 744 q 685 765 711 765 q 603 722 639 765 q 567 600 567 679 q 686 431 567 431 z "},"ⓡ":{"ha":1389,"x_min":44,"x_max":1344,"o":"m 694 -122 q 442 -71 560 -122 q 235 69 324 -19 q 96 275 147 157 q 44 528 44 393 q 96 781 44 663 q 235 987 147 899 q 442 1126 324 1075 q 694 1178 560 1178 q 947 1126 829 1178 q 1153 987 1065 1075 q 1293 781 1242 899 q 1344 528 1344 663 q 1293 274 1344 393 q 1153 67 1242 156 q 946 -72 1064 -21 q 694 -122 828 -122 m 694 -76 q 929 -29 819 -76 q 1122 101 1039 18 q 1251 293 1204 183 q 1299 528 1299 403 q 1251 763 1299 653 q 1122 955 1204 872 q 929 1085 1039 1038 q 694 1132 819 1132 q 458 1084 568 1132 q 267 954 349 1036 q 138 762 185 872 q 90 528 90 651 q 138 293 90 403 q 267 101 185 183 q 460 -29 350 18 q 694 -76 569 -76 m 564 776 l 660 776 l 671 688 l 676 688 q 819 788 733 788 q 881 778 863 788 l 858 672 q 835 678 849 675 q 806 681 821 681 q 741 658 774 681 q 683 578 708 636 l 683 268 l 564 268 l 564 776 z "},"ⓢ":{"ha":1389,"x_min":44,"x_max":1344,"o":"m 694 -122 q 442 -71 560 -122 q 235 69 324 -19 q 96 275 147 157 q 44 528 44 393 q 96 781 44 663 q 235 987 147 899 q 442 1126 324 1075 q 694 1178 560 1178 q 947 1126 829 1178 q 1153 987 1065 1075 q 1293 781 1242 899 q 1344 528 1344 663 q 1293 274 1344 393 q 1153 67 1242 156 q 946 -72 1064 -21 q 694 -122 828 -122 m 694 -76 q 929 -29 819 -76 q 1122 101 1039 18 q 1251 293 1204 183 q 1299 528 1299 403 q 1251 763 1299 653 q 1122 955 1204 872 q 929 1085 1039 1038 q 694 1132 819 1132 q 458 1084 568 1132 q 267 954 349 1036 q 138 762 185 872 q 90 528 90 651 q 138 293 90 403 q 267 101 185 183 q 460 -29 350 18 q 694 -76 569 -76 m 694 256 q 588 276 640 256 q 497 325 536 296 l 553 401 q 624 360 589 375 q 696 346 658 346 q 757 363 736 346 q 778 407 778 379 q 769 435 778 424 q 744 454 760 446 q 708 470 728 463 q 668 486 689 478 q 616 510 642 497 q 569 540 590 522 q 536 582 549 558 q 524 639 524 606 q 572 744 524 701 q 706 788 621 788 q 805 769 764 788 q 878 728 846 751 l 822 654 q 768 686 794 674 q 710 699 742 699 q 654 682 672 699 q 636 643 636 665 q 645 617 636 628 q 669 597 654 606 q 704 582 685 589 q 744 567 724 575 q 795 545 769 557 q 842 516 821 533 q 876 474 863 499 q 889 415 889 450 q 838 300 889 344 q 694 256 786 256 z "},"ⓣ":{"ha":1389,"x_min":44,"x_max":1344,"o":"m 694 -122 q 442 -71 560 -122 q 235 69 324 -19 q 96 275 147 157 q 44 528 44 393 q 96 781 44 663 q 235 987 147 899 q 442 1126 324 1075 q 694 1178 560 1178 q 947 1126 829 1178 q 1153 987 1065 1075 q 1293 781 1242 899 q 1344 528 1344 663 q 1293 274 1344 393 q 1153 67 1242 156 q 946 -72 1064 -21 q 694 -122 828 -122 m 694 -76 q 929 -29 819 -76 q 1122 101 1039 18 q 1251 293 1204 183 q 1299 528 1299 403 q 1251 763 1299 653 q 1122 955 1204 872 q 929 1085 1039 1038 q 694 1132 819 1132 q 458 1084 568 1132 q 267 954 349 1036 q 138 762 185 872 q 90 528 90 651 q 138 293 90 403 q 267 101 185 183 q 460 -29 350 18 q 694 -76 569 -76 m 753 232 q 628 284 664 232 q 592 418 592 336 l 592 657 l 518 657 l 518 747 l 596 753 l 611 890 l 711 890 l 711 753 l 843 753 l 843 657 l 711 657 l 711 418 q 785 328 711 328 q 838 338 819 328 l 860 251 q 812 238 839 244 q 753 232 785 232 z "},"ⓤ":{"ha":1389,"x_min":44,"x_max":1344,"o":"m 694 -122 q 442 -71 560 -122 q 235 69 324 -19 q 96 275 147 157 q 44 528 44 393 q 96 781 44 663 q 235 987 147 899 q 442 1126 324 1075 q 694 1178 560 1178 q 947 1126 829 1178 q 1153 987 1065 1075 q 1293 781 1242 899 q 1344 528 1344 663 q 1293 274 1344 393 q 1153 67 1242 156 q 946 -72 1064 -21 q 694 -122 828 -122 m 694 -76 q 929 -29 819 -76 q 1122 101 1039 18 q 1251 293 1204 183 q 1299 528 1299 403 q 1251 763 1299 653 q 1122 955 1204 872 q 929 1085 1039 1038 q 694 1132 819 1132 q 458 1084 568 1132 q 267 954 349 1036 q 138 762 185 872 q 90 528 90 651 q 138 293 90 403 q 267 101 185 183 q 460 -29 350 18 q 694 -76 569 -76 m 635 256 q 511 310 547 256 q 475 456 475 364 l 475 776 l 594 776 l 594 472 q 610 388 594 417 q 678 358 625 358 q 734 373 706 358 q 796 422 763 388 l 796 776 l 914 776 l 914 268 l 818 268 l 806 336 l 801 336 q 729 281 771 306 q 635 256 688 256 z "},"ⓥ":{"ha":1389,"x_min":44,"x_max":1344,"o":"m 694 -122 q 442 -71 560 -122 q 235 69 324 -19 q 96 275 147 157 q 44 528 44 393 q 96 781 44 663 q 235 987 147 899 q 442 1126 324 1075 q 694 1178 560 1178 q 947 1126 829 1178 q 1153 987 1065 1075 q 1293 781 1242 899 q 1344 528 1344 663 q 1293 274 1344 393 q 1153 67 1242 156 q 946 -72 1064 -21 q 694 -122 828 -122 m 694 -76 q 929 -29 819 -76 q 1122 101 1039 18 q 1251 293 1204 183 q 1299 528 1299 403 q 1251 763 1299 653 q 1122 955 1204 872 q 929 1085 1039 1038 q 694 1132 819 1132 q 458 1084 568 1132 q 267 954 349 1036 q 138 762 185 872 q 90 528 90 651 q 138 293 90 403 q 267 101 185 183 q 460 -29 350 18 q 694 -76 569 -76 m 447 776 l 567 776 l 649 514 l 694 360 l 699 360 l 826 776 l 943 776 l 765 268 l 626 268 l 447 776 z "},"ⓦ":{"ha":1389,"x_min":44,"x_max":1344,"o":"m 694 -122 q 442 -71 560 -122 q 235 69 324 -19 q 96 275 147 157 q 44 528 44 393 q 96 781 44 663 q 235 987 147 899 q 442 1126 324 1075 q 694 1178 560 1178 q 947 1126 829 1178 q 1153 987 1065 1075 q 1293 781 1242 899 q 1344 528 1344 663 q 1293 274 1344 393 q 1153 67 1242 156 q 946 -72 1064 -21 q 694 -122 828 -122 m 694 -76 q 929 -29 819 -76 q 1122 101 1039 18 q 1251 293 1204 183 q 1299 528 1299 403 q 1251 763 1299 653 q 1122 955 1204 872 q 929 1085 1039 1038 q 694 1132 819 1132 q 458 1084 568 1132 q 267 954 349 1036 q 138 762 185 872 q 90 528 90 651 q 138 293 90 403 q 267 101 185 183 q 460 -29 350 18 q 694 -76 569 -76 m 329 776 l 451 776 l 511 513 l 539 365 l 544 365 l 576 513 l 646 776 l 747 776 l 819 513 l 854 365 l 858 365 l 888 513 l 949 776 l 1061 776 l 929 268 l 788 268 l 728 504 l 697 647 l 693 647 l 664 504 l 606 268 l 467 268 l 329 776 z "},"ⓧ":{"ha":1389,"x_min":44,"x_max":1344,"o":"m 694 -122 q 442 -71 560 -122 q 235 69 324 -19 q 96 275 147 157 q 44 528 44 393 q 96 781 44 663 q 235 987 147 899 q 442 1126 324 1075 q 694 1178 560 1178 q 947 1126 829 1178 q 1153 987 1065 1075 q 1293 781 1242 899 q 1344 528 1344 663 q 1293 274 1344 393 q 1153 67 1242 156 q 946 -72 1064 -21 q 694 -122 828 -122 m 694 -76 q 929 -29 819 -76 q 1122 101 1039 18 q 1251 293 1204 183 q 1299 528 1299 403 q 1251 763 1299 653 q 1122 955 1204 872 q 929 1085 1039 1038 q 694 1132 819 1132 q 458 1084 568 1132 q 267 954 349 1036 q 138 762 185 872 q 90 528 90 651 q 138 293 90 403 q 267 101 185 183 q 460 -29 350 18 q 694 -76 569 -76 m 622 532 l 468 776 l 597 776 l 703 600 l 708 600 l 797 776 l 921 776 l 769 521 l 932 268 l 803 268 l 690 450 l 685 450 l 635 367 l 581 268 l 456 268 l 622 532 z "},"ⓨ":{"ha":1389,"x_min":44,"x_max":1344,"o":"m 694 -122 q 442 -71 560 -122 q 235 69 324 -19 q 96 275 147 157 q 44 528 44 393 q 96 781 44 663 q 235 987 147 899 q 442 1126 324 1075 q 694 1178 560 1178 q 947 1126 829 1178 q 1153 987 1065 1075 q 1293 781 1242 899 q 1344 528 1344 663 q 1293 274 1344 393 q 1153 67 1242 156 q 946 -72 1064 -21 q 694 -122 828 -122 m 694 -76 q 929 -29 819 -76 q 1122 101 1039 18 q 1251 293 1204 183 q 1299 528 1299 403 q 1251 763 1299 653 q 1122 955 1204 872 q 929 1085 1039 1038 q 694 1132 819 1132 q 458 1084 568 1132 q 267 954 349 1036 q 138 762 185 872 q 90 528 90 651 q 138 293 90 403 q 267 101 185 183 q 460 -29 350 18 q 694 -76 569 -76 m 563 140 q 494 150 515 140 l 517 242 q 538 236 529 238 q 553 235 546 235 q 619 260 593 235 q 658 324 646 285 l 665 353 l 464 851 l 585 851 l 674 604 q 696 533 685 568 q 718 458 707 497 l 724 458 q 745 531 735 496 q 767 604 756 567 l 840 851 l 956 851 l 772 325 q 694 189 742 238 q 563 140 647 140 z "},"ⓩ":{"ha":1389,"x_min":44,"x_max":1344,"o":"m 694 -122 q 442 -71 560 -122 q 235 69 324 -19 q 96 275 147 157 q 44 528 44 393 q 96 781 44 663 q 235 987 147 899 q 442 1126 324 1075 q 694 1178 560 1178 q 947 1126 829 1178 q 1153 987 1065 1075 q 1293 781 1242 899 q 1344 528 1344 663 q 1293 274 1344 393 q 1153 67 1242 156 q 946 -72 1064 -21 q 694 -122 828 -122 m 694 -76 q 929 -29 819 -76 q 1122 101 1039 18 q 1251 293 1204 183 q 1299 528 1299 403 q 1251 763 1299 653 q 1122 955 1204 872 q 929 1085 1039 1038 q 694 1132 819 1132 q 458 1084 568 1132 q 267 954 349 1036 q 138 762 185 872 q 90 528 90 651 q 138 293 90 403 q 267 101 185 183 q 460 -29 350 18 q 694 -76 569 -76 m 499 332 l 744 681 l 526 681 l 526 776 l 893 776 l 893 710 l 649 363 l 900 363 l 900 268 l 499 268 l 499 332 z "},"▒":{"ha":1389,"x_min":0,"x_max":1389,"o":"m 1042 1222 l 1111 1222 l 1389 944 l 1389 875 l 1042 1222 m 694 1222 l 764 1222 l 1389 597 l 1389 528 l 694 1222 m 347 1222 l 417 1222 l 1389 250 l 1389 181 l 347 1222 m 0 1222 l 69 1222 l 1389 -97 l 1389 -167 l 0 1222 m 0 875 l 0 944 l 1111 -167 l 1042 -167 l 0 875 m 0 528 l 0 597 l 764 -167 l 694 -167 l 0 528 m 0 181 l 0 250 l 417 -167 l 347 -167 l 0 181 m 0 -97 l 69 -167 l 0 -167 l 0 -97 z "},"■":{"ha":1389,"x_min":139,"x_max":1250,"o":"m 1250 1083 l 1250 -28 l 139 -28 l 139 1083 l 1250 1083 z "},"□":{"ha":1389,"x_min":139,"x_max":1250,"o":"m 1250 1083 l 1250 -28 l 139 -28 l 139 1083 l 1250 1083 m 194 28 l 1194 28 l 1194 1028 l 194 1028 l 194 28 z "},"▣":{"ha":1389,"x_min":139,"x_max":1250,"o":"m 1250 1083 l 1250 -28 l 139 -28 l 139 1083 l 1250 1083 m 194 28 l 1194 28 l 1194 1028 l 194 1028 l 194 28 m 456 767 l 933 767 l 933 289 l 456 289 l 456 767 z "},"▤":{"ha":1389,"x_min":139,"x_max":1250,"o":"m 1250 1083 l 1250 -28 l 139 -28 l 139 1083 l 1250 1083 m 194 1028 l 194 819 l 1194 819 l 1194 1028 l 194 1028 m 1194 556 l 1194 764 l 194 764 l 194 556 l 1194 556 m 194 500 l 194 292 l 1194 292 l 1194 500 l 194 500 m 1194 28 l 1194 236 l 194 236 l 194 28 l 1194 28 z "},"▥":{"ha":1389,"x_min":139,"x_max":1250,"o":"m 1250 1083 l 1250 -28 l 139 -28 l 139 1083 l 1250 1083 m 1194 1028 l 986 1028 l 986 28 l 1194 28 l 1194 1028 m 194 28 l 403 28 l 403 1028 l 194 1028 l 194 28 m 667 1028 l 458 1028 l 458 28 l 667 28 l 667 1028 m 722 28 l 931 28 l 931 1028 l 722 1028 l 722 28 z "},"▦":{"ha":1389,"x_min":139,"x_max":1250,"o":"m 1250 1083 l 1250 -28 l 139 -28 l 139 1083 l 1250 1083 m 194 1028 l 194 819 l 403 819 l 403 1028 l 194 1028 m 667 1028 l 458 1028 l 458 819 l 667 819 l 667 1028 m 931 819 l 931 1028 l 722 1028 l 722 819 l 931 819 m 1194 1028 l 986 1028 l 986 819 l 1194 819 l 1194 1028 m 1194 556 l 1194 764 l 986 764 l 986 556 l 1194 556 m 403 764 l 194 764 l 194 556 l 403 556 l 403 764 m 458 764 l 458 556 l 667 556 l 667 764 l 458 764 m 722 764 l 722 556 l 931 556 l 931 764 l 722 764 m 986 292 l 1194 292 l 1194 500 l 986 500 l 986 292 m 931 292 l 931 500 l 722 500 l 722 292 l 931 292 m 458 292 l 667 292 l 667 500 l 458 500 l 458 292 m 194 500 l 194 292 l 403 292 l 403 500 l 194 500 m 1194 28 l 1194 236 l 986 236 l 986 28 l 1194 28 m 194 28 l 403 28 l 403 236 l 194 236 l 194 28 m 722 28 l 931 28 l 931 236 l 722 236 l 722 28 m 458 236 l 458 28 l 667 28 l 667 236 l 458 236 z "},"▧":{"ha":1389,"x_min":139,"x_max":1250,"o":"m 1250 1083 l 1250 -28 l 139 -28 l 139 1083 l 1250 1083 m 1194 1028 l 1024 1028 l 1194 857 l 1194 1028 m 683 1028 l 497 1028 l 1194 331 l 1194 517 l 683 1028 m 1194 776 l 944 1028 l 763 1028 l 1194 596 l 1194 776 m 1194 65 l 1194 254 l 421 1028 l 232 1028 l 1194 65 m 968 28 l 1154 28 l 194 989 l 194 800 l 968 28 m 704 28 l 890 28 l 194 722 l 194 536 l 704 28 m 194 275 l 443 28 l 626 28 l 194 458 l 194 275 m 194 28 l 365 28 l 194 197 l 194 28 z "},"▨":{"ha":1389,"x_min":139,"x_max":1250,"o":"m 1250 1083 l 1250 -28 l 139 -28 l 139 1083 l 1250 1083 m 194 1028 l 194 854 l 368 1028 l 194 1028 m 194 251 l 194 61 l 1160 1028 l 972 1028 l 194 251 m 629 1028 l 446 1028 l 194 776 l 194 593 l 629 1028 m 194 515 l 194 329 l 894 1028 l 708 1028 l 194 515 m 1194 797 l 1194 985 l 238 28 l 426 28 l 1194 797 m 1194 535 l 1194 719 l 503 28 l 689 28 l 1194 535 m 768 28 l 949 28 l 1194 274 l 1194 454 l 768 28 m 1194 28 l 1194 193 l 1029 28 l 1194 28 z "},"▩":{"ha":1389,"x_min":139,"x_max":1250,"o":"m 1250 1083 l 1250 -28 l 139 -28 l 139 1083 l 1250 1083 m 1092 960 l 1160 1028 l 1024 1028 l 1092 960 m 894 1028 l 763 1028 l 828 963 l 894 1028 m 629 1028 l 497 1028 l 564 963 l 629 1028 m 368 1028 l 232 1028 l 300 960 l 368 1028 m 789 922 l 696 1015 l 603 922 l 696 829 l 789 922 m 525 924 l 433 1015 l 339 921 l 431 829 l 525 924 m 1051 919 l 958 1014 l 867 924 l 961 829 l 1051 919 m 194 989 l 194 854 l 261 921 l 194 989 m 1194 985 l 1131 921 l 1194 857 l 1194 985 m 564 885 l 469 790 l 563 697 l 657 792 l 564 885 m 922 789 l 828 883 l 735 790 l 829 696 l 922 789 m 300 882 l 207 789 l 299 697 l 392 790 l 300 882 m 1185 788 l 1090 881 l 1000 790 l 1094 696 l 1185 788 m 696 564 l 790 658 l 696 753 l 601 658 l 696 564 m 1054 657 l 961 751 l 868 658 l 961 564 l 1054 657 m 338 657 l 431 564 l 525 658 l 432 751 l 338 657 m 194 593 l 260 658 l 194 722 l 194 593 m 1194 719 l 1133 658 l 1194 596 l 1194 719 m 564 619 l 469 525 l 564 431 l 658 525 l 564 619 m 829 431 l 924 525 l 829 619 l 735 525 l 829 431 m 299 618 l 206 525 l 299 433 l 392 525 l 299 618 m 1093 618 l 1000 525 l 1093 432 l 1186 525 l 1093 618 m 868 393 l 960 300 l 1054 394 l 963 488 l 868 393 m 338 394 l 432 299 l 525 392 l 431 488 l 338 394 m 603 393 l 697 299 l 790 392 l 696 486 l 603 393 m 194 329 l 260 394 l 194 458 l 194 329 m 1194 454 l 1133 393 l 1194 331 l 1194 454 m 299 356 l 207 264 l 301 168 l 393 260 l 299 356 m 565 167 l 658 260 l 564 354 l 471 261 l 565 167 m 828 168 l 921 261 l 829 354 l 735 260 l 828 168 m 1090 169 l 1185 264 l 1094 354 l 1000 260 l 1090 169 m 340 131 l 435 36 l 526 128 l 432 222 l 340 131 m 868 128 l 958 38 l 1051 131 l 961 221 l 868 128 m 603 128 l 696 35 l 789 129 l 696 221 l 603 128 m 194 61 l 263 129 l 194 197 l 194 61 m 1194 65 l 1194 193 l 1131 129 l 1194 65 m 238 28 l 365 28 l 301 92 l 238 28 m 1029 28 l 1154 28 l 1092 90 l 1029 28 m 768 28 l 890 28 l 829 89 l 768 28 m 503 28 l 626 28 l 564 89 l 503 28 z "},"▲":{"ha":1389,"x_min":42,"x_max":1347,"o":"m 1347 17 l 42 17 l 694 1147 l 1347 17 z "},"△":{"ha":1389,"x_min":42,"x_max":1347,"o":"m 1347 17 l 42 17 l 694 1147 l 1347 17 m 138 72 l 1251 72 l 694 1036 l 138 72 z "},"▶":{"ha":1389,"x_min":169,"x_max":1300,"o":"m 169 -129 l 169 1176 l 1300 524 l 169 -129 z "},"▷":{"ha":1389,"x_min":169,"x_max":1300,"o":"m 169 -129 l 169 1176 l 1300 524 l 169 -129 m 225 1081 l 225 -33 l 1189 524 l 225 1081 z "},"▼":{"ha":1389,"x_min":42,"x_max":1347,"o":"m 1347 1039 l 694 -92 l 42 1039 l 1347 1039 z "},"▽":{"ha":1389,"x_min":42,"x_max":1347,"o":"m 1347 1039 l 694 -92 l 42 1039 l 1347 1039 m 138 983 l 694 19 l 1251 983 l 138 983 z "},"◀":{"ha":1389,"x_min":89,"x_max":1219,"o":"m 1219 -129 l 89 524 l 1219 1176 l 1219 -129 z "},"◁":{"ha":1389,"x_min":89,"x_max":1219,"o":"m 1219 -129 l 89 524 l 1219 1176 l 1219 -129 m 1164 1081 l 200 524 l 1164 -33 l 1164 1081 z "},"◆":{"ha":1389,"x_min":17,"x_max":1372,"o":"m 1372 528 l 694 -150 l 17 528 l 694 1206 l 1372 528 z "},"◇":{"ha":1389,"x_min":17,"x_max":1372,"o":"m 1372 528 l 694 -150 l 17 528 l 694 1206 l 1372 528 m 96 528 l 694 -71 l 1293 528 l 694 1126 l 96 528 z "},"◈":{"ha":1389,"x_min":17,"x_max":1372,"o":"m 1372 528 l 694 -150 l 17 528 l 694 1206 l 1372 528 m 96 528 l 694 -71 l 1293 528 l 694 1126 l 96 528 m 694 993 l 1158 528 l 694 64 l 229 528 l 694 993 z "},"○":{"ha":1389,"x_min":69,"x_max":1319,"o":"m 694 -97 q 451 -48 565 -97 q 253 86 338 1 q 119 285 168 171 q 69 528 69 399 q 119 771 69 657 q 253 969 168 885 q 451 1103 338 1054 q 694 1153 565 1153 q 938 1103 824 1153 q 1136 969 1051 1054 q 1270 771 1221 885 q 1319 528 1319 657 q 1270 285 1319 399 q 1136 86 1221 171 q 938 -48 1051 1 q 694 -97 824 -97 m 125 528 q 170 306 125 410 q 292 126 215 203 q 473 3 369 49 q 694 -42 576 -42 q 916 3 813 -42 q 1097 126 1019 49 q 1219 306 1174 203 q 1264 528 1264 410 q 1219 749 1264 646 q 1097 930 1174 853 q 916 1052 1019 1007 q 694 1097 813 1097 q 473 1052 576 1097 q 292 930 369 1007 q 170 749 215 853 q 125 528 125 646 z "},"◎":{"ha":1389,"x_min":69,"x_max":1319,"o":"m 69 528 q 119 771 69 657 q 253 969 168 885 q 451 1103 338 1054 q 694 1153 565 1153 q 938 1103 824 1153 q 1136 969 1051 1054 q 1270 771 1221 885 q 1319 528 1319 657 q 1270 285 1319 399 q 1136 86 1221 171 q 938 -48 1051 1 q 694 -97 824 -97 q 451 -48 565 -97 q 253 86 338 1 q 119 285 168 171 q 69 528 69 399 m 1264 528 q 1219 749 1264 646 q 1097 930 1174 853 q 916 1052 1019 1007 q 694 1097 813 1097 q 473 1052 576 1097 q 292 930 369 1007 q 170 749 215 853 q 125 528 125 646 q 170 306 125 410 q 292 126 215 203 q 473 3 369 49 q 694 -42 576 -42 q 916 3 813 -42 q 1097 126 1019 49 q 1219 306 1174 203 q 1264 528 1264 410 m 285 528 q 317 688 285 614 q 404 818 349 763 q 535 906 460 874 q 694 938 610 938 q 855 906 781 938 q 985 818 929 874 q 1072 688 1040 763 q 1104 528 1104 614 q 1072 368 1104 443 q 985 238 1040 293 q 855 150 929 182 q 694 118 781 118 q 535 150 610 118 q 404 238 460 182 q 317 368 349 293 q 285 528 285 443 m 1057 528 q 1028 669 1057 603 q 951 784 1000 735 q 835 862 901 833 q 694 890 769 890 q 553 862 619 890 q 438 784 488 833 q 360 669 389 735 q 332 528 332 603 q 360 387 332 453 q 438 272 389 321 q 553 194 488 222 q 694 165 619 165 q 835 194 769 165 q 951 272 901 222 q 1028 387 1000 321 q 1057 528 1057 453 z "},"●":{"ha":1389,"x_min":69,"x_max":1319,"o":"m 694 -97 q 451 -48 565 -97 q 253 86 338 1 q 119 285 168 171 q 69 528 69 399 q 119 771 69 657 q 253 969 168 885 q 451 1103 338 1054 q 694 1153 565 1153 q 938 1103 824 1153 q 1136 969 1051 1054 q 1270 771 1221 885 q 1319 528 1319 657 q 1270 285 1319 399 q 1136 86 1221 171 q 938 -48 1051 1 q 694 -97 824 -97 z "},"◐":{"ha":1389,"x_min":83,"x_max":1306,"o":"m 1306 528 q 1258 290 1306 401 q 1126 96 1210 179 q 932 -35 1043 13 q 694 -83 821 -83 q 457 -35 568 -83 q 263 96 346 13 q 131 290 179 179 q 83 528 83 401 q 131 765 83 654 q 263 960 179 876 q 457 1091 346 1043 q 694 1139 568 1139 q 932 1091 821 1139 q 1126 960 1043 1043 q 1258 765 1210 876 q 1306 528 1306 654 m 694 -40 q 916 4 813 -40 q 1097 126 1019 49 q 1218 306 1174 203 q 1263 528 1263 410 q 1218 749 1263 646 q 1097 930 1174 853 q 916 1051 1019 1007 q 694 1096 813 1096 l 694 -40 z "},"◑":{"ha":1389,"x_min":83,"x_max":1306,"o":"m 1306 528 q 1258 290 1306 401 q 1126 96 1210 179 q 932 -35 1043 13 q 694 -83 821 -83 q 457 -35 568 -83 q 263 96 346 13 q 131 290 179 179 q 83 528 83 401 q 131 765 83 654 q 263 960 179 876 q 457 1091 346 1043 q 694 1139 568 1139 q 932 1091 821 1139 q 1126 960 1043 1043 q 1258 765 1210 876 q 1306 528 1306 654 m 694 1096 q 473 1051 576 1096 q 292 930 369 1007 q 171 749 215 853 q 126 528 126 646 q 171 306 126 410 q 292 126 215 203 q 473 4 369 49 q 694 -40 576 -40 l 694 1096 z "},"★":{"ha":1389,"x_min":53,"x_max":1336,"o":"m 1336 674 l 1336 667 l 944 382 l 1099 -86 l 1093 -89 l 694 201 l 296 -89 l 290 -86 l 444 382 l 53 667 l 53 674 l 539 674 l 692 1140 l 697 1140 l 850 674 l 1336 674 z "},"☆":{"ha":1389,"x_min":51,"x_max":1338,"o":"m 688 1140 l 701 1140 l 850 674 l 1335 674 l 1338 661 l 944 382 l 1101 -83 l 1092 -90 l 694 201 l 297 -90 l 288 -83 l 444 382 l 51 661 l 54 674 l 539 674 l 688 1140 m 336 618 l 189 626 l 189 624 l 315 542 l 511 404 l 438 185 l 378 32 l 381 31 l 511 135 l 694 269 l 878 135 l 1008 31 l 1011 32 l 951 185 l 878 404 l 1074 542 l 1200 624 l 1200 626 l 1051 618 l 810 618 l 733 853 l 696 996 l 693 996 l 654 853 l 579 618 l 336 618 z "},"☎":{"ha":1389,"x_min":56,"x_max":1333,"o":"m 308 792 l 365 644 q 371 613 372 628 q 347 593 369 597 l 94 550 q 56 589 56 546 q 58 647 56 613 q 68 716 60 681 q 91 783 76 751 q 131 835 106 815 q 227 894 175 868 q 346 938 279 919 q 498 965 413 956 q 694 974 583 974 q 891 965 806 974 q 1044 938 976 956 q 1163 894 1111 921 q 1258 835 1215 868 q 1298 783 1283 815 q 1321 716 1313 751 q 1331 647 1329 681 q 1333 589 1333 613 q 1294 550 1333 546 l 1042 593 q 1018 612 1019 596 q 1024 644 1017 628 l 1081 792 l 932 792 l 932 703 q 975 569 932 631 q 1097 433 1018 508 q 1197 278 1169 363 q 1225 103 1225 194 q 1211 53 1225 69 q 1161 38 1197 38 l 228 38 q 178 53 192 38 q 164 103 164 69 q 192 278 164 194 q 292 433 219 363 q 414 569 371 508 q 457 703 457 631 l 457 792 l 308 792 m 576 792 l 576 658 l 813 658 l 813 792 l 576 792 m 461 347 q 479 256 461 299 q 529 182 497 214 q 603 132 561 150 q 694 114 646 114 q 785 132 743 114 q 860 182 828 150 q 910 256 892 214 q 928 347 928 299 q 910 438 928 396 q 860 513 892 481 q 785 563 828 544 q 694 581 743 581 q 603 563 646 581 q 529 513 561 544 q 479 438 497 481 q 461 347 461 396 z "},"☏":{"ha":1389,"x_min":36,"x_max":1353,"o":"m 336 772 l 383 651 l 383 653 q 388 607 392 632 q 350 574 383 582 l 97 531 q 53 544 71 528 q 36 589 36 561 q 39 648 36 613 q 51 722 42 683 q 76 794 60 760 q 118 850 92 829 q 217 912 163 885 q 340 957 271 939 q 496 984 408 975 q 694 993 583 993 q 893 984 806 993 q 1049 957 981 975 q 1172 912 1118 939 q 1271 850 1226 885 q 1315 794 1299 829 q 1339 722 1331 760 q 1350 647 1347 683 q 1353 589 1353 611 q 1335 544 1353 561 q 1292 531 1318 528 l 1038 574 q 1001 608 1006 582 q 1006 653 997 633 l 1006 651 l 1053 772 l 951 772 l 951 703 q 992 578 951 635 q 1111 447 1033 522 q 1215 285 1186 372 q 1244 103 1244 199 q 1224 41 1244 64 q 1161 18 1204 18 l 228 18 q 165 41 185 18 q 144 103 144 64 q 174 285 144 199 q 278 447 203 372 q 397 578 356 522 q 438 703 438 635 l 438 772 l 336 772 m 281 811 l 476 811 l 476 703 q 430 560 476 625 q 306 419 383 494 q 209 274 235 353 q 183 103 183 194 q 192 67 183 76 q 228 57 201 57 l 1161 57 q 1197 67 1188 57 q 1206 103 1206 76 q 1180 274 1206 194 q 1083 419 1154 353 q 960 559 1007 493 q 913 703 913 625 l 913 811 l 1108 811 l 1042 638 l 1042 636 q 1044 613 1032 615 l 1297 569 q 1314 589 1314 568 q 1312 644 1314 611 q 1302 710 1310 676 q 1281 773 1294 743 q 1246 819 1268 803 q 1153 878 1203 853 q 1037 919 1103 903 q 888 945 971 936 q 694 954 804 954 q 501 945 585 954 q 352 919 418 936 q 236 878 286 903 q 143 819 186 853 q 108 773 121 803 q 87 710 94 743 q 77 644 79 676 q 75 589 75 611 q 92 569 75 568 l 343 613 q 347 636 357 614 l 347 638 l 281 811 m 557 811 l 832 811 l 832 639 l 557 639 l 557 811 m 596 772 l 596 678 l 793 678 l 793 772 l 596 772 m 947 347 q 927 250 947 296 q 872 169 907 204 q 792 115 838 135 q 694 94 746 94 q 597 115 643 94 q 517 169 551 135 q 462 250 482 204 q 442 347 442 296 q 462 444 442 399 q 517 525 482 490 q 597 580 551 560 q 694 600 643 600 q 792 580 746 600 q 872 525 838 560 q 927 444 907 490 q 947 347 947 399 m 481 347 q 497 264 481 303 q 543 196 514 225 q 611 150 572 167 q 694 133 650 133 q 778 150 739 133 q 846 196 817 167 q 892 264 875 225 q 908 347 908 303 q 892 431 908 392 q 846 499 875 469 q 778 544 817 528 q 694 561 739 561 q 611 544 650 561 q 543 499 572 528 q 497 431 514 469 q 481 347 481 392 z "},"☜":{"ha":1389,"x_min":39,"x_max":1340,"o":"m 1210 267 q 1181 263 1196 269 q 973 188 1082 218 q 754 158 864 158 q 718 160 738 158 q 680 163 699 161 q 647 168 661 165 q 624 174 632 171 l 619 174 l 613 174 l 600 172 q 497 201 540 172 q 450 294 454 231 q 447 299 450 299 q 445 300 446 300 q 443 301 444 300 l 436 303 q 434 304 435 304 q 432 306 433 304 q 375 415 379 338 q 369 425 375 424 q 324 468 336 442 q 313 528 308 496 q 338 581 317 560 l 339 582 l 342 583 q 343 585 343 585 q 344 590 346 588 q 339 592 342 592 q 237 590 289 590 q 157 592 185 590 q 63 623 88 597 q 39 679 39 649 q 50 721 39 704 q 78 748 61 738 q 117 765 96 758 q 157 775 138 771 q 227 786 182 781 q 327 797 272 792 q 442 808 382 803 q 559 816 503 813 q 663 822 615 819 q 742 824 711 824 q 944 792 826 824 q 1204 700 1061 760 q 1217 699 1215 697 l 1319 711 q 1335 706 1331 713 q 1340 692 1340 700 l 1340 274 q 1340 274 1340 276 q 1338 264 1339 271 q 1319 254 1332 254 l 1210 267 m 1214 660 q 1205 660 1210 660 q 1196 663 1200 660 q 1074 711 1135 689 q 958 749 1013 733 q 859 773 904 764 q 783 782 814 782 q 698 773 731 782 q 629 740 665 764 q 574 700 610 726 q 514 646 539 674 q 490 613 494 625 q 489 593 485 600 q 526 570 499 574 q 590 578 554 567 q 682 606 635 590 q 757 631 729 621 q 782 640 776 638 q 794 642 788 643 q 804 635 801 640 q 843 598 815 619 q 915 553 871 576 q 1007 517 960 529 q 1096 504 1054 504 q 1111 500 1103 504 q 1119 489 1119 496 q 1113 476 1119 482 q 1096 467 1106 469 q 1018 454 1057 456 q 926 458 979 453 q 865 437 883 463 q 846 379 846 411 q 837 315 846 342 q 811 268 828 288 q 769 233 794 249 q 713 201 744 217 q 710 199 710 201 q 713 197 711 197 q 788 196 749 194 q 869 204 828 197 q 1022 241 946 217 q 1181 304 1097 265 q 1190 307 1185 307 q 1199 307 1194 307 l 1286 296 q 1303 310 1303 296 l 1303 658 q 1289 669 1303 669 l 1214 660 m 374 631 q 431 636 415 631 q 458 646 444 639 q 482 664 472 653 q 532 708 503 686 q 582 750 561 731 l 582 751 l 583 753 q 583 775 586 764 q 579 779 583 779 q 460 770 522 775 q 341 760 399 765 q 237 749 283 754 q 164 738 190 743 q 113 724 131 732 q 88 707 96 715 q 78 691 79 699 q 76 679 76 683 q 91 648 76 663 q 160 629 106 633 q 201 628 175 628 q 256 628 226 628 q 317 630 286 629 q 374 631 347 631 m 418 450 q 472 444 446 444 q 508 447 497 444 q 557 455 529 450 q 613 468 585 460 q 665 488 640 476 q 706 515 690 500 q 719 537 717 526 q 718 558 721 547 q 697 568 714 572 q 651 556 678 563 q 601 542 625 549 q 556 534 576 536 q 515 536 535 532 q 477 551 492 540 q 451 588 463 563 q 442 596 449 594 q 429 594 435 597 q 364 554 390 581 q 349 520 349 540 q 357 485 350 500 q 383 460 364 468 q 418 450 401 453 m 544 322 q 604 332 565 322 q 681 359 643 342 q 747 399 718 376 q 775 449 775 422 q 763 483 775 469 q 749 489 757 488 q 733 485 742 490 q 692 464 714 475 q 651 444 671 453 q 566 418 613 428 q 467 408 519 408 q 444 408 456 408 q 421 411 433 408 q 414 404 414 411 q 431 359 419 375 q 458 335 442 343 q 497 324 475 326 q 544 322 519 322 m 593 210 q 692 232 638 210 q 781 292 746 254 q 797 322 796 307 q 794 344 797 338 q 774 363 788 364 q 747 354 760 363 q 698 328 725 340 q 643 306 671 315 q 590 290 615 296 q 544 285 564 285 q 519 285 532 285 q 494 288 506 286 q 489 283 489 288 q 526 227 499 244 q 593 210 554 210 z "},"☞":{"ha":1389,"x_min":46,"x_max":1347,"o":"m 644 824 q 723 822 675 824 q 827 816 771 819 q 944 808 883 813 q 1059 797 1004 803 q 1159 786 1114 792 q 1229 775 1204 781 q 1269 765 1249 771 q 1308 748 1290 758 q 1336 721 1325 738 q 1347 679 1347 704 q 1323 623 1347 649 q 1229 592 1299 597 q 1149 590 1201 590 q 1047 592 1097 590 q 1042 590 1044 592 q 1043 585 1040 588 q 1044 583 1044 585 l 1047 582 l 1049 581 q 1074 528 1069 560 q 1063 468 1078 496 q 1017 425 1050 442 q 1011 415 1011 424 q 954 306 1007 338 q 952 304 953 304 q 950 303 951 304 l 943 301 q 941 300 942 300 q 939 299 940 300 q 936 294 936 299 q 889 201 932 229 q 786 172 846 172 l 774 174 l 767 174 l 763 174 q 740 168 754 171 q 706 163 725 165 q 668 160 688 161 q 632 158 649 158 q 413 188 522 158 q 206 263 304 218 q 176 267 192 269 l 67 254 q 49 264 54 254 q 47 274 47 271 q 46 274 46 276 l 46 692 q 51 706 46 700 q 67 711 56 713 l 169 699 q 182 700 171 697 q 442 792 325 760 q 644 824 560 824 m 206 304 q 365 241 289 265 q 517 204 440 217 q 598 196 558 197 q 674 197 638 194 q 676 199 675 197 q 674 201 676 201 q 617 233 642 217 q 575 268 592 249 q 549 315 558 288 q 540 379 540 342 q 522 437 540 411 q 460 458 503 463 q 368 454 407 453 q 290 467 329 456 q 274 476 281 469 q 267 489 267 482 q 275 500 267 496 q 290 504 283 504 q 379 517 332 504 q 471 553 426 529 q 543 598 515 576 q 582 635 571 619 q 592 642 585 640 q 604 640 599 643 q 613 636 607 639 q 629 631 619 633 q 704 606 657 621 q 796 578 751 590 q 860 570 832 567 q 897 593 888 574 q 897 613 901 600 q 872 646 892 625 q 812 700 847 674 q 757 740 776 726 q 688 773 721 764 q 603 782 656 782 q 527 773 572 782 q 428 749 482 764 q 313 711 374 733 q 190 663 251 689 q 181 660 186 660 q 172 660 176 660 l 97 669 q 83 658 83 669 l 83 310 q 100 296 83 296 l 188 307 q 197 307 192 307 q 206 304 201 307 m 1013 631 q 1069 630 1039 631 q 1130 628 1100 629 q 1185 628 1160 628 q 1226 629 1211 628 q 1295 648 1281 633 q 1310 679 1310 663 q 1308 691 1310 683 q 1299 707 1307 699 q 1273 724 1290 715 q 1222 738 1256 732 q 1149 749 1196 743 q 1045 760 1103 754 q 926 770 988 765 q 807 779 864 775 q 803 775 803 779 q 803 753 800 764 l 804 751 l 804 750 q 854 708 825 731 q 904 664 883 686 q 928 646 914 653 q 956 636 942 639 q 1013 631 971 631 m 968 450 q 1003 460 985 453 q 1029 485 1022 468 q 1037 520 1036 500 q 1022 554 1038 540 q 957 594 1000 579 q 944 596 951 597 q 935 588 938 594 q 909 551 924 563 q 871 536 894 540 q 831 534 851 532 q 785 542 810 536 q 735 556 761 549 q 689 568 708 563 q 668 558 672 572 q 667 537 665 547 q 681 515 669 526 q 721 488 696 500 q 774 468 746 476 q 829 455 801 460 q 878 447 857 450 q 915 444 889 444 q 968 450 940 444 m 842 322 q 889 324 867 322 q 928 335 911 326 q 956 359 944 343 q 972 404 967 375 q 965 411 972 411 q 942 408 953 408 q 919 408 931 408 q 820 418 867 408 q 735 444 774 428 q 694 464 715 453 q 653 485 672 475 q 637 489 644 490 q 624 483 629 488 q 611 449 611 469 q 640 399 611 422 q 706 359 668 376 q 782 332 743 342 q 842 322 821 322 m 793 210 q 860 227 832 210 q 897 283 888 244 q 892 288 897 288 q 867 285 881 286 q 842 285 854 285 q 797 290 822 285 q 743 306 771 296 q 688 328 715 315 q 639 354 661 340 q 613 363 626 363 q 592 344 599 364 q 590 322 589 338 q 606 292 590 307 q 696 232 640 254 q 793 210 742 210 z "},"♀":{"ha":1389,"x_min":247,"x_max":1142,"o":"m 386 831 q 410 951 386 894 q 476 1049 435 1007 q 574 1115 518 1090 q 694 1139 631 1139 q 815 1115 758 1139 q 913 1049 871 1090 q 978 951 954 1007 q 1003 831 1003 894 q 984 724 1003 775 q 932 633 965 674 q 853 565 899 593 q 753 528 807 538 l 753 393 l 1142 393 l 1142 278 l 753 278 l 753 -83 l 636 -83 l 636 278 l 247 278 l 247 393 l 636 393 l 636 528 q 536 565 582 538 q 457 633 490 593 q 405 724 424 674 q 386 831 386 775 m 888 831 q 872 906 888 871 q 831 967 857 942 q 770 1008 806 993 q 694 1024 735 1024 q 619 1008 654 1024 q 558 967 583 993 q 517 906 532 942 q 501 831 501 871 q 517 755 501 790 q 558 693 532 719 q 619 651 583 667 q 694 636 654 636 q 770 651 735 636 q 831 693 806 667 q 872 755 857 719 q 888 831 888 790 z "},"♂":{"ha":1389,"x_min":158,"x_max":1207,"o":"m 776 301 q 752 181 776 238 q 686 83 728 125 q 588 16 644 40 q 468 -8 532 -8 q 348 16 404 -8 q 249 83 292 40 q 183 181 207 125 q 158 301 158 238 q 183 422 158 365 q 249 519 207 478 q 348 585 292 561 q 468 610 404 610 q 639 557 561 610 l 1008 925 l 676 925 l 676 1040 l 1207 1040 l 1207 510 l 1092 510 l 1092 849 l 721 476 q 762 395 747 440 q 776 301 776 350 m 274 301 q 289 226 274 261 q 331 164 304 190 q 392 122 357 138 q 468 107 428 107 q 544 122 508 107 q 605 164 579 138 q 646 226 631 190 q 661 301 661 261 q 646 377 661 342 q 605 438 631 413 q 544 479 579 464 q 468 494 508 494 q 392 479 428 494 q 331 438 357 464 q 289 377 304 413 q 274 301 274 342 z "},"♠":{"ha":1389,"x_min":115,"x_max":1274,"o":"m 1010 832 q 1094 751 1047 796 q 1180 651 1140 706 q 1247 533 1219 597 q 1274 394 1274 469 q 1253 280 1274 335 q 1197 183 1233 225 q 1110 117 1161 142 q 996 92 1058 92 q 855 129 917 92 q 767 226 793 167 q 756 249 760 242 q 744 257 753 257 q 737 246 738 257 q 736 232 736 235 q 751 135 740 178 q 780 59 763 93 q 821 -2 797 25 q 874 -54 844 -29 q 881 -74 885 -65 q 874 -82 878 -82 l 515 -82 q 507 -74 511 -82 q 515 -54 503 -65 q 568 -2 544 -29 q 609 59 592 25 q 638 135 626 93 q 653 232 649 178 q 652 246 653 235 q 644 257 651 257 q 633 249 636 257 q 622 226 629 242 q 534 129 596 167 q 393 92 472 92 q 280 117 331 92 q 192 183 229 142 q 135 280 156 225 q 115 394 115 335 q 142 533 115 469 q 209 651 169 597 q 295 751 249 706 q 379 832 342 796 q 473 926 425 876 q 563 1022 521 975 q 640 1112 606 1069 q 692 1183 674 1154 q 694 1190 693 1190 q 697 1183 696 1190 q 751 1112 717 1154 q 827 1022 785 1069 q 917 926 869 975 q 1010 832 964 876 z "},"♡":{"ha":1389,"x_min":107,"x_max":1285,"o":"m 699 906 q 758 1003 724 964 q 831 1067 792 1043 q 913 1100 871 1090 q 993 1110 954 1110 q 1106 1084 1053 1110 q 1198 1013 1158 1058 q 1261 905 1238 967 q 1285 772 1285 843 q 1257 628 1285 694 q 1188 504 1229 561 q 1100 401 1147 447 q 1014 317 1053 354 q 919 219 967 271 q 828 117 871 167 q 752 22 786 67 q 699 -56 718 -24 q 696 -62 697 -62 q 693 -56 694 -62 q 640 22 674 -24 q 565 117 607 67 q 474 219 522 167 q 378 317 426 271 q 292 401 339 354 q 203 505 244 449 q 135 628 163 561 q 107 772 107 696 q 131 905 107 843 q 194 1013 154 967 q 286 1084 233 1058 q 399 1110 339 1110 q 480 1100 439 1110 q 560 1067 521 1090 q 634 1003 600 1043 q 693 906 668 964 q 696 899 694 899 q 699 906 697 899 m 1229 772 q 1210 885 1229 833 q 1158 974 1190 936 q 1083 1033 1126 1011 q 993 1054 1040 1054 q 841 1007 901 1054 q 736 856 781 960 q 719 828 729 839 q 696 818 708 818 q 673 828 683 818 q 656 856 663 839 q 551 1007 611 960 q 399 1054 490 1054 q 308 1033 351 1054 q 233 974 265 1011 q 182 885 201 936 q 163 772 163 833 q 189 646 163 706 q 254 533 215 586 q 338 435 293 479 q 418 356 382 390 q 504 270 463 314 q 582 185 546 226 q 647 106 618 143 q 693 40 675 69 q 696 33 694 33 q 699 40 697 33 q 747 106 718 69 q 811 185 775 143 q 889 270 847 226 q 975 356 931 314 q 1056 436 1011 392 q 1139 533 1100 481 q 1203 644 1178 585 q 1229 772 1229 704 z "},"♣":{"ha":1389,"x_min":89,"x_max":1300,"o":"m 644 257 q 634 249 636 257 q 622 226 632 242 q 517 123 583 164 q 368 82 451 82 q 258 103 310 82 q 169 161 207 124 q 110 250 132 199 q 89 364 89 301 q 110 475 89 424 q 169 565 132 526 q 258 625 207 603 q 369 647 310 647 q 433 638 401 647 q 489 615 465 628 l 493 615 q 499 618 496 615 q 499 626 501 625 l 494 631 q 433 717 458 665 q 408 831 408 768 q 431 942 408 890 q 492 1034 453 994 q 583 1097 531 1074 q 694 1119 635 1119 q 806 1097 754 1119 q 897 1035 858 1074 q 958 944 936 996 q 981 832 981 892 q 956 717 981 769 q 894 631 931 665 l 890 626 q 890 618 889 625 q 896 615 893 615 l 900 615 q 956 638 924 628 q 1018 647 989 647 q 1132 625 1081 647 q 1221 565 1183 603 q 1279 475 1258 526 q 1300 364 1300 424 q 1278 250 1300 301 q 1219 161 1257 199 q 1131 103 1182 124 q 1021 82 1079 82 q 876 121 942 82 q 767 226 810 160 q 755 249 757 242 q 744 257 753 257 q 737 246 738 257 q 736 232 736 235 q 751 135 740 178 q 780 59 763 93 q 821 -2 797 25 q 874 -54 844 -29 q 882 -74 886 -65 q 874 -82 878 -82 l 517 -82 q 508 -74 511 -82 q 515 -54 504 -65 q 568 -2 544 -29 q 609 59 592 25 q 638 135 626 93 q 653 232 649 178 q 652 246 653 235 q 644 257 651 257 z "},"♤":{"ha":1389,"x_min":110,"x_max":1279,"o":"m 493 -86 q 485 -76 489 -86 q 493 -56 482 -67 q 573 42 544 -7 q 615 165 601 90 q 619 197 618 182 q 619 213 621 213 l 618 211 q 617 206 618 207 q 612 199 614 203 q 607 189 610 194 q 515 113 574 140 q 390 86 457 86 q 276 111 328 86 q 187 178 224 136 q 130 276 150 221 q 110 393 110 332 q 137 533 110 468 q 204 653 164 599 q 291 753 244 708 q 375 835 338 799 q 471 929 422 879 q 562 1027 519 979 q 638 1117 604 1075 q 692 1190 672 1160 q 694 1197 693 1197 q 697 1190 696 1197 q 751 1117 717 1160 q 828 1027 785 1075 q 919 929 871 979 q 1014 835 967 879 q 1098 753 1051 799 q 1185 653 1144 708 q 1252 533 1225 599 q 1279 393 1279 468 q 1259 276 1279 332 q 1202 178 1239 221 q 1113 111 1165 136 q 999 86 1061 86 q 874 113 932 86 q 782 189 815 140 q 777 199 779 194 q 772 206 775 203 q 771 211 771 208 l 769 213 q 769 197 768 213 q 774 165 771 182 q 816 42 788 90 q 896 -56 844 -7 q 903 -76 907 -67 q 896 -86 900 -86 l 493 -86 m 790 -31 q 790 -24 794 -31 q 776 -6 785 -17 q 733 83 753 31 q 714 215 714 136 q 722 273 714 247 q 750 299 729 299 q 776 284 765 299 q 806 246 788 269 q 889 170 842 199 q 1000 142 936 142 q 1092 162 1051 142 q 1163 217 1133 182 q 1208 297 1192 251 q 1224 393 1224 342 q 1198 519 1224 460 q 1135 628 1172 578 q 1054 719 1097 678 q 978 793 1011 761 q 894 876 936 833 q 813 960 851 919 q 745 1038 775 1001 q 699 1100 715 1074 q 696 1107 697 1107 q 693 1100 694 1107 q 644 1038 675 1074 q 576 960 614 1001 q 495 876 538 919 q 411 793 453 833 q 335 719 378 761 q 254 628 292 678 q 191 519 217 578 q 165 393 165 460 q 181 297 165 342 q 226 217 197 251 q 297 162 256 182 q 389 142 338 142 q 500 170 453 142 q 583 246 547 199 q 613 284 601 269 q 639 299 624 299 q 667 273 660 299 q 675 215 675 247 q 656 83 675 136 q 613 -6 636 31 q 599 -24 604 -17 q 599 -31 594 -31 l 790 -31 z "},"♥":{"ha":1389,"x_min":110,"x_max":1279,"o":"m 701 883 q 745 983 717 942 q 811 1052 774 1025 q 894 1092 849 1079 q 989 1106 940 1106 q 1101 1080 1049 1106 q 1194 1009 1154 1054 q 1256 903 1233 964 q 1279 771 1279 842 q 1251 628 1279 694 q 1183 505 1224 561 q 1096 402 1143 449 q 1010 318 1049 356 q 915 220 963 272 q 826 118 868 168 q 751 24 785 68 q 697 -51 717 -21 q 694 -58 696 -58 q 692 -51 693 -58 q 638 24 672 -21 q 563 118 604 68 q 474 220 521 168 q 379 318 426 272 q 293 402 340 356 q 206 505 246 449 q 138 628 165 561 q 110 771 110 694 q 133 903 110 842 q 195 1009 156 964 q 288 1080 235 1054 q 400 1106 340 1106 q 494 1092 449 1106 q 577 1052 539 1079 q 644 983 615 1025 q 688 883 672 942 q 694 874 689 874 q 701 883 700 874 z "},"♧":{"ha":1389,"x_min":83,"x_max":1306,"o":"m 83 367 q 104 480 83 428 q 163 571 125 532 q 252 632 200 610 q 367 654 304 654 q 431 646 400 654 q 479 629 463 638 q 483 628 482 628 q 481 632 483 629 q 428 715 453 663 q 404 835 404 768 q 427 947 404 894 q 490 1040 450 1000 q 582 1102 529 1079 q 694 1125 635 1125 q 807 1102 754 1125 q 899 1040 860 1079 q 962 947 939 1000 q 985 835 985 894 q 960 715 985 768 q 908 632 936 663 q 910 629 904 628 q 958 646 926 638 q 1022 654 989 654 q 1137 632 1085 654 q 1226 571 1189 610 q 1285 480 1264 532 q 1306 367 1306 428 q 1284 251 1306 304 q 1224 160 1263 199 q 1135 101 1186 122 q 1024 79 1083 79 q 888 110 951 79 q 783 193 824 140 q 774 209 776 203 q 769 215 771 215 q 769 197 768 215 q 772 164 769 179 q 817 40 785 89 q 896 -56 849 -8 q 903 -76 907 -67 q 896 -86 900 -86 l 493 -86 q 485 -77 489 -86 q 493 -56 482 -68 q 573 40 542 -8 q 617 164 604 89 q 620 197 619 179 q 619 215 621 215 q 615 209 618 215 q 606 193 613 203 q 501 109 565 139 q 365 79 438 79 q 254 101 306 79 q 165 160 203 122 q 105 251 126 199 q 83 367 83 304 m 478 575 q 429 591 457 583 q 365 599 401 599 q 272 581 314 599 q 201 531 231 563 q 155 458 171 500 q 139 367 139 415 q 157 274 139 317 q 206 201 175 232 q 278 152 238 169 q 365 135 319 135 q 585 254 501 135 q 607 284 596 269 q 635 299 618 299 q 664 274 654 299 q 674 215 674 250 q 658 89 674 139 q 610 -8 643 39 q 598 -25 603 -19 q 597 -31 593 -31 l 792 -31 q 791 -25 796 -31 q 779 -8 786 -19 q 731 89 746 39 q 715 215 715 139 q 725 274 715 250 q 754 299 735 299 q 783 282 771 299 q 811 244 796 265 q 901 164 850 193 q 1024 135 953 135 q 1110 152 1069 135 q 1183 201 1151 169 q 1232 274 1214 232 q 1250 367 1250 317 q 1234 458 1250 415 q 1188 531 1218 500 q 1117 581 1158 563 q 1024 599 1075 599 q 960 590 988 599 q 911 575 932 582 q 840 581 857 556 q 838 619 826 600 q 867 663 850 639 q 908 733 889 690 q 928 835 928 775 q 909 926 928 883 q 859 1000 890 968 q 785 1051 828 1032 q 694 1069 743 1069 q 604 1051 647 1069 q 530 1000 561 1032 q 480 926 499 968 q 461 835 461 883 q 481 732 461 775 q 522 663 501 689 q 551 619 539 639 q 549 581 563 600 q 522 567 539 567 q 478 575 504 567 z "},"♨":{"ha":1389,"x_min":104,"x_max":1285,"o":"m 639 635 q 595 744 610 689 q 581 839 581 799 q 609 985 581 918 q 717 1107 638 1053 l 765 1083 q 695 990 718 1040 q 672 893 672 940 q 688 794 672 847 q 736 685 704 740 q 780 575 765 629 q 794 481 794 521 q 766 334 794 401 q 658 213 738 267 l 610 235 q 680 329 657 279 q 703 426 703 379 q 687 526 703 472 q 639 635 671 579 m 399 638 q 356 734 369 686 q 342 818 342 782 q 367 945 342 885 q 467 1054 392 1006 l 514 1031 q 449 949 467 990 q 431 867 431 907 q 447 778 431 826 q 493 682 464 731 q 537 585 524 633 q 550 501 550 538 q 526 374 550 435 q 426 265 501 314 l 379 289 q 444 371 426 329 q 461 453 461 413 q 445 541 461 493 q 399 638 429 589 m 886 638 q 842 734 856 686 q 829 818 829 782 q 854 945 829 885 q 954 1054 879 1006 l 1001 1032 q 936 949 954 992 q 918 867 918 907 q 935 779 918 828 q 981 682 951 731 q 1024 585 1011 633 q 1038 501 1038 538 q 1013 374 1038 433 q 913 265 988 315 l 865 289 q 931 372 913 329 q 949 453 949 414 q 932 541 949 493 q 886 638 915 589 m 1285 321 q 1240 184 1285 247 q 1115 75 1194 121 q 928 3 1036 29 q 694 -24 821 -24 q 460 3 568 -24 q 274 75 353 29 q 149 184 194 121 q 104 321 104 247 q 160 467 104 408 q 310 547 217 525 l 338 510 q 240 451 275 490 q 204 354 204 413 q 242 257 204 303 q 344 178 279 211 q 500 125 410 144 q 694 106 590 106 q 889 125 799 106 q 1044 178 979 144 q 1147 257 1110 211 q 1185 354 1185 303 q 1149 451 1185 413 q 1051 510 1114 490 l 1079 547 q 1228 467 1172 525 q 1285 321 1285 408 z "},"♩":{"ha":1389,"x_min":392,"x_max":775,"o":"m 775 1167 l 775 125 q 754 27 775 71 q 698 -47 733 -17 q 617 -94 663 -78 q 521 -111 571 -111 q 474 -105 497 -111 q 432 -85 450 -99 q 403 -53 414 -72 q 392 -8 392 -33 q 413 63 392 29 q 469 124 435 97 q 547 167 504 151 q 632 183 589 183 q 680 178 656 183 q 719 165 704 174 l 719 1167 l 775 1167 z "},"♪":{"ha":1389,"x_min":347,"x_max":1050,"o":"m 710 1167 q 723 1073 710 1117 q 758 992 736 1029 q 810 922 781 954 q 871 861 839 889 q 935 799 903 833 q 992 726 967 765 q 1034 642 1018 686 q 1050 549 1050 597 q 1017 376 1050 461 q 933 210 983 290 l 897 210 q 924 267 908 233 q 953 338 939 300 q 976 418 967 376 q 985 501 985 460 q 965 615 985 563 q 912 710 946 668 q 831 781 878 751 q 731 822 785 810 l 731 125 q 710 27 731 71 q 653 -47 689 -17 q 572 -94 618 -78 q 476 -111 526 -111 q 429 -105 453 -111 q 388 -85 406 -99 q 358 -53 369 -72 q 347 -8 347 -33 q 369 63 347 29 q 425 124 390 97 q 502 167 460 151 q 588 183 544 183 q 635 178 611 183 q 675 165 660 174 l 675 1167 l 710 1167 z "},"♬":{"ha":1389,"x_min":33,"x_max":1174,"o":"m 1174 1188 l 1174 282 q 1153 184 1174 228 q 1097 110 1132 140 q 1015 63 1061 79 q 919 46 969 46 q 872 52 896 46 q 831 72 849 58 q 801 104 813 85 q 790 149 790 124 q 812 220 790 186 q 868 281 833 254 q 945 324 903 308 q 1031 340 988 340 q 1078 335 1054 340 q 1118 322 1103 331 l 1118 797 l 417 644 l 417 104 q 396 6 417 50 q 340 -68 375 -37 q 258 -115 304 -99 q 163 -132 213 -132 q 115 -126 139 -132 q 74 -106 92 -119 q 44 -74 56 -93 q 33 -29 33 -54 q 55 42 33 8 q 111 103 76 76 q 188 147 146 131 q 274 163 231 163 q 322 158 297 163 q 361 144 346 153 l 361 1010 l 1174 1188 m 1118 1036 l 417 883 l 417 783 l 1118 936 l 1118 1036 z "},"♭":{"ha":1389,"x_min":481,"x_max":1032,"o":"m 835 654 q 917 640 881 654 q 978 602 953 626 q 1018 545 1004 578 q 1032 475 1032 513 q 1005 351 1032 404 q 934 253 978 297 q 833 172 890 210 q 716 96 776 135 q 598 14 656 57 q 493 -85 540 -29 l 481 -85 l 481 1142 l 536 1142 l 536 458 q 662 599 585 543 q 835 654 739 654 m 536 15 q 648 122 589 74 q 756 219 707 171 q 838 323 806 268 q 871 450 871 378 q 840 541 871 514 q 765 568 810 568 q 651 524 714 568 q 536 385 589 481 l 536 15 z "},"　":{"ha":1389,"x_min":0,"x_max":0,"o":""},"、":{"ha":1389,"x_min":65,"x_max":486,"o":"m 368 -85 q 221 78 301 -4 q 65 222 140 160 l 179 322 q 258 253 217 292 q 341 174 300 215 q 419 92 382 133 q 486 15 457 51 l 368 -85 z "},"。":{"ha":1389,"x_min":53,"x_max":486,"o":"m 269 342 q 355 324 315 342 q 424 277 394 307 q 469 208 453 247 q 486 124 486 168 q 469 40 486 79 q 424 -29 453 0 q 355 -76 394 -58 q 269 -93 315 -93 q 185 -76 225 -93 q 117 -29 146 -58 q 70 40 88 0 q 53 124 53 79 q 70 208 53 168 q 117 277 88 247 q 185 324 146 307 q 269 342 225 342 m 269 -10 q 364 29 325 -10 q 403 124 403 68 q 364 218 403 179 q 269 257 325 257 q 175 218 214 257 q 136 124 136 179 q 175 29 136 68 q 269 -10 214 -10 z "},"〃":{"ha":1389,"x_min":296,"x_max":1093,"o":"m 679 794 l 381 168 l 296 206 l 521 863 l 679 794 m 1093 794 l 794 168 l 710 206 l 935 863 l 1093 794 z "},"〈":{"ha":694,"x_min":89,"x_max":604,"o":"m 604 -75 l 496 -122 l 89 528 l 496 1178 l 604 1131 l 228 528 l 604 -75 z "},"〉":{"ha":694,"x_min":90,"x_max":606,"o":"m 90 -75 l 467 528 l 90 1131 l 199 1178 l 606 528 l 199 -122 l 90 -75 z "},"《":{"ha":694,"x_min":39,"x_max":654,"o":"m 654 1149 l 371 528 l 654 -93 l 561 -122 l 267 528 l 561 1178 l 654 1149 m 426 1149 l 143 528 l 426 -93 l 333 -122 l 39 528 l 333 1178 l 426 1149 z "},"》":{"ha":694,"x_min":40,"x_max":656,"o":"m 656 528 l 361 -122 l 268 -93 l 551 528 l 268 1149 l 361 1178 l 656 528 m 428 528 l 133 -122 l 40 -93 l 324 528 l 40 1149 l 133 1178 l 428 528 z "},"「":{"ha":694,"x_min":194,"x_max":642,"o":"m 194 285 l 194 1178 l 642 1178 l 642 1058 l 324 1058 l 324 285 l 194 285 z "},"」":{"ha":694,"x_min":53,"x_max":500,"o":"m 500 771 l 500 -122 l 53 -122 l 53 -3 l 371 -3 l 371 771 l 500 771 z "},"『":{"ha":694,"x_min":128,"x_max":639,"o":"m 639 949 l 382 949 l 382 260 l 128 260 l 128 1178 l 639 1178 l 639 949 m 567 1099 l 210 1099 l 210 332 l 301 332 l 301 1021 l 567 1021 l 567 1099 z "},"』":{"ha":694,"x_min":56,"x_max":567,"o":"m 56 107 l 313 107 l 313 796 l 567 796 l 567 -122 l 56 -122 l 56 107 m 128 -43 l 485 -43 l 485 724 l 393 724 l 393 35 l 128 35 l 128 -43 z "},"【":{"ha":1389,"x_min":922,"x_max":1344,"o":"m 1344 1178 l 1344 1171 q 1238 1057 1288 1124 q 1150 908 1188 990 q 1091 729 1113 825 q 1069 528 1069 633 q 1091 326 1069 422 q 1150 148 1113 231 q 1238 -1 1188 65 q 1344 -115 1288 -68 l 1344 -122 l 922 -122 l 922 1178 l 1344 1178 z "},"】":{"ha":1389,"x_min":44,"x_max":467,"o":"m 467 -122 l 44 -122 l 44 -115 q 151 -1 101 -68 q 239 148 201 65 q 298 326 276 231 q 319 528 319 422 q 298 729 319 633 q 239 908 276 825 q 151 1057 201 990 q 44 1171 101 1124 l 44 1178 l 467 1178 l 467 -122 z "},"〓":{"ha":1389,"x_min":139,"x_max":1250,"o":"m 1250 667 l 139 667 l 139 1083 l 1250 1083 l 1250 667 m 1250 -28 l 139 -28 l 139 389 l 1250 389 l 1250 -28 z "},"〔":{"ha":1389,"x_min":978,"x_max":1343,"o":"m 978 61 l 978 994 l 1289 1196 l 1343 1107 l 1100 950 l 1100 106 l 1343 -51 l 1289 -140 l 978 61 z "},"〕":{"ha":1389,"x_min":46,"x_max":411,"o":"m 100 -140 l 46 -51 l 289 106 l 289 950 l 46 1107 l 100 1196 l 411 994 l 411 61 l 100 -140 z "},"ㄱ":{"ha":1278,"x_min":244,"x_max":1032,"o":"m 1032 860 l 1032 196 l 890 196 l 890 744 l 244 744 l 244 860 l 1032 860 z "},"ㄲ":{"ha":1278,"x_min":178,"x_max":1124,"o":"m 1124 861 l 1124 197 l 982 197 l 982 746 l 690 746 l 690 861 l 1124 861 m 625 860 l 625 196 l 483 196 l 483 744 l 178 744 l 178 860 l 625 860 z "},"ㄳ":{"ha":1278,"x_min":176,"x_max":1171,"o":"m 946 639 q 958 532 946 585 q 998 433 971 479 q 1068 349 1025 386 q 1171 288 1111 311 l 1097 185 q 961 276 1014 218 q 878 410 908 335 q 795 276 847 335 q 660 185 743 218 l 586 288 q 688 349 646 311 q 758 433 731 386 q 797 532 785 479 q 810 639 810 585 l 810 871 l 946 871 l 946 639 m 176 857 l 585 857 l 585 196 l 444 196 l 444 742 l 176 742 l 176 857 z "},"ㄴ":{"ha":1278,"x_min":250,"x_max":1050,"o":"m 1050 319 l 1050 203 l 250 203 l 250 853 l 393 853 l 393 319 l 1050 319 z "},"ㄵ":{"ha":1278,"x_min":201,"x_max":1129,"o":"m 908 675 q 920 558 908 615 q 958 449 932 500 q 1027 356 985 397 q 1129 289 1069 315 l 1051 183 q 921 281 972 221 q 840 421 869 342 q 763 283 813 344 q 635 183 714 221 l 592 240 l 593 224 q 435 195 513 200 q 265 190 357 190 l 201 190 l 201 872 l 344 872 l 344 308 q 464 316 407 310 q 579 339 521 322 l 583 303 q 670 373 635 332 q 728 463 706 414 q 762 565 751 511 q 772 675 772 619 l 772 751 l 596 751 l 596 867 l 1088 867 l 1088 751 l 908 751 l 908 675 z "},"ㄶ":{"ha":1278,"x_min":200,"x_max":1092,"o":"m 1092 769 l 1092 654 l 579 654 l 579 769 l 774 769 l 774 888 l 913 888 l 913 769 l 1092 769 m 342 315 q 463 324 404 317 q 579 346 521 331 l 593 231 q 434 203 513 208 q 264 199 356 199 l 200 199 l 200 849 l 342 849 l 342 315 m 836 614 q 922 597 882 614 q 992 551 963 581 q 1038 481 1021 522 q 1054 392 1054 440 q 1038 302 1054 343 q 992 232 1021 261 q 922 186 963 203 q 836 169 882 169 q 751 186 790 169 q 681 232 711 203 q 635 302 651 261 q 618 392 618 343 q 635 481 618 440 q 681 551 651 522 q 751 597 711 581 q 836 614 790 614 m 836 281 q 908 310 881 281 q 935 392 935 340 q 908 473 935 443 q 836 503 881 503 q 767 473 794 503 q 739 392 739 443 q 767 310 739 340 q 836 281 794 281 z "},"ㄷ":{"ha":1278,"x_min":253,"x_max":1038,"o":"m 1038 306 l 1038 190 l 253 190 l 253 858 l 1026 858 l 1026 743 l 397 743 l 397 306 l 1038 306 z "},"ㄸ":{"ha":1278,"x_min":208,"x_max":1079,"o":"m 349 319 q 481 328 417 322 q 614 350 546 333 l 628 232 q 454 207 536 213 q 276 201 372 201 l 208 201 l 208 858 l 611 858 l 611 743 l 349 743 l 349 319 m 1079 317 l 1079 201 l 674 201 l 674 858 l 1074 858 l 1074 743 l 815 743 l 815 317 l 1079 317 z "},"ㄹ":{"ha":1278,"x_min":240,"x_max":1050,"o":"m 1050 303 l 1050 185 l 243 185 l 243 589 l 894 589 l 894 758 l 240 758 l 240 874 l 1031 874 l 1031 475 l 379 475 l 379 303 l 1050 303 z "},"ㄺ":{"ha":1278,"x_min":193,"x_max":1086,"o":"m 336 303 q 508 312 428 306 q 678 335 589 318 l 693 219 q 485 194 583 200 q 274 188 388 188 l 196 188 l 196 589 l 475 589 l 475 749 l 193 749 l 193 864 l 617 864 l 617 472 l 336 472 l 336 303 m 1086 864 l 1086 192 l 944 192 l 944 749 l 660 749 l 660 864 l 1086 864 z "},"ㄻ":{"ha":1278,"x_min":190,"x_max":1108,"o":"m 1108 864 l 1108 190 l 669 190 l 669 864 l 1108 864 m 333 304 q 478 310 408 306 q 629 331 549 315 l 642 215 q 453 192 542 196 q 264 188 364 188 l 192 188 l 192 589 l 467 589 l 467 747 l 190 747 l 190 863 l 608 863 l 608 472 l 333 472 l 333 304 m 982 749 l 796 749 l 796 306 l 982 306 l 982 749 z "},"ㄼ":{"ha":1278,"x_min":190,"x_max":1108,"o":"m 1108 865 l 1108 188 l 667 188 l 667 865 l 800 865 l 800 649 l 975 649 l 975 865 l 1108 865 m 333 303 q 481 310 410 304 q 632 332 553 317 l 646 217 q 457 192 546 197 q 265 186 368 186 l 192 186 l 192 589 l 467 589 l 467 747 l 190 747 l 190 863 l 608 863 l 608 472 l 333 472 l 333 303 m 975 532 l 800 532 l 800 304 l 975 304 l 975 532 z "}}}
